<?xml version="1.0" standalone="no"?>
<!DOCTYPE svg PUBLIC "-//W3C//DTD SVG 20010904//EN"
 "http://www.w3.org/TR/2001/REC-SVG-20010904/DTD/svg10.dtd">
<svg version="1.0" xmlns="http://www.w3.org/2000/svg"
 width="1252.000000pt" height="604.000000pt" viewBox="0 0 1252.000000 604.000000"
 preserveAspectRatio="xMidYMid meet">

<g transform="translate(0.000000,604.000000) scale(0.100000,-0.100000)"
fill="#000000" stroke="none">
<path d="M260 5150 c0 -400 3 -610 10 -610 7 0 10 180 10 520 l0 520 60 0 60
0 0 70 0 70 -60 0 c-33 0 -60 4 -60 10 0 7 173 10 500 10 327 0 500 3 500 10
0 7 -177 10 -510 10 l-510 0 0 -610z m120 500 l0 -50 -50 0 -50 0 0 50 0 50
50 0 50 0 0 -50z"/>
<path d="M1300 5750 c0 -7 143 -10 410 -10 267 0 410 3 410 10 0 7 -143 10
-410 10 -267 0 -410 -3 -410 -10z"/>
<path d="M2140 5750 c0 -7 185 -10 535 -10 350 0 535 3 535 10 0 7 -185 10
-535 10 -350 0 -535 -3 -535 -10z"/>
<path d="M3240 5750 c0 -7 142 -10 405 -10 263 0 405 3 405 10 0 7 -142 10
-405 10 -263 0 -405 -3 -405 -10z"/>
<path d="M4080 5750 c0 -7 185 -10 535 -10 350 0 535 3 535 10 0 7 -185 10
-535 10 -350 0 -535 -3 -535 -10z"/>
<path d="M5170 5750 c0 -7 143 -10 410 -10 267 0 410 3 410 10 0 7 -143 10
-410 10 -267 0 -410 -3 -410 -10z"/>
<path d="M6010 5750 c0 -7 187 -10 540 -10 353 0 540 3 540 10 0 7 -187 10
-540 10 -353 0 -540 -3 -540 -10z"/>
<path d="M7110 5750 c0 -7 143 -10 410 -10 267 0 410 3 410 10 0 7 -143 10
-410 10 -267 0 -410 -3 -410 -10z"/>
<path d="M7950 5750 c0 -6 47 -10 120 -10 73 0 120 4 120 10 0 6 -47 10 -120
10 -73 0 -120 -4 -120 -10z"/>
<path d="M8210 5750 c0 -7 142 -10 405 -10 263 0 405 3 405 10 0 7 -142 10
-405 10 -263 0 -405 -3 -405 -10z"/>
<path d="M9050 5750 c0 -7 142 -10 405 -10 263 0 405 3 405 10 0 7 -142 10
-405 10 -263 0 -405 -3 -405 -10z"/>
<path d="M9890 5750 c0 -6 45 -10 115 -10 70 0 115 4 115 10 0 6 -45 10 -115
10 -70 0 -115 -4 -115 -10z"/>
<path d="M10150 5750 c0 -7 142 -10 405 -10 263 0 405 3 405 10 0 7 -142 10
-405 10 -263 0 -405 -3 -405 -10z"/>
<path d="M10980 5750 c0 -7 143 -10 410 -10 267 0 410 3 410 10 0 7 -143 10
-410 10 -267 0 -410 -3 -410 -10z"/>
<path d="M11820 5750 c0 -6 47 -10 120 -10 73 0 120 4 120 10 0 6 -47 10 -120
10 -73 0 -120 -4 -120 -10z"/>
<path d="M12080 5750 c0 -6 33 -10 80 -10 47 0 80 -4 80 -10 0 -6 -27 -10 -60
-10 l-60 0 0 -70 0 -70 60 0 60 0 0 -520 c0 -340 3 -520 10 -520 7 0 10 210
10 610 l0 610 -90 0 c-53 0 -90 -4 -90 -10z m160 -100 l0 -50 -50 0 -50 0 0
50 0 50 50 0 50 0 0 -50z"/>
<path d="M2639 5708 c-1 -7 -1 -38 -1 -68 l0 -55 68 0 69 0 0 65 0 65 -67 3
c-50 2 -68 0 -69 -10z m116 -58 l0 -45 -47 -3 -48 -3 0 51 0 51 47 -3 47 -3 1
-45z"/>
<path d="M4055 5708 c-3 -7 -4 -753 -3 -1658 l3 -1645 145 -3 145 -2 13 27 c7
17 12 73 12 150 0 112 7 142 25 113 3 -5 22 -10 41 -10 19 0 34 -4 34 -10 0
-5 7 -10 16 -10 19 0 44 -24 44 -42 0 -8 9 -20 20 -28 11 -8 20 -22 20 -32 0
-10 5 -18 10 -18 6 0 10 -13 10 -30 0 -16 5 -30 10 -30 6 0 10 -9 10 -20 0
-11 5 -20 10 -20 6 0 10 9 10 20 0 11 5 20 10 20 6 0 10 14 10 30 0 17 5 30
10 30 6 0 10 8 10 18 0 10 9 24 20 32 11 8 20 22 20 31 0 10 14 23 30 31 17 7
30 16 30 20 0 5 18 8 40 8 22 0 40 5 40 10 0 6 5 10 10 10 6 0 10 -50 10 -130
0 -80 4 -130 10 -130 6 0 10 -9 10 -20 0 -18 7 -20 60 -20 53 0 60 -2 60 -20
0 -20 -7 -20 -1115 -20 l-1114 0 -3 78 -3 77 -67 3 -68 3 -1 -63 c-1 -35 -2
-70 -3 -78 -1 -13 -37 -15 -248 -18 -154 -1 -248 -6 -248 -12 0 -7 526 -10
1504 -10 l1505 0 3 27 3 28 1038 3 1037 2 0 1660 0 1660 -1585 0 c-1259 0
-1587 -3 -1590 -12z m955 -38 l0 -30 -437 -2 -438 -3 0 -1565 0 -1565 98 -3
97 -3 0 -40 0 -40 -127 3 -128 3 -3 1625 c-1 894 0 1631 3 1638 3 9 107 12
470 12 l465 0 0 -30z m120 -21 l0 -50 -47 3 c-46 3 -48 4 -51 36 -5 53 2 62
53 62 l45 0 0 -51z m2080 -1589 l0 -1640 -460 0 -460 0 0 40 0 40 110 0 110 0
0 610 0 610 50 0 50 0 0 -610 0 -610 250 0 250 0 0 790 0 790 -250 0 c-243 0
-250 -1 -250 -20 0 -17 -7 -20 -50 -20 l-50 0 0 430 0 430 70 0 c40 0 70 -4
70 -10 0 -6 -27 -10 -60 -10 l-60 0 0 -370 0 -370 310 0 310 0 0 370 0 370
-70 0 c-40 0 -70 4 -70 10 0 6 30 10 70 10 l70 0 0 370 0 370 -1000 0 -1000 0
0 23 c0 13 3 27 7 30 3 4 467 7 1030 7 l1023 0 0 -1640z m-2200 1540 c0 -18 7
-20 69 -20 60 0 69 2 74 20 5 20 14 20 991 20 l986 0 0 -350 0 -350 -70 0
c-40 0 -70 -4 -70 -10 0 -6 -60 -10 -160 -10 -100 0 -160 4 -160 10 0 6 -37
10 -90 10 l-90 0 0 -280 0 -280 -740 0 -740 0 0 -920 0 -920 -50 0 -50 0 0
100 0 100 -30 0 c-16 0 -30 -4 -30 -10 0 -5 -18 -10 -40 -10 -22 0 -40 -4 -40
-10 0 -5 -7 -10 -15 -10 -19 0 -65 -44 -65 -62 0 -8 -9 -20 -20 -28 -11 -8
-20 -22 -20 -32 0 -10 -4 -18 -10 -18 -5 0 -10 -13 -10 -30 0 -16 -4 -30 -10
-30 -5 0 -10 14 -10 30 0 17 -4 30 -10 30 -5 0 -10 9 -10 20 0 11 -9 25 -20
32 -11 7 -20 19 -20 27 0 21 -40 61 -62 61 -10 0 -18 5 -18 10 0 6 -18 10 -40
10 -22 0 -40 5 -40 11 0 6 -12 9 -27 7 l-28 -3 -3 -98 -3 -98 -87 3 -87 3 -3
1535 c-1 844 0 1541 3 1548 3 9 99 12 430 12 418 0 425 0 425 -20z m2120
-1090 l0 -350 -290 0 c-187 0 -290 4 -290 10 0 6 100 10 280 10 l280 0 0 330
0 330 -280 0 c-180 0 -280 4 -280 10 0 6 103 10 290 10 l290 0 0 -350z m-62
58 l2 -248 -240 0 -240 0 0 250 0 250 238 -2 237 -3 3 -247z m-1958 -1139 l0
-910 -37 3 -38 3 -3 895 c-1 492 0 901 3 908 2 6 20 12 40 12 l35 0 0 -911z
m340 871 l0 -41 -157 3 -158 3 -3 38 -3 37 160 0 161 0 0 -40z m340 0 l0 -40
-160 0 -160 0 0 40 0 40 160 0 160 0 0 -40z m366 26 c8 -8 14 -26 14 -40 l0
-26 -170 0 -170 0 0 40 0 40 156 0 c121 0 159 -3 170 -14z m334 -26 l0 -40
-150 0 c-141 0 -150 1 -150 19 0 11 6 22 13 25 10 5 10 7 0 12 -38 17 1 24
137 24 l150 0 0 -40z m-1040 -100 l0 -41 -157 3 c-157 3 -158 3 -161 26 -7 51
-4 52 163 52 l155 0 0 -40z m340 0 l0 -40 -160 0 -160 0 0 40 0 40 160 0 160
0 0 -40z m380 0 l0 -40 -170 0 -170 0 0 40 0 40 170 0 170 0 0 -40z m320 0 l0
-40 -150 0 -150 0 0 40 0 40 150 0 150 0 0 -40z m580 30 c0 -6 -87 -10 -240
-10 -153 0 -240 4 -240 10 0 6 87 10 240 10 153 0 240 -4 240 -10z m-1620
-130 l0 -41 -157 3 c-157 3 -158 3 -161 26 -7 51 -4 52 163 52 l155 0 0 -40z
m340 0 l0 -40 -160 0 -160 0 0 40 0 40 160 0 160 0 0 -40z m380 0 l0 -40 -170
0 -170 0 0 40 0 40 170 0 170 0 0 -40z m320 0 l0 -40 -150 0 -150 0 0 40 0 40
150 0 150 0 0 -40z m600 -810 l0 -770 -230 0 -230 0 0 610 c0 400 -3 610 -10
610 -5 0 -10 5 -10 10 0 6 18 10 40 10 22 0 40 5 40 10 0 6 7 10 15 10 20 0
105 85 105 105 0 8 5 15 10 15 6 0 10 18 10 40 0 22 5 40 10 40 6 0 10 14 10
30 l0 30 -110 0 c-67 0 -110 4 -110 10 0 6 83 10 230 10 l230 0 0 -770z
m-1640 710 l0 -41 -157 3 c-157 3 -158 3 -161 26 -7 51 -4 52 163 52 l155 0 0
-40z m340 0 l0 -40 -160 0 -160 0 0 40 0 40 160 0 160 0 0 -40z m380 0 l0 -40
-170 0 -170 0 0 40 0 40 170 0 170 0 0 -40z m320 0 l0 -40 -150 0 -150 0 0 40
0 40 150 0 150 0 0 -40z m80 10 c0 -6 50 -10 130 -10 80 0 130 -4 130 -10 0
-5 -4 -10 -10 -10 -5 0 -10 -18 -10 -40 0 -22 -4 -40 -10 -40 -5 0 -10 -7 -10
-15 0 -20 -65 -85 -85 -85 -8 0 -15 -4 -15 -10 0 -5 -18 -10 -40 -10 -22 0
-40 -4 -40 -10 0 -5 -18 -10 -40 -10 -22 0 -40 -4 -40 -10 0 -5 -4 -10 -10
-10 -6 0 -10 53 -10 140 l0 140 30 0 c17 0 30 -4 30 -10z m-1120 -110 l0 -41
-157 3 c-157 3 -158 3 -161 26 -7 51 -4 52 163 52 l155 0 0 -40z m340 0 l0
-40 -160 0 -160 0 0 40 0 40 160 0 160 0 0 -40z m380 0 l0 -40 -170 0 -170 0
0 40 0 40 170 0 170 0 0 -40z m320 0 l0 -40 -150 0 -150 0 0 40 0 40 150 0
150 0 0 -40z m-1040 -100 l0 -41 -157 3 c-157 3 -158 3 -161 26 -7 51 -4 52
163 52 l155 0 0 -40z m340 0 l0 -40 -160 0 -160 0 0 40 0 40 160 0 160 0 0
-40z m380 0 l0 -40 -170 0 -170 0 0 40 0 40 170 0 170 0 0 -40z m320 0 l0 -40
-150 0 -150 0 0 40 0 40 150 0 150 0 0 -40z m-1040 -100 l0 -41 -157 3 c-157
3 -158 3 -161 26 -7 51 -4 52 163 52 l155 0 0 -40z m340 0 l0 -40 -160 0 -160
0 0 40 0 40 160 0 160 0 0 -40z m380 0 l0 -40 -170 0 -170 0 0 40 0 40 170 0
170 0 0 -40z m320 0 l0 -40 -150 0 -150 0 0 40 0 40 150 0 150 0 0 -40z
m-1040 -100 l0 -41 -157 3 c-157 3 -158 3 -161 26 -7 51 -4 52 163 52 l155 0
0 -40z m340 0 l0 -40 -160 0 -160 0 0 40 0 40 160 0 160 0 0 -40z m380 0 l0
-40 -170 0 -170 0 0 40 0 40 170 0 170 0 0 -40z m320 0 l0 -40 -150 0 -150 0
0 40 0 40 150 0 150 0 0 -40z m-1040 -110 l0 -51 -157 3 -158 3 -3 33 c-6 63
-8 62 163 62 l155 0 0 -50z m340 0 l0 -50 -160 0 -160 0 0 50 0 50 160 0 160
0 0 -50z m380 0 l0 -50 -170 0 -170 0 0 50 0 50 170 0 170 0 0 -50z m320 0 l0
-50 -150 0 -150 0 0 50 0 50 150 0 150 0 0 -50z m-1040 -279 l0 -208 73 -5
c60 -4 226 -4 610 1 l57 1 0 210 0 210 150 0 150 0 0 -430 0 -430 -677 2 -678
3 -3 415 c-1 228 0 421 3 427 3 10 45 13 160 13 l155 0 0 -209z m340 159 c0
-43 3 -50 20 -50 17 0 20 7 20 50 l0 50 170 0 170 0 0 -200 0 -200 -347 0
-348 0 -4 200 -3 200 161 0 161 0 0 -50z m700 -840 c0 -7 -233 -10 -680 -10
-447 0 -680 3 -680 10 0 7 233 10 680 10 447 0 680 -3 680 -10z m-3736 -100
l-2 -65 -46 -3 -46 -3 0 71 0 71 48 -3 47 -3 -1 -65z m2256 30 l0 -40 -40 0
-40 0 0 40 0 40 40 0 40 0 0 -40z m120 -31 l0 -70 -47 3 -48 3 -3 68 -3 67 51
0 50 0 0 -71z m1140 21 l0 -30 -560 0 -560 0 0 23 c0 13 3 27 7 30 3 4 255 7
560 7 l553 0 0 -30z"/>
<path d="M5320 4976 c0 -19 5 -38 10 -41 6 -4 10 10 10 34 0 23 -4 41 -10 41
-5 0 -10 -15 -10 -34z"/>
<path d="M5249 5000 c-6 -21 -5 -70 1 -70 13 0 20 42 10 59 -5 9 -10 14 -11
11z"/>
<path d="M4915 4980 c3 -5 8 -10 11 -10 2 0 4 5 4 10 0 6 -5 10 -11 10 -5 0
-7 -4 -4 -10z"/>
<path d="M5018 4983 c7 -3 16 -2 19 1 4 3 -2 6 -13 5 -11 0 -14 -3 -6 -6z"/>
<path d="M5092 4976 c7 -8 15 -12 17 -11 5 6 -10 25 -20 25 -5 0 -4 -6 3 -14z"/>
<path d="M5201 4954 c0 -11 3 -14 6 -6 3 7 2 16 -1 19 -3 4 -6 -2 -5 -13z"/>
<path d="M4920 4950 c0 -5 5 -10 10 -10 6 0 10 5 10 10 0 6 -4 10 -10 10 -5 0
-10 -4 -10 -10z"/>
<path d="M4840 4942 c0 -5 7 -15 15 -22 8 -7 15 -8 15 -2 0 5 -7 15 -15 22 -8
7 -15 8 -15 2z"/>
<path d="M4995 4920 c-3 -5 -1 -10 4 -10 6 0 11 5 11 10 0 6 -2 10 -4 10 -3 0
-8 -4 -11 -10z"/>
<path d="M5035 4920 c-3 -5 -1 -10 4 -10 6 0 11 5 11 10 0 6 -2 10 -4 10 -3 0
-8 -4 -11 -10z"/>
<path d="M5450 4909 c0 -5 5 -7 10 -4 6 3 10 8 10 11 0 2 -4 4 -10 4 -5 0 -10
-5 -10 -11z"/>
<path d="M4972 4838 c-15 -15 -16 -48 -2 -48 6 0 10 8 10 18 0 10 5 23 12 30
7 7 8 12 2 12 -5 0 -15 -5 -22 -12z"/>
<path d="M5120 4824 c0 -28 15 -25 23 6 3 13 0 20 -9 20 -8 0 -14 -10 -14 -26z"/>
<path d="M5009 4793 c-13 -16 -12 -17 4 -4 16 13 21 21 13 21 -2 0 -10 -8 -17
-17z"/>
<path d="M5334 4799 c-3 -6 -1 -15 6 -19 7 -4 9 -13 6 -19 -4 -6 -1 -11 6 -11
17 0 18 33 1 48 -9 9 -14 9 -19 1z"/>
<path d="M5065 4769 c-11 -17 1 -21 15 -4 8 9 8 15 2 15 -6 0 -14 -5 -17 -11z"/>
<path d="M5111 4764 c-7 -8 -11 -17 -9 -20 3 -2 13 5 23 16 10 11 14 20 9 20
-5 -1 -15 -8 -23 -16z"/>
<path d="M6130 4310 c0 -5 5 -10 10 -10 6 0 10 5 10 10 0 6 -4 10 -10 10 -5 0
-10 -4 -10 -10z"/>
<path d="M6950 3990 c0 -6 27 -10 60 -10 33 0 60 4 60 10 0 6 -27 10 -60 10
-33 0 -60 -4 -60 -10z"/>
<path d="M5780 2954 c0 -8 5 -12 10 -9 6 3 10 10 10 16 0 5 -4 9 -10 9 -5 0
-10 -7 -10 -16z"/>
<path d="M5985 2930 c10 -11 25 -20 33 -20 12 0 11 5 -6 20 -12 11 -27 20 -33
20 -7 0 -5 -8 6 -20z"/>
<path d="M5725 2910 c-3 -5 -2 -10 4 -10 5 0 13 5 16 10 3 6 2 10 -4 10 -5 0
-13 -4 -16 -10z"/>
<path d="M5608 2893 c7 -3 16 -2 19 1 4 3 -2 6 -13 5 -11 0 -14 -3 -6 -6z"/>
<path d="M5615 3120 c3 -5 8 -10 11 -10 2 0 4 5 4 10 0 6 -5 10 -11 10 -5 0
-7 -4 -4 -10z"/>
<path d="M5840 3110 c0 -5 5 -10 10 -10 6 0 10 5 10 10 0 6 -4 10 -10 10 -5 0
-10 -4 -10 -10z"/>
<path d="M5918 3085 c-3 -25 -1 -32 8 -24 18 15 23 47 9 53 -9 3 -14 -7 -17
-29z"/>
<path d="M5600 3069 c0 -5 5 -7 10 -4 6 3 10 8 10 11 0 2 -4 4 -10 4 -5 0 -10
-5 -10 -11z"/>
<path d="M5495 3050 c3 -5 8 -10 11 -10 2 0 4 5 4 10 0 6 -5 10 -11 10 -5 0
-7 -4 -4 -10z"/>
<path d="M7370 5650 l0 -70 70 0 70 0 0 70 0 70 -70 0 -70 0 0 -70z m118 3
l-3 -48 -47 -3 -48 -3 0 50 0 51 51 0 50 0 -3 -47z"/>
<path d="M9744 5706 c-3 -7 -4 -38 -2 -67 l3 -54 69 0 68 0 4 45 c8 83 3 90
-72 90 -45 0 -66 -4 -70 -14z m116 -57 l0 -50 -47 3 -46 3 1 43 c0 23 1 44 1
47 1 3 21 5 46 5 l45 0 0 -51z"/>
<path d="M260 3980 c0 -353 3 -540 10 -540 7 0 10 187 10 540 0 353 -3 540
-10 540 -7 0 -10 -187 -10 -540z"/>
<path d="M12240 3980 c0 -353 3 -540 10 -540 7 0 10 187 10 540 0 353 -3 540
-10 540 -7 0 -10 -187 -10 -540z"/>
<path d="M260 2880 l0 -540 510 0 c333 0 510 3 510 10 0 7 -153 10 -440 10
l-440 0 0 80 0 80 -60 0 -60 0 0 450 c0 293 -3 450 -10 450 -7 0 -10 -187 -10
-540z m120 -450 l0 -70 -50 0 -50 0 0 70 0 70 50 0 50 0 0 -70z"/>
<path d="M12240 2970 l0 -450 -60 0 -60 0 0 -80 c0 -73 -2 -80 -20 -80 -11 0
-20 -4 -20 -10 0 -6 37 -10 90 -10 l90 0 0 540 c0 353 -3 540 -10 540 -7 0
-10 -157 -10 -450z m0 -540 l0 -70 -50 0 -50 0 0 70 0 70 50 0 50 0 0 -70z"/>
<path d="M7370 2440 l0 -80 -130 0 c-80 0 -130 -4 -130 -10 0 -7 143 -10 410
-10 267 0 410 3 410 10 0 6 -77 10 -210 10 l-210 0 0 80 0 80 -70 0 -70 0 0
-80z m120 -10 l0 -70 -50 0 -50 0 0 70 0 70 50 0 50 0 0 -70z"/>
<path d="M9747 2513 c-4 -3 -7 -39 -7 -80 l0 -73 -345 0 c-223 0 -345 -4 -345
-10 0 -7 185 -10 535 -10 338 0 535 4 535 10 0 5 -50 11 -117 12 l-118 3 3 57
c6 92 1 98 -72 98 -34 0 -66 -3 -69 -7z m113 -84 l0 -70 -47 3 -47 3 2 65 c0
36 1 66 2 68 0 1 20 2 45 2 l45 0 0 -71z"/>
<path d="M1300 2350 c0 -7 144 -10 411 -10 271 0 408 3 404 10 -4 6 -152 10
-411 10 -263 0 -404 -3 -404 -10z"/>
<path d="M5170 2350 c0 -7 143 -10 410 -10 267 0 410 3 410 10 0 7 -143 10
-410 10 -267 0 -410 -3 -410 -10z"/>
<path d="M6010 2350 c0 -7 187 -10 540 -10 353 0 540 3 540 10 0 7 -187 10
-540 10 -353 0 -540 -3 -540 -10z"/>
<path d="M7950 2350 c0 -6 47 -10 120 -10 73 0 120 4 120 10 0 6 -47 10 -120
10 -73 0 -120 -4 -120 -10z"/>
<path d="M8210 2350 c0 -7 142 -10 405 -10 263 0 405 3 405 10 0 7 -142 10
-405 10 -263 0 -405 -3 -405 -10z"/>
<path d="M10150 2350 c0 -7 142 -10 405 -10 263 0 405 3 405 10 0 7 -142 10
-405 10 -263 0 -405 -3 -405 -10z"/>
<path d="M10980 2350 c0 -7 143 -10 410 -10 267 0 410 3 410 10 0 7 -143 10
-410 10 -267 0 -410 -3 -410 -10z"/>
<path d="M11820 2350 c0 -6 47 -10 120 -10 73 0 120 4 120 10 0 6 -47 10 -120
10 -73 0 -120 -4 -120 -10z"/>

</g>
</svg>
