<?xml version="1.0" encoding="UTF-8" standalone="no"?>
<svg
   version="1.0"
   width="1228.000000pt"
   height="574.000000pt"
   viewBox="0 0 1228.000000 574.000000"
   preserveAspectRatio="xMidYMid meet"
   id="svg1"
   sodipodi:docname="Anexo_B_1.svg"
   inkscape:version="1.3.2 (091e20e, 2023-11-25, custom)"
   xmlns:inkscape="http://www.inkscape.org/namespaces/inkscape"
   xmlns:sodipodi="http://sodipodi.sourceforge.net/DTD/sodipodi-0.dtd"
   xmlns="http://www.w3.org/2000/svg"
   xmlns:svg="http://www.w3.org/2000/svg">
  <defs
     id="defs1" />
  <sodipodi:namedview
     id="namedview1"
     pagecolor="#ffffff"
     bordercolor="#000000"
     borderopacity="0.25"
     inkscape:showpageshadow="2"
     inkscape:pageopacity="0.0"
     inkscape:pagecheckerboard="0"
     inkscape:deskcolor="#d1d1d1"
     inkscape:document-units="pt"
     inkscape:zoom="0.38538274"
     inkscape:cx="818.66667"
     inkscape:cy="382.7364"
     inkscape:window-width="1366"
     inkscape:window-height="705"
     inkscape:window-x="-8"
     inkscape:window-y="-8"
     inkscape:window-maximized="1"
     inkscape:current-layer="svg1" />
  <g
     transform="translate(0.000000,574.000000) scale(0.100000,-0.100000)"
     fill="#000000"
     stroke="none"
     id="g1">
    <path
       d="M122 3858 l3 -1703 5998 -3 5997 -2 0 1705 0 1705 -6000 0 -6000 0 2 -1702z m11978 1672 c0 -6 -27 -10 -60 -10 l-60 0 0 -30 0 -30 -1117 2 c-985 3 -1118 5 -1119 18 -3 41 -3 41 -71 38 -66 -3 -68 -4 -71 -30 l-3 -28 -1115 0 -1114 0 0 30 0 30 -69 0 c-69 0 -70 0 -73 -27 l-3 -28 -1115 0 -1115 0 -3 28 c-3 27 -4 27 -73 27 l-69 0 0 -30 0 -30 -1104 0 -1105 0 -3 28 c-3 26 -5 27 -70 30 -66 3 -67 3 -70 -25 l-3 -28 -1117 -3 -1118 -2 0 30 0 30 -60 0 c-33 0 -60 4 -60 10 0 7 2000 10 5980 10 3980 0 5980 -3 5980 -10z m-11860 -80 l0 -50 -50 0 -50 0 0 50 0 50 50 0 50 0 0 -50z m2375 0 l0 -45 -47 -3 -48 -3 0 51 0 51 47 -3 47 -3 1 -45z m2355 -1 l0 -50 -47 3 c-46 3 -48 4 -51 36 -5 53 2 62 53 62 l45 0 0 -51z m2378 4 l-3 -48 -47 -3 -48 -3 0 50 0 51 51 0 50 0 -3 -47z m2372 -3 l0 -50 -45 0 c-52 0 -61 11 -51 65 7 34 8 35 51 35 l45 0 0 -50z m2380 -1 l0 -50 -47 3 -48 3 -3 48 -3 47 50 0 51 0 0 -51z m-9603 -46 c2 -10 25 -28 51 -40 41 -20 64 -23 165 -23 106 0 136 -7 107 -25 -5 -3 -10 -19 -10 -36 0 -68 -88 -159 -155 -159 -25 0 -75 -22 -75 -32 0 -5 9 -8 20 -8 11 0 20 -4 20 -10 0 -5 18 -10 40 -10 22 0 40 -4 40 -9 0 -5 9 -11 20 -14 11 -3 24 -16 29 -30 5 -14 14 -28 20 -31 14 -9 41 -66 41 -87 0 -10 5 -21 10 -24 29 -18 -1 -25 -108 -25 -148 0 -168 -8 -176 -69 -3 -25 -6 -583 -6 -1241 l0 -1195 -1132 0 -1133 0 -3 1543 -2 1542 1116 0 c1054 0 1116 -1 1121 -17z m2356 -3 c4 -17 14 -20 71 -20 59 0 66 2 66 20 0 20 7 20 1120 20 1113 0 1120 0 1120 -20 0 -18 7 -20 70 -20 63 0 70 2 70 20 0 20 7 20 421 20 277 0 418 -3 414 -10 -4 -6 -58 -10 -131 -10 l-124 0 0 -30 c0 -16 5 -30 10 -30 6 0 10 -18 10 -40 0 -22 5 -40 10 -40 6 0 10 -7 10 -15 0 -19 44 -65 62 -65 8 0 20 -9 28 -20 8 -11 22 -20 32 -20 10 0 18 -4 18 -10 0 -5 14 -10 30 -10 17 0 30 -4 30 -10 0 -5 -8 -10 -17 -10 -23 0 -63 -39 -63 -62 0 -10 -4 -18 -10 -18 -5 0 -10 -13 -10 -30 0 -28 2 -30 40 -30 l41 0 -3 -117 -3 -118 -310 -2 c-170 -2 -313 -3 -317 -3 -5 0 -8 -240 -8 -532 l0 -533 27 -12 c17 -8 71 -13 144 -13 68 0 120 -4 124 -10 12 -20 26 -9 23 18 l-3 27 -127 3 -128 3 0 119 0 120 30 0 30 0 0 90 c0 82 9 112 23 76 8 -21 107 -66 147 -66 40 0 59 -15 81 -67 13 -30 17 -32 69 -35 l55 -3 3 -167 2 -167 68 -3 67 -3 0 -105 0 -105 -67 -3 -68 -3 -2 -177 -3 -177 -55 -3 c-48 -3 -57 -6 -68 -29 -6 -15 -12 -33 -12 -40 0 -7 -4 -13 -10 -13 -5 0 -10 -18 -10 -40 0 -22 -4 -40 -10 -40 -5 0 -10 -6 -10 -13 0 -14 -62 -75 -97 -95 -13 -6 -36 -12 -53 -12 -16 0 -30 -4 -30 -10 0 -5 -4 -10 -10 -10 -6 0 -10 57 -10 150 l0 150 -30 0 -30 0 0 150 0 150 71 0 70 0 -3 28 c-3 26 -5 27 -70 30 -38 2 -68 5 -68 8 0 16 33 34 64 34 20 0 36 5 36 10 0 6 7 10 15 10 20 0 105 85 105 105 0 8 5 15 10 15 6 0 10 18 10 40 0 22 -4 40 -10 40 -5 0 -10 -18 -10 -40 0 -22 -4 -40 -10 -40 -5 0 -10 -7 -10 -15 0 -20 -65 -85 -85 -85 -8 0 -15 -4 -15 -10 0 -5 -18 -10 -40 -10 -22 0 -40 -4 -40 -10 0 -5 -18 -10 -40 -10 l-40 0 -2 -167 -3 -168 -43 -3 c-49 -4 -72 13 -72 52 0 14 -4 26 -10 26 -5 0 -10 8 -10 18 0 10 -9 24 -20 32 -11 8 -20 20 -20 28 0 18 -46 62 -65 62 -8 0 -15 5 -15 10 0 6 -18 10 -40 10 -22 0 -40 5 -40 10 0 6 -13 10 -30 10 l-30 0 0 -130 0 -130 -50 0 -50 0 0 170 0 170 -40 0 c-22 0 -40 5 -40 10 0 6 -13 10 -30 10 -16 0 -30 5 -30 10 0 6 -8 10 -18 10 -10 0 -24 9 -32 20 -8 11 -20 20 -28 20 -18 0 -42 25 -42 44 0 9 -4 16 -10 16 -5 0 -10 18 -10 40 0 22 -4 40 -10 40 -5 0 -10 5 -10 10 0 6 50 10 130 10 80 0 130 4 130 10 0 6 9 10 20 10 20 0 20 7 20 535 l0 535 -22 0 c-13 1 -165 2 -338 3 l-315 2 -3 28 -3 27 -680 0 c-560 0 -684 2 -702 14 -13 8 -37 12 -59 9 l-38 -5 -2 -167 c-3 -140 -5 -166 -18 -166 -12 0 -15 22 -18 126 l-3 127 -25 5 c-16 3 -28 -1 -31 -8 -2 -8 -16 -12 -31 -11 -15 2 -38 -1 -52 -7 -28 -12 -80 -61 -80 -75 0 -5 -7 -15 -15 -22 -21 -17 -45 -69 -45 -97 0 -14 -4 -21 -10 -18 -5 3 -10 14 -10 24 0 23 -26 75 -45 91 -8 7 -15 18 -15 24 0 27 -90 89 -115 80 -8 -4 -25 0 -38 8 -12 7 -32 12 -44 10 -22 -3 -23 -6 -23 -128 l0 -124 -40 0 -40 0 0 165 0 165 -655 0 c-517 0 -655 3 -656 13 -1 6 -1 20 0 30 1 9 -3 17 -8 17 -6 0 -11 14 -11 30 0 17 -4 30 -10 30 -5 0 -10 8 -10 18 0 10 -9 24 -20 32 -11 8 -20 21 -20 29 0 16 -49 61 -67 61 -7 0 -13 5 -13 10 0 6 -18 10 -40 10 -22 0 -40 5 -40 10 0 6 14 10 30 10 38 0 63 14 118 65 47 44 72 86 72 122 0 13 5 32 12 42 6 10 8 26 5 35 -5 13 -24 16 -112 16 -98 0 -105 1 -105 20 0 20 7 20 1104 20 1095 0 1104 0 1109 -20z m4750 0 c4 -17 14 -20 70 -20 56 0 65 3 70 20 5 20 14 20 1121 20 l1116 0 0 -1545 0 -1545 -1855 0 -1855 0 0 1325 c0 1318 0 1325 -20 1325 -11 0 -20 5 -20 10 0 6 -27 10 -60 10 -33 0 -60 2 -60 3 0 2 7 18 15 35 18 35 64 62 106 62 15 0 31 5 34 10 4 6 -10 10 -34 10 -23 0 -41 5 -41 10 0 6 -13 10 -30 10 -16 0 -30 5 -30 10 0 6 -8 10 -18 10 -10 0 -24 9 -32 20 -8 11 -20 20 -28 20 -18 0 -42 25 -42 44 0 9 -4 16 -10 16 -5 0 -10 18 -10 40 0 22 -4 40 -10 40 -5 0 -10 5 -10 10 0 6 46 10 118 10 124 0 182 15 182 46 0 12 96 14 664 14 655 0 664 0 669 -20z m-9405 -1542 l-3 -1523 -25 0 -25 0 -3 1523 -2 1522 30 0 30 0 -2 -1522z m42 2 c0 -1007 -3 -1520 -10 -1520 -7 0 -10 513 -10 1520 0 1007 3 1520 10 1520 7 0 10 -513 10 -1520z m11780 0 c0 -1007 -3 -1520 -10 -1520 -7 0 -10 513 -10 1520 0 1007 3 1520 10 1520 7 0 10 -513 10 -1520z m78 -2 l-3 -1523 -25 0 -25 0 -3 1523 -2 1522 30 0 30 0 -2 -1522z m-3850 -220 l-3 -1303 -27 -3 -28 -3 0 1305 0 1306 30 0 30 0 -2 -1302z m-4098 977 l0 -165 28 -1 c52 -2 62 -4 62 -13 0 -7 -48 -10 -100 -7 -6 1 -10 63 -10 166 l0 165 -775 0 -775 0 0 -1209 c0 -796 -3 -1212 -10 -1216 -7 -4 -10 405 -10 1219 l0 1225 123 3 c67 2 425 2 795 0 l672 -2 0 -165z m798 -1057 l-3 -1223 -25 0 -25 0 -3 1043 c-2 898 -4 1042 -16 1042 -24 0 -29 21 -7 27 20 5 21 11 21 169 l0 164 30 0 30 0 -2 -1222z m1382 919 c0 -207 3 -286 12 -295 9 -9 -24 -12 -150 -12 l-162 0 -2 238 -3 237 -344 3 c-189 2 -354 1 -367 -2 l-24 -6 0 -235 0 -235 -160 0 -160 0 0 295 0 295 680 0 680 0 0 -283z m-2218 96 l3 -168 78 -3 c71 -3 77 -1 77 17 0 11 5 23 10 26 6 4 10 58 10 131 0 113 7 144 25 114 3 -5 19 -10 34 -10 39 0 91 -28 101 -55 5 -13 13 -26 19 -29 12 -8 41 -65 41 -81 0 -14 23 -65 30 -65 7 0 30 51 30 67 0 18 21 54 43 74 9 9 17 22 17 28 0 17 26 41 44 41 9 0 16 5 16 10 0 6 18 10 40 10 22 0 40 5 40 10 0 6 5 10 10 10 6 0 10 -46 10 -119 0 -133 13 -175 52 -176 l23 0 3 -1037 2 -1038 -1135 0 -1135 0 0 1205 0 1205 755 0 755 0 2 -167z m2393 117 c-3 -5 -31 -10 -61 -10 l-54 0 0 -365 0 -365 300 0 300 0 0 365 0 365 -60 0 c-33 0 -60 4 -60 10 0 6 30 10 70 10 l70 0 0 -505 c0 -319 -4 -505 -10 -505 -5 0 -11 50 -12 118 l-3 117 -295 0 -295 0 -3 -297 -2 -298 60 0 c33 0 60 -4 60 -10 0 -6 -27 -10 -60 -10 l-60 0 0 -170 0 -170 120 0 c73 0 120 -4 120 -10 0 -6 -47 -10 -120 -10 l-120 0 2 -317 3 -318 295 0 295 0 3 314 c2 244 -1 316 -10 322 -10 7 -10 11 0 21 8 8 12 59 12 175 l0 163 -60 0 c-33 0 -60 4 -60 10 0 6 27 10 60 10 33 0 60 4 60 10 0 6 5 10 10 10 7 0 10 -180 10 -520 l0 -520 111 0 110 0 -3 -28 -3 -27 -535 0 -535 0 -3 27 -3 27 108 3 108 3 3 1193 2 1192 71 0 c44 0 68 -4 64 -10z m340 0 c-4 -6 -67 -10 -155 -10 -88 0 -151 4 -155 10 -4 7 50 10 155 10 105 0 159 -3 155 -10z m1320 0 c-4 -6 -115 -10 -301 -10 l-294 0 0 -364 0 -364 23 -7 22 -8 -22 -4 c-22 -4 -23 -8 -23 -124 0 -73 -4 -119 -10 -119 -7 0 -10 175 -10 505 l0 505 311 0 c204 0 308 -3 304 -10z m5 -375 l0 -345 -129 0 c-101 0 -131 3 -141 15 -10 11 -9 18 3 30 9 8 23 15 31 15 9 0 16 5 16 10 0 6 7 10 15 10 20 0 65 45 65 65 0 8 5 15 10 15 6 0 10 9 10 20 0 11 5 20 10 20 6 0 10 14 10 30 0 17 5 30 10 30 6 0 10 15 10 34 0 19 -4 38 -10 41 -5 3 -10 15 -10 26 0 28 -18 57 -70 112 -35 37 -51 47 -77 47 -17 0 -35 5 -38 10 -3 6 -28 10 -55 10 -27 0 -52 -4 -55 -10 -3 -5 -16 -10 -28 -10 -28 -1 -89 -55 -116 -104 -22 -39 -28 -76 -11 -76 6 0 10 9 10 20 0 44 71 130 106 130 13 0 26 5 29 10 3 6 33 10 66 10 33 0 59 -4 59 -10 0 -5 16 -10 35 -10 27 0 43 -8 68 -33 39 -41 57 -71 57 -96 0 -11 5 -23 10 -26 6 -3 10 -22 10 -41 0 -19 -4 -34 -10 -34 -5 0 -10 -13 -10 -30 0 -16 -4 -30 -10 -30 -5 0 -10 -9 -10 -20 0 -11 -4 -20 -10 -20 -5 0 -10 -7 -10 -16 0 -20 -24 -44 -44 -44 -9 0 -16 -4 -16 -10 0 -5 -9 -10 -19 -10 -11 0 -21 -6 -24 -12 -5 -16 -37 7 -37 27 0 6 -9 20 -20 30 -11 10 -20 23 -20 30 0 28 -85 85 -128 85 -16 0 -37 9 -47 20 -15 16 -19 17 -31 5 -16 -16 -19 -61 -4 -70 6 -3 10 -48 10 -101 0 -87 -1 -94 -20 -94 -19 0 -20 7 -20 124 0 73 4 127 10 131 6 3 10 21 10 40 0 19 -4 37 -10 40 -6 4 -10 75 -10 181 l0 174 290 0 290 0 0 -345z m-1220 10 l0 -315 -260 0 -260 0 0 315 0 315 260 0 260 0 0 -315z m-940 70 l0 -225 -169 0 -170 0 -3 48 c-2 34 -7 47 -18 47 -11 0 -16 -13 -18 -47 l-3 -48 -160 0 -159 0 0 225 0 225 350 0 350 0 0 -225z m1697 -209 c15 1 36 -4 45 -13 10 -9 18 -12 18 -8 0 4 9 0 20 -10 11 -10 20 -23 20 -30 0 -7 9 -20 20 -30 11 -10 20 -24 20 -32 0 -7 5 -13 10 -13 6 0 10 -4 10 -10 0 -20 -86 -10 -138 16 -54 27 -82 65 -82 114 0 32 11 46 22 27 4 -8 19 -13 35 -11z m-2419 -78 l3 -38 -160 0 -161 0 0 33 c0 19 3 37 7 41 4 3 75 5 157 4 l151 -3 3 -37z m340 0 l3 -38 -160 0 -161 0 0 33 c0 19 3 37 7 41 4 3 75 5 157 4 l151 -3 3 -37z m380 0 l3 -38 -170 0 -171 0 0 33 c0 19 3 36 6 40 3 3 79 5 168 4 l161 -2 3 -37z m340 0 l3 -38 -160 0 -161 0 0 33 c0 19 3 36 6 40 4 3 75 5 158 4 l151 -2 3 -37z m-1060 -100 l3 -38 -160 0 -161 0 0 33 c0 19 3 37 7 41 4 3 75 5 157 4 l151 -3 3 -37z m340 0 l3 -38 -160 0 -161 0 0 33 c0 19 3 37 7 41 4 3 75 5 157 4 l151 -3 3 -37z m380 0 l3 -38 -170 0 -171 0 0 33 c0 19 3 37 7 41 4 3 79 5 167 4 l161 -3 3 -37z m340 0 l3 -38 -160 0 -161 0 0 33 c0 19 3 37 7 41 4 3 75 5 157 4 l151 -3 3 -37z m617 -28 c4 -7 -90 -10 -274 -10 -181 0 -281 4 -281 10 0 6 98 10 274 10 173 0 277 -4 281 -10z m-1675 -70 l0 -40 -160 0 -160 0 0 33 c0 19 3 37 7 40 3 4 75 7 160 7 l153 0 0 -40z m338 -2 l3 -38 -160 0 -161 0 0 33 c0 19 3 37 7 41 4 3 75 5 157 4 l151 -3 3 -37z m380 0 l3 -38 -170 0 -171 0 0 33 c0 19 3 37 7 41 4 3 79 5 167 4 l161 -3 3 -37z m340 0 l3 -38 -160 0 -161 0 0 33 c0 19 3 37 7 41 4 3 75 5 157 4 l151 -3 3 -37z m1817 32 c4 -6 -37 -10 -114 -10 -74 0 -121 4 -121 10 0 6 45 10 114 10 66 0 117 -4 121 -10z m-1197 -152 l3 -118 -131 0 -130 0 0 -30 c0 -16 5 -30 10 -30 6 0 10 -18 10 -40 0 -22 5 -40 10 -40 6 0 10 -7 10 -15 0 -19 44 -65 62 -65 8 0 20 -9 28 -20 8 -11 22 -20 32 -20 10 0 18 -4 18 -10 0 -5 12 -10 26 -10 23 0 54 -20 54 -34 0 -3 -27 -6 -60 -6 -60 0 -60 0 -60 -30 0 -28 1 -29 58 -32 l57 -3 3 -147 c2 -143 2 -148 -18 -148 -13 0 -20 -7 -20 -20 0 -11 -4 -20 -10 -20 -6 0 -10 -48 -10 -124 0 -73 -4 -127 -10 -131 -20 -12 -9 -26 18 -23 l27 3 3 128 c1 75 7 127 12 127 7 0 9 -107 8 -297 l-3 -298 -275 0 -275 0 -3 298 -2 297 116 0 c130 0 144 -6 144 -64 0 -20 5 -36 10 -36 6 0 10 -7 10 -15 0 -19 44 -65 62 -65 8 0 20 -9 28 -20 8 -11 22 -20 32 -20 10 0 18 -4 18 -10 0 -5 14 -10 30 -10 17 0 30 5 30 10 0 6 -13 10 -30 10 -16 0 -30 5 -30 10 0 6 -8 10 -18 10 -10 0 -24 9 -32 20 -8 11 -20 20 -28 20 -18 0 -42 25 -42 44 0 9 -4 16 -10 16 -5 0 -10 18 -10 40 0 22 -4 40 -10 40 -5 0 -10 18 -10 40 l0 40 -70 0 -70 0 0 180 0 180 -60 0 -60 0 0 90 0 90 60 0 c48 0 60 3 60 16 0 22 25 44 50 44 24 0 70 42 70 63 0 25 -28 69 -51 81 -27 13 -37 36 -15 36 24 0 66 41 66 65 0 12 -9 30 -20 40 -11 10 -20 22 -20 27 0 5 80 7 178 6 l177 -3 3 -117z m1180 90 c3 -27 -11 -38 -23 -18 -3 6 -17 10 -31 10 -13 0 -24 -4 -24 -10 0 -5 14 -10 30 -10 23 0 30 -5 30 -19 0 -11 5 -23 10 -26 13 -8 13 -75 1 -75 -6 0 -13 5 -16 10 -3 6 -17 10 -31 10 -13 0 -24 -4 -24 -10 0 -5 14 -10 30 -10 23 0 30 -5 30 -19 0 -11 5 -23 10 -26 6 -3 10 -17 10 -31 0 -22 -4 -24 -50 -24 -49 0 -50 1 -50 30 0 17 5 30 10 30 6 0 10 -9 10 -20 0 -25 47 -28 57 -5 7 21 -6 33 -17 15 -7 -11 -11 -11 -24 -1 -9 8 -16 22 -16 32 0 11 -4 19 -10 19 -5 0 -10 18 -10 40 0 22 5 40 10 40 6 0 10 -9 10 -20 0 -25 47 -28 57 -5 7 21 -6 33 -17 15 -7 -11 -11 -11 -24 -1 -9 8 -16 22 -16 32 0 11 -4 19 -10 19 -5 0 -10 14 -10 31 0 30 1 30 48 27 43 -3 47 -5 50 -30z m-1556 -5 c25 -23 24 -63 -2 -63 -11 0 -20 -4 -20 -10 0 -14 -81 -12 -113 3 -31 14 -35 42 -10 69 22 24 118 25 145 1z m-1302 -63 l0 -40 -160 0 -160 0 0 33 c0 19 3 37 7 40 3 4 75 7 160 7 l153 0 0 -40z m340 0 l0 -40 -160 0 -160 0 0 33 c0 19 3 37 7 40 3 4 75 7 160 7 l153 0 0 -40z m378 -2 l3 -38 -170 0 -171 0 0 33 c0 19 3 37 7 41 4 3 79 5 167 4 l161 -3 3 -37z m340 0 l3 -38 -160 0 -161 0 0 33 c0 19 3 37 7 41 4 3 75 5 157 4 l151 -3 3 -37z m122 -46 c0 -14 -23 -32 -42 -32 -11 0 -18 7 -18 20 0 16 7 20 30 20 17 0 30 -4 30 -8z m-1182 -54 l3 -38 -160 0 -161 0 0 33 c0 19 3 37 7 41 4 3 75 5 157 4 l151 -3 3 -37z m342 2 l0 -40 -160 0 -160 0 0 33 c0 19 3 37 7 40 3 4 75 7 160 7 l153 0 0 -40z m378 -2 l3 -38 -170 0 -171 0 0 33 c0 19 3 37 7 41 4 3 79 5 167 4 l161 -3 3 -37z m340 0 l3 -38 -160 0 -161 0 0 33 c0 19 3 37 7 41 4 3 75 5 157 4 l151 -3 3 -37z m244 -15 c25 -23 24 -63 -2 -63 -11 0 -20 -4 -20 -10 0 -5 -9 -10 -20 -10 -11 0 -20 5 -20 10 0 6 -22 10 -50 10 -47 0 -50 2 -50 25 0 42 19 54 84 55 42 0 65 -5 78 -17z m-1302 -83 l0 -40 -160 0 -160 0 0 33 c0 19 3 37 7 40 3 4 75 7 160 7 l153 0 0 -40z m340 0 l0 -40 -160 0 -160 0 0 33 c0 19 3 37 7 40 3 4 75 7 160 7 l153 0 0 -40z m380 0 l0 -40 -170 0 -170 0 0 40 0 40 170 0 170 0 0 -40z m338 -2 l3 -38 -160 0 -161 0 0 33 c0 19 3 37 7 41 4 3 75 5 157 4 l151 -3 3 -37z m82 -8 c0 -5 -4 -10 -10 -10 -5 0 -10 5 -10 10 0 6 5 10 10 10 6 0 10 -4 10 -10z m1735 0 c4 -6 -17 -10 -54 -10 -34 0 -61 4 -61 10 0 6 24 10 54 10 30 0 58 -4 61 -10z m-1655 -40 c0 -5 -22 -10 -50 -10 -27 0 -50 5 -50 10 0 6 23 10 50 10 28 0 50 -4 50 -10z m-1220 -50 l0 -40 -160 0 -160 0 0 33 c0 19 3 37 7 40 3 4 75 7 160 7 l153 0 0 -40z m340 0 l0 -40 -160 0 -160 0 0 33 c0 19 3 37 7 40 3 4 75 7 160 7 l153 0 0 -40z m380 0 l0 -40 -170 0 -170 0 0 40 0 40 170 0 170 0 0 -40z m340 0 l0 -40 -160 0 -160 0 0 40 0 40 160 0 160 0 0 -40z m-1060 -100 l0 -40 -160 0 -160 0 0 33 c0 19 3 37 7 40 3 4 75 7 160 7 l153 0 0 -40z m340 0 l0 -40 -160 0 -160 0 0 33 c0 19 3 37 7 40 3 4 75 7 160 7 l153 0 0 -40z m380 0 l0 -40 -170 0 -170 0 0 40 0 40 170 0 170 0 0 -40z m340 0 l0 -40 -160 0 -160 0 0 40 0 40 160 0 160 0 0 -40z m-1060 -100 l0 -40 -160 0 -160 0 0 33 c0 19 3 37 7 40 3 4 75 7 160 7 l153 0 0 -40z m340 0 l0 -40 -160 0 -160 0 0 40 0 40 160 0 160 0 0 -40z m380 0 l0 -40 -170 0 -170 0 0 40 0 40 170 0 170 0 0 -40z m340 0 l0 -40 -160 0 -160 0 0 40 0 40 160 0 160 0 0 -40z m1220 30 c0 -6 28 -10 64 -10 36 0 68 -4 71 -10 4 -6 -20 -10 -64 -10 l-71 0 0 -170 c0 -163 1 -170 20 -170 11 0 20 -4 20 -10 0 -5 -9 -10 -20 -10 -20 0 -20 -7 -20 -320 l0 -320 451 0 450 0 -3 -37 -3 -38 -545 0 -545 0 -3 37 -3 37 88 3 88 3 3 518 c1 333 6 517 12 517 6 0 10 -4 10 -10z m590 -20 c0 -5 -25 -10 -55 -10 -30 0 -55 5 -55 10 0 6 25 10 55 10 30 0 55 -4 55 -10z m-970 -40 c0 -5 18 -10 40 -10 22 0 40 -4 40 -10 0 -5 7 -10 16 -10 19 0 44 -24 44 -42 0 -8 9 -20 20 -28 11 -8 20 -22 20 -32 0 -10 5 -18 10 -18 6 0 10 -13 10 -30 0 -16 5 -30 10 -30 6 0 10 -18 10 -40 l0 -40 60 0 60 0 -2 -327 -3 -328 -245 0 -245 0 -3 328 -2 327 60 0 c53 0 60 2 60 20 0 11 5 20 10 20 6 0 10 50 10 130 0 80 4 130 10 130 6 0 10 -4 10 -10z m-680 -30 c0 -11 -4 -20 -10 -20 -5 0 -10 -9 -10 -20 0 -11 5 -20 10 -20 6 0 10 -18 10 -40 0 -22 -4 -40 -10 -40 -5 0 -10 -9 -10 -20 0 -11 5 -20 10 -20 6 0 10 -18 10 -40 l0 -40 -50 0 -50 0 0 40 c0 22 5 40 10 40 6 0 10 9 10 20 0 11 -4 20 -10 20 -5 0 -10 18 -10 40 0 22 5 40 10 40 6 0 10 9 10 20 0 11 -4 20 -10 20 -5 0 -10 9 -10 20 0 17 7 20 50 20 43 0 50 -3 50 -20z m1637 5 c7 -21 -4 -32 -19 -17 -15 15 -58 16 -58 2 0 -5 14 -10 30 -10 23 0 30 -4 30 -20 0 -11 5 -20 10 -20 6 0 10 -18 10 -40 0 -38 -12 -52 -25 -30 -3 6 -17 10 -31 10 -13 0 -24 -4 -24 -10 0 -5 14 -10 30 -10 23 0 30 -4 30 -20 0 -11 5 -20 11 -20 6 0 9 -16 7 -37 -3 -38 -3 -38 -50 -41 l-48 -3 0 40 c0 23 5 41 10 41 6 0 10 9 10 20 0 11 -4 20 -10 20 -5 0 -10 18 -10 40 0 22 5 40 10 40 6 0 10 -9 10 -20 0 -25 47 -28 57 -5 7 21 -4 32 -19 17 -15 -15 -38 3 -38 29 0 11 -4 19 -10 19 -5 0 -10 9 -10 20 0 17 7 20 45 20 32 0 47 -5 52 -15z m-2855 -242 l3 -238 368 -3 367 -2 0 240 0 240 160 0 160 0 -2 -437 -3 -438 -685 0 -685 0 -3 425 c-1 234 0 431 3 438 3 9 45 12 160 12 l155 0 2 -237z m338 187 c0 -43 3 -50 20 -50 17 0 20 7 20 50 l0 50 170 0 170 0 -2 -227 -3 -228 -345 0 -345 0 -3 228 -2 227 160 0 160 0 0 -50z m1480 -180 c0 -5 -18 -10 -40 -10 -22 0 -40 5 -40 10 0 6 18 10 40 10 22 0 40 -4 40 -10z m420 0 c0 -5 -18 -10 -40 -10 -22 0 -40 5 -40 10 0 6 18 10 40 10 22 0 40 -4 40 -10z m635 -60 c-4 -6 -55 -10 -121 -10 -69 0 -114 4 -114 10 0 6 47 10 121 10 77 0 118 -4 114 -10z m-535 -160 c0 -107 3 -130 14 -130 8 0 18 5 21 10 3 6 19 10 35 10 77 0 190 113 190 189 0 47 16 52 151 49 l124 -3 0 -295 0 -295 -285 0 -285 0 -3 298 c-2 292 -2 297 18 297 19 0 20 -6 20 -130z m-1285 -460 c-4 -7 -243 -10 -685 -10 -442 0 -681 3 -685 10 -4 7 227 10 685 10 458 0 689 -3 685 -10z m-6107 -97 c-3 -63 -5 -68 -27 -71 -12 -2 -34 -1 -47 2 -22 6 -24 11 -24 71 l0 65 50 0 51 0 -3 -67z m2377 0 l-1 -68 -45 0 -44 1 -3 67 -3 67 48 0 48 0 0 -67z m2353 0 l-3 -68 -45 0 -45 0 -3 68 -3 67 51 0 51 0 -3 -67z m2380 0 l-3 -68 -45 0 -45 0 -3 68 -3 67 51 0 51 0 -3 -67z m2370 0 l-3 -68 -42 -3 c-39 -3 -43 -1 -44 20 -1 23 -1 111 0 116 1 1 21 2 46 2 l46 0 -3 -67z m2380 0 l-3 -68 -45 0 -45 0 -3 68 -3 67 51 0 51 0 -3 -67z m-9603 -13 l0 -55 -1115 0 -1115 0 -3 58 -3 57 1118 -2 1118 -3 0 -55z m2353 3 l-3 -58 -1100 0 -1100 0 -3 58 -3 57 1106 0 1106 0 -3 -57z m1280 30 l-3 -28 -565 0 -565 0 -3 28 -3 27 571 0 571 0 -3 -27z m3470 0 l-3 -28 -552 -3 -553 -2 0 30 0 30 556 0 555 0 -3 -27z m2380 -30 l-3 -58 -1095 -3 c-602 -1 -1104 0 -1115 2 -18 5 -20 12 -18 58 1 29 2 54 3 56 0 1 502 2 1115 2 l1116 0 -3 -57z m-4750 -40 c-3 -17 -64 -18 -1118 -18 -1054 0 -1115 1 -1118 18 -3 16 55 17 1118 17 1063 0 1121 -1 1118 -17z m2370 0 c-3 -17 -64 -18 -1113 -18 -1049 0 -1110 1 -1113 18 -3 16 55 17 1113 17 1058 0 1116 -1 1113 -17z"
       id="path1" />
  </g>
  <path
     style="fill:#ffffff;fill-opacity:0.387234;stroke-width:0.75"
     d="M 256.88748,87.57528 293.86371,91.46751 262.72583,62.275753 288.02536,42.81458 254.94137,35.030111 27.245642,33.083994 25.299524,338.62441 252.99524,340.57052 Z"
     id="A1.1" />
  <path
     style="fill:#ffffff;fill-opacity:0.387234;stroke-width:0.75"
     d="M 825.15375,31.137877 H 260.77972 l 1.94611,5.838352 23.35341,1.946117 -1.94612,13.622821 -21.40729,9.730586 13.62282,9.730586 9.73059,21.407294 H 416.4691 v 33.083997 l 9.73058,3.89222 1.94612,-27.24563 15.56894,5.83835 9.73059,13.62282 11.6767,-13.62282 13.62282,-5.83835 5.83836,33.08399 3.89223,-42.814578 147.90491,3.892231 v 5.838357 c 0,0 77.84469,0 68.11411,0 -9.73059,0 -1.94613,107.03645 -1.94613,107.03645 h -27.24564 l 1.94613,15.56893 21.40728,11.67671 5.83836,35.03011 11.6767,-3.89223 v -23.35342 l 11.6767,3.89224 15.56894,23.3534 13.62285,-1.94611 -1.94617,-31.13788 15.56895,-9.73058 13.62285,-5.83835 v -7.78447 l -3.89228,-7.78448 -29.19172,-1.94611 3.8922,-105.09033 h 64.2219 l -3.8922,-23.35341 -9.73065,-3.892234 9.73065,-9.730586 -11.67675,-11.676704 -7.78448,-21.407289 z"
     id="PasilloA1" />
  <path
     style="fill:#ffffff;fill-opacity:0.387234;stroke-width:0.75"
     d="m 825.15375,338.62441 373.65455,3.89223 -1.9461,-313.324881 -367.81625,1.946118 -3.8922,3.892234 h -29.1918 l 3.89228,11.676704 3.8922,5.838352 13.62285,9.730586 9.73057,-1.946117 -17.51505,5.838351 1.9461,7.784469 13.62285,1.946119 z"
     id="A1.2" />
</svg>
