<?xml version="1.0" standalone="no"?>
<!DOCTYPE svg PUBLIC "-//W3C//DTD SVG 20010904//EN"
 "http://www.w3.org/TR/2001/REC-SVG-20010904/DTD/svg10.dtd">
<svg version="1.0" xmlns="http://www.w3.org/2000/svg"
 width="1232.000000pt" height="584.000000pt" viewBox="0 0 1232.000000 584.000000"
 preserveAspectRatio="xMidYMid meet">

<g transform="translate(0.000000,584.000000) scale(0.100000,-0.100000)"
fill="#000000" stroke="none">
<path d="M122 3918 l3 -1703 6005 0 6005 0 3 1703 2 1702 -6010 0 -6010 0 2
-1702z m11998 1672 c0 -6 -27 -10 -60 -10 -53 0 -60 -2 -60 -20 0 -20 -7 -20
-1120 -20 -1113 0 -1120 0 -1120 20 0 18 -7 20 -70 20 -63 0 -70 -2 -70 -20 0
-20 -7 -20 -1106 -20 -1097 0 -1106 0 -1111 20 -5 18 -14 20 -74 20 -62 0 -69
-2 -69 -20 0 -20 -7 -20 -1116 -20 -1107 0 -1116 0 -1121 20 -5 18 -14 20 -73
20 -59 0 -68 -2 -73 -20 -5 -20 -14 -20 -1117 -20 -1103 0 -1112 0 -1117 20
-5 18 -14 20 -73 20 -59 0 -68 -2 -73 -20 -5 -20 -14 -20 -1121 -20 -1109 0
-1116 0 -1116 20 0 18 -7 20 -60 20 -33 0 -60 4 -60 10 0 7 2003 10 5990 10
3987 0 5990 -3 5990 -10z m-11880 -71 l0 -40 -47 3 c-48 3 -48 3 -51 41 l-3
37 50 0 51 0 0 -41z m2378 4 c-3 -38 -3 -38 -50 -41 l-48 -3 0 40 0 41 51 0
50 0 -3 -37z m2382 -3 l0 -40 -50 0 -50 0 0 40 0 40 50 0 50 0 0 -40z m2378 3
c-3 -38 -3 -38 -50 -41 l-48 -3 0 40 0 41 51 0 50 0 -3 -37z m2362 -4 l0 -40
-47 3 c-48 3 -48 3 -51 41 l-3 37 50 0 51 0 0 -41z m2380 1 l0 -40 -50 0 -50
0 0 40 0 40 50 0 50 0 0 -40z m-9620 -10 c0 -7 -380 -10 -1120 -10 -740 0
-1120 3 -1120 10 0 7 380 10 1120 10 740 0 1120 -3 1120 -10z m2380 0 c0 -7
-380 -10 -1120 -10 -740 0 -1120 3 -1120 10 0 7 380 10 1120 10 740 0 1120 -3
1120 -10z m2380 0 c0 -7 -380 -10 -1120 -10 -740 0 -1120 3 -1120 10 0 7 380
10 1120 10 740 0 1120 -3 1120 -10z m2360 0 c0 -7 -377 -10 -1110 -10 -733 0
-1110 3 -1110 10 0 7 377 10 1110 10 733 0 1110 -3 1110 -10z m2380 0 c0 -7
-380 -10 -1120 -10 -740 0 -1120 3 -1120 10 0 7 380 10 1120 10 740 0 1120 -3
1120 -10z m-9500 -40 c0 -5 9 -10 20 -10 13 0 20 -7 20 -20 0 -13 7 -20 20
-20 11 0 20 -4 20 -10 0 -6 50 -10 130 -10 80 0 130 -4 130 -10 0 -5 -4 -10
-10 -10 -5 0 -10 -18 -10 -40 0 -22 -4 -40 -10 -40 -5 0 -10 -6 -10 -12 -1
-19 -68 -88 -85 -88 -8 0 -15 -4 -15 -10 0 -5 -18 -10 -40 -10 -22 0 -40 -4
-40 -10 0 -5 -9 -10 -20 -10 -11 0 -20 -4 -20 -10 0 -5 9 -10 20 -10 11 0 20
-4 20 -10 0 -5 18 -10 40 -10 22 0 40 -4 40 -10 0 -5 7 -10 16 -10 17 0 44
-23 44 -37 0 -5 8 -18 18 -29 26 -30 42 -62 42 -83 0 -11 5 -23 10 -26 27 -17
-12 -25 -119 -25 -73 0 -127 -5 -144 -12 l-27 -13 -2 -1230 -3 -1230 -1135 0
-1135 0 -3 1533 -2 1532 1120 0 c740 0 1120 -3 1120 -10z m2380 0 c0 -6 30
-10 70 -10 40 0 70 4 70 10 0 7 380 10 1120 10 740 0 1120 -3 1120 -10 0 -6
30 -10 70 -10 40 0 70 4 70 10 0 7 143 10 410 10 267 0 410 -3 410 -10 0 -6
-50 -10 -130 -10 l-130 0 0 -30 c0 -16 5 -30 10 -30 6 0 10 -18 10 -40 0 -22
5 -40 10 -40 6 0 10 -7 10 -15 0 -19 44 -65 62 -65 8 0 20 -9 28 -20 8 -11 22
-20 32 -20 10 0 18 -4 18 -10 0 -5 14 -10 30 -10 17 0 30 -4 30 -10 0 -5 -8
-10 -17 -10 -23 0 -63 -39 -63 -62 0 -10 -5 -18 -11 -18 -6 0 -9 -12 -7 -27 3
-24 8 -28 41 -31 l38 -3 -3 -105 -3 -105 -315 -2 -315 -2 -3 -537 c-2 -533 -2
-538 18 -538 11 0 20 -4 20 -10 0 -6 50 -10 130 -10 80 0 130 -4 130 -10 0 -5
-4 -10 -10 -10 -5 0 -10 -18 -10 -40 0 -22 -4 -40 -10 -40 -5 0 -10 -7 -10
-15 0 -20 -65 -85 -85 -85 -8 0 -15 -4 -15 -10 0 -5 -18 -10 -40 -10 -22 0
-40 -4 -40 -10 0 -5 -18 -10 -40 -10 l-40 0 -2 -527 -3 -528 -235 0 -235 0 -3
528 -2 527 -40 0 c-22 0 -40 5 -40 10 0 6 -13 10 -30 10 -16 0 -30 5 -30 10 0
6 -8 10 -18 10 -10 0 -24 9 -32 20 -8 11 -20 20 -28 20 -18 0 -42 25 -42 44 0
9 -4 16 -10 16 -5 0 -10 18 -10 40 0 22 -4 40 -10 40 -5 0 -10 5 -10 10 0 6
50 10 130 10 80 0 130 4 130 10 0 6 9 10 20 10 20 0 20 5 18 538 l-3 537 -345
0 -345 0 -3 -277 -2 -278 -330 0 c-208 0 -331 4 -335 10 -4 6 -132 10 -350 10
l-345 0 -2 298 -3 297 -45 0 -45 -1 -3 -167 c-2 -159 -3 -167 -22 -167 -19 0
-20 7 -20 124 0 123 0 124 -24 128 -14 3 -29 1 -34 -4 -5 -5 -20 -9 -33 -10
-46 -1 -129 -55 -129 -84 0 -6 -7 -17 -15 -24 -19 -16 -45 -68 -45 -92 0 -10
-4 -18 -10 -18 -5 0 -10 8 -10 18 0 24 -26 76 -45 92 -8 7 -15 18 -15 24 0 29
-85 86 -129 86 -17 0 -33 4 -36 10 -3 5 -16 8 -28 6 -21 -3 -22 -8 -25 -129
l-3 -127 -49 0 -50 0 -2 168 -3 167 -655 2 -655 3 -3 25 c-2 14 -8 25 -13 25
-5 0 -9 11 -9 23 0 28 -24 80 -45 97 -8 7 -15 17 -15 23 0 18 -42 57 -62 57
-10 0 -18 5 -18 10 0 6 -18 10 -40 10 -22 0 -40 5 -40 10 0 6 18 10 40 10 22
0 40 5 40 10 0 6 7 10 15 10 20 0 105 85 105 105 0 8 5 15 10 15 6 0 10 18 10
40 0 22 5 40 10 40 6 0 10 14 10 30 l0 30 -130 0 c-71 0 -130 3 -130 8 0 28
69 30 1163 31 739 1 1117 -2 1117 -9z m4740 0 c0 -6 30 -10 70 -10 40 0 70 4
70 10 0 7 380 10 1120 10 l1120 0 -2 -1532 -3 -1533 -1855 0 -1855 0 -3 1310
-2 1310 -27 13 c-15 6 -48 12 -73 12 -55 0 -63 5 -47 33 19 33 34 47 51 47 9
0 16 5 16 10 0 6 18 10 40 10 22 0 40 5 40 10 0 6 -18 10 -40 10 -22 0 -40 5
-40 10 0 6 -13 10 -30 10 -16 0 -30 5 -30 10 0 6 -8 10 -18 10 -9 0 -23 9 -30
20 -7 11 -19 20 -28 20 -20 0 -44 24 -44 44 0 9 -4 16 -10 16 -5 0 -10 18 -10
40 0 22 -4 40 -10 40 -5 0 -10 5 -10 10 0 6 50 10 130 10 80 0 130 4 130 10 0
6 9 10 20 10 13 0 20 7 20 20 0 20 7 20 670 20 440 0 670 -3 670 -10z m-9422
-1532 l-3 -1523 -25 0 -25 0 -3 1523 -2 1522 30 0 30 0 -2 -1522z m42 2 c0
-1007 -3 -1520 -10 -1520 -7 0 -10 513 -10 1520 0 1007 3 1520 10 1520 7 0 10
-513 10 -1520z m11800 0 c0 -1007 -3 -1520 -10 -1520 -7 0 -10 513 -10 1520 0
1007 3 1520 10 1520 7 0 10 -513 10 -1520z m78 -2 l-3 -1523 -25 0 -25 0 -3
1523 -2 1522 30 0 30 0 -2 -1522z m-3856 -240 l3 -1303 108 -3 108 -3 -3 -37
-3 -37 -535 0 -535 0 -3 37 -3 37 78 3 78 3 3 518 c1 333 6 517 12 517 6 0 10
-9 10 -20 0 -18 7 -20 70 -20 40 0 70 -4 70 -10 0 -6 -30 -10 -70 -10 l-70 0
0 -170 c0 -163 1 -170 20 -170 11 0 20 -4 20 -10 0 -5 -9 -10 -20 -10 -20 0
-20 -5 -18 -307 l3 -308 305 0 305 0 3 1303 2 1302 30 0 30 0 2 -1302z m-4704
1142 l602 0 0 -165 0 -165 44 0 c25 0 48 -4 51 -10 4 -6 -17 -10 -54 -10 l-61
0 0 165 0 165 -682 2 c-376 2 -727 2 -780 0 l-98 -3 0 -1200 c0 -793 -3 -1199
-10 -1199 -16 0 -14 2417 3 2424 6 3 95 4 197 1 102 -2 456 -5 788 -5z m1420
-1212 l-3 -1213 -25 0 -25 0 -5 1034 c-5 1022 -5 1034 -25 1042 -19 8 -19 8 3
15 22 6 22 9 22 170 l0 164 30 0 30 0 -2 -1212z m-856 1005 l3 -168 58 1 c110
2 111 3 125 31 7 17 12 72 12 145 0 107 7 137 25 108 3 -5 19 -10 34 -10 39 0
91 -28 101 -55 5 -13 13 -26 19 -29 12 -8 41 -65 41 -81 0 -14 23 -65 30 -65
7 0 30 51 30 65 0 16 29 73 41 81 6 3 14 16 19 29 10 27 62 55 101 55 15 0 31
5 34 10 18 29 25 -1 25 -109 0 -133 13 -175 52 -176 l23 0 0 -1025 0 -1025
-1145 0 -1145 0 -3 1193 -2 1192 760 0 760 0 2 -167z m2393 136 c-4 -5 -31 -9
-61 -9 l-54 0 0 -365 0 -365 310 0 310 0 0 365 0 364 -65 3 c-36 2 -65 6 -65
11 0 4 2 7 5 7 3 0 37 0 75 0 l70 0 0 -515 c0 -326 -4 -515 -10 -515 -5 0 -11
54 -12 128 l-3 127 -305 0 -305 0 -3 -307 -2 -308 70 0 c40 0 70 -4 70 -10 0
-6 -30 -10 -70 -10 l-70 0 0 -170 0 -170 120 0 c73 0 120 -4 120 -10 0 -6 -47
-10 -120 -10 l-120 0 2 -307 3 -308 305 0 305 0 3 308 c2 302 2 307 -18 307
-11 0 -20 5 -20 10 0 6 9 10 20 10 19 0 20 7 20 170 l0 170 -70 0 c-40 0 -70
4 -70 10 0 6 30 10 70 10 63 0 70 2 70 20 0 11 4 20 10 20 6 0 11 -184 12
-517 l3 -518 108 -3 108 -3 -3 -37 -3 -37 -545 0 -545 0 -3 37 -3 37 108 3
108 3 3 1192 2 1192 63 3 c68 3 80 1 72 -13z m335 4 c0 -9 -276 -17 -298 -8
-7 2 -11 8 -9 12 7 11 307 6 307 -4z m1325 -4 c-4 -5 -130 -9 -301 -9 l-294 0
0 -365 c0 -358 0 -365 20 -365 11 0 20 -4 20 -9 0 -5 -9 -11 -20 -14 -19 -5
-20 -14 -20 -131 0 -77 -4 -126 -10 -126 -7 0 -10 178 -10 515 l0 515 303 2
c166 2 305 2 310 0 4 -2 5 -8 2 -13z m-1232 -28 l57 -1 0 -345 c0 -223 -4
-345 -10 -345 -6 0 -10 118 -10 335 l0 335 -252 2 c-139 0 -260 1 -268 0 -22
-2 -42 7 -37 15 4 7 138 8 520 4z m1237 -346 l0 -345 -116 0 c-126 0 -144 7
-144 54 0 14 -4 26 -10 26 -5 0 -10 6 -10 13 0 7 -9 23 -20 35 -11 12 -20 25
-20 29 0 16 -48 63 -64 63 -9 0 -16 5 -16 10 0 6 -18 10 -40 10 -22 0 -40 -4
-40 -10 0 -5 18 -10 39 -10 27 0 41 -5 45 -16 4 -9 9 -14 13 -10 7 7 43 -23
43 -36 0 -5 9 -18 20 -30 11 -12 20 -28 20 -35 0 -7 5 -13 10 -13 6 0 10 -13
10 -30 0 -16 5 -30 10 -30 6 0 10 -18 10 -40 l0 -39 58 -3 57 -3 3 -177 2
-178 70 0 70 0 0 -110 0 -110 -70 0 -70 0 0 -180 0 -180 -60 0 -60 0 0 -40 c0
-22 -4 -40 -10 -40 -5 0 -10 -18 -10 -40 0 -22 -4 -40 -10 -40 -5 0 -10 -7
-10 -15 0 -20 -65 -85 -85 -85 -8 0 -15 -4 -15 -10 0 -5 -18 -10 -40 -10 -22
0 -40 -4 -40 -10 0 -5 -4 -10 -10 -10 -6 0 -10 50 -10 130 0 80 -4 130 -10
130 -5 0 -10 9 -10 20 0 16 -7 20 -30 20 l-30 0 0 150 0 150 70 0 70 0 0 30 0
30 -70 0 c-57 0 -70 3 -70 16 0 26 26 44 64 44 20 0 36 5 36 10 0 6 7 10 15
10 20 0 105 85 105 105 0 8 5 15 10 15 6 0 10 18 10 40 0 22 5 40 10 40 6 0
10 14 10 30 l0 30 -130 0 -131 0 3 118 c3 117 3 117 28 120 39 5 50 42 50 173
0 68 4 120 10 124 20 12 9 26 -17 23 l-28 -3 -3 -127 c-2 -120 -4 -128 -22
-128 -20 0 -20 8 -20 345 l0 345 290 0 290 0 0 -345z m-1220 -10 l0 -315 -260
0 -260 0 0 315 0 315 260 0 260 0 0 -315z m-1642 -197 l3 -38 -160 0 -161 0 0
33 c0 19 3 37 7 41 4 3 75 5 157 4 l151 -3 3 -37z m340 0 l3 -38 -160 0 -161
0 0 33 c0 19 3 37 7 41 4 3 75 5 157 4 l151 -3 3 -37z m357 33 c3 -5 0 -13 -7
-17 -8 -5 -4 -10 10 -15 12 -5 22 -15 22 -24 0 -13 -24 -15 -170 -15 l-170 0
0 33 c0 19 3 37 7 40 10 11 301 8 308 -2z m343 -33 l3 -38 -150 0 c-129 0
-151 2 -151 15 0 9 10 19 22 24 14 5 18 10 10 15 -31 19 9 26 131 24 l132 -3
3 -37z m-1040 -100 l3 -38 -160 0 -161 0 0 33 c0 19 3 37 7 41 4 3 75 5 157 4
l151 -3 3 -37z m340 0 l3 -38 -160 0 -161 0 0 33 c0 19 3 37 7 41 4 3 75 5
157 4 l151 -3 3 -37z m380 0 l3 -38 -170 0 -171 0 0 33 c0 19 3 37 7 41 4 3
79 5 167 4 l161 -3 3 -37z m320 0 l3 -38 -150 0 -151 0 0 33 c0 19 3 37 7 41
4 3 70 5 147 4 l141 -3 3 -37z m-1040 -100 l3 -38 -160 0 -161 0 0 33 c0 19 3
37 7 41 4 3 75 5 157 4 l151 -3 3 -37z m340 0 l3 -38 -160 0 -161 0 0 33 c0
19 3 37 7 41 4 3 75 5 157 4 l151 -3 3 -37z m380 0 l3 -38 -170 0 -171 0 0 33
c0 19 3 37 7 41 4 3 79 5 167 4 l161 -3 3 -37z m320 0 l3 -38 -150 0 -151 0 0
33 c0 19 3 37 7 41 4 3 70 5 147 4 l141 -3 3 -37z m1822 32 c0 -6 -43 -10
-110 -10 -67 0 -110 4 -110 10 0 6 43 10 110 10 67 0 110 -4 110 -10z m-1720
-40 c0 -5 -9 -10 -20 -10 -11 0 -20 5 -20 10 0 6 9 10 20 10 11 0 20 -4 20
-10z m538 -112 l3 -118 -131 0 -130 0 0 -30 c0 -16 5 -30 10 -30 6 0 10 -18
10 -40 0 -22 5 -40 10 -40 6 0 10 -7 10 -15 0 -19 44 -65 62 -65 8 0 20 -9 28
-20 8 -11 22 -20 32 -20 10 0 18 -4 18 -10 0 -5 12 -10 26 -10 29 0 54 -21 54
-44 0 -13 -13 -16 -70 -16 l-70 0 0 -30 0 -30 70 0 70 0 0 -150 0 -150 -30 0
c-23 0 -30 -4 -30 -20 0 -11 -4 -20 -10 -20 -6 0 -10 -50 -10 -130 0 -80 -4
-130 -10 -130 -5 0 -10 5 -10 10 0 6 -13 10 -30 10 -16 0 -30 5 -30 10 0 6 -8
10 -18 10 -10 0 -24 9 -32 20 -8 11 -20 20 -28 20 -18 0 -42 25 -42 44 0 9 -4
16 -10 16 -5 0 -10 18 -10 40 0 22 -4 40 -10 40 -5 0 -10 18 -10 40 l0 40 -60
0 -60 0 0 180 0 180 -70 0 -70 0 0 90 0 90 70 0 70 0 0 30 c0 23 4 30 20 30
11 0 20 5 20 10 0 6 7 10 16 10 25 0 44 26 44 60 0 43 -39 80 -85 80 -19 0
-35 5 -35 10 0 6 14 10 30 10 17 0 30 5 30 10 0 6 7 10 16 10 26 0 44 26 44
63 0 30 -5 38 -30 49 -16 7 -30 16 -30 21 0 4 89 6 198 5 l197 -3 3 -117z
m-438 93 c0 -5 12 -11 28 -13 20 -2 28 -9 31 -28 1 -14 8 -28 14 -32 6 -4 8
-11 3 -15 -5 -4 -11 -2 -13 5 -5 14 -43 17 -43 3 0 -5 6 -11 13 -14 7 -2 8 -8
3 -13 -5 -5 -11 -4 -13 4 -6 17 -91 16 -109 -2 -21 -21 -18 -26 16 -26 17 0
30 -4 30 -10 0 -5 -13 -10 -30 -10 -16 0 -30 -4 -30 -10 0 -5 -9 -10 -20 -10
-16 0 -20 7 -20 30 0 21 5 30 16 30 15 0 44 23 44 34 0 3 -9 6 -21 6 -16 0
-20 5 -17 28 2 21 9 28 31 30 15 2 27 8 27 13 0 5 14 9 30 9 17 0 30 -4 30 -9z
m1620 -11 c0 -11 -4 -20 -10 -20 -5 0 -10 -9 -10 -20 0 -11 5 -20 10 -20 6 0
10 -18 10 -40 0 -22 -4 -40 -10 -40 -5 0 -10 -9 -10 -20 0 -11 5 -20 10 -20 6
0 10 -18 10 -40 l0 -40 -50 0 -50 0 0 40 c0 22 5 40 10 40 6 0 10 9 10 20 0
11 -4 20 -10 20 -5 0 -10 18 -10 40 0 22 5 40 10 40 6 0 10 9 10 20 0 11 -4
20 -10 20 -5 0 -10 9 -10 20 0 17 7 20 50 20 43 0 50 -3 50 -20z m-2860 -60
l0 -40 -160 0 -160 0 0 33 c0 19 3 37 7 40 3 4 75 7 160 7 l153 0 0 -40z m340
0 l0 -40 -160 0 -160 0 0 33 c0 19 3 37 7 40 3 4 75 7 160 7 l153 0 0 -40z
m378 -2 l3 -38 -170 0 -171 0 0 40 0 40 168 -2 167 -3 3 -37z m322 2 l0 -40
-150 0 -150 0 0 33 c0 19 3 37 7 40 3 4 71 7 150 7 l143 0 0 -40z m-1042 -112
l3 -48 -160 0 -161 0 0 50 0 51 158 -3 157 -3 3 -47z m342 2 l0 -50 -160 0
-160 0 0 50 0 50 160 0 160 0 0 -50z m380 0 l0 -50 -170 0 -170 0 0 50 0 50
170 0 170 0 0 -50z m318 -2 l3 -48 -150 0 -151 0 0 43 c0 24 3 47 7 51 4 3 70
5 147 4 l141 -3 3 -47z m202 2 c0 -5 14 -10 30 -10 26 0 30 -3 30 -29 0 -16 6
-31 13 -34 7 -2 8 -8 3 -13 -5 -5 -11 -4 -13 4 -5 14 -43 17 -43 3 0 -5 6 -11
13 -14 7 -2 8 -8 3 -13 -5 -5 -11 -4 -13 4 -3 7 -24 12 -54 12 -27 0 -49 5
-49 10 0 6 -9 10 -20 10 -16 0 -20 7 -20 30 0 27 3 30 30 30 17 0 30 5 30 10
0 6 14 10 30 10 17 0 30 -4 30 -10z m-1240 -110 l0 -40 -160 0 -160 0 0 40 0
40 160 0 160 0 0 -40z m340 0 l0 -40 -160 0 -160 0 0 40 0 40 160 0 160 0 0
-40z m380 0 l0 -40 -170 0 -170 0 0 40 0 40 170 0 170 0 0 -40z m320 0 l0 -40
-150 0 -150 0 0 33 c0 19 3 37 7 40 3 4 71 7 150 7 l143 0 0 -40z m80 10 c0
-5 9 -10 20 -10 11 0 20 -4 20 -10 0 -5 -13 -10 -30 -10 -23 0 -30 4 -30 20 0
11 5 20 10 20 6 0 10 -4 10 -10z m1740 -20 c0 -6 -27 -10 -60 -10 -33 0 -60 4
-60 10 0 6 27 10 60 10 33 0 60 -4 60 -10z m-1640 -40 c0 -6 -27 -10 -60 -10
-33 0 -60 4 -60 10 0 6 27 10 60 10 33 0 60 -4 60 -10z m-1220 -50 l0 -40
-160 0 -160 0 0 40 0 40 160 0 160 0 0 -40z m340 0 l0 -40 -160 0 -160 0 0 40
0 40 160 0 160 0 0 -40z m380 0 l0 -40 -170 0 -170 0 0 40 0 40 170 0 170 0 0
-40z m320 0 l0 -40 -150 0 -150 0 0 40 0 40 150 0 150 0 0 -40z m-1040 -100
l0 -40 -160 0 -160 0 0 40 0 40 160 0 160 0 0 -40z m340 0 l0 -40 -160 0 -160
0 0 40 0 40 160 0 160 0 0 -40z m380 0 l0 -40 -170 0 -170 0 0 40 0 40 170 0
170 0 0 -40z m320 0 l0 -40 -150 0 -150 0 0 40 0 40 150 0 150 0 0 -40z
m-1040 -100 l0 -40 -160 0 -160 0 0 40 0 40 160 0 160 0 0 -40z m340 0 l0 -40
-160 0 -160 0 0 40 0 40 160 0 160 0 0 -40z m380 0 l0 -40 -170 0 -170 0 0 40
0 40 170 0 170 0 0 -40z m320 0 l0 -40 -150 0 -150 0 0 40 0 40 150 0 150 0 0
-40z m1820 10 c0 -6 -27 -10 -60 -10 -33 0 -60 4 -60 10 0 6 27 10 60 10 33 0
60 -4 60 -10z m-1660 -50 c0 -11 -4 -20 -10 -20 -5 0 -10 -9 -10 -20 0 -11 5
-20 10 -20 6 0 10 -22 10 -50 0 -27 -4 -50 -10 -50 -5 0 -10 -9 -10 -20 0 -11
5 -20 10 -20 6 0 10 -13 10 -30 0 -29 -1 -30 -50 -30 -49 0 -50 1 -50 30 0 17
5 30 10 30 6 0 10 9 10 20 0 11 -4 20 -10 20 -5 0 -10 23 -10 50 0 28 5 50 10
50 6 0 10 9 10 20 0 11 -4 20 -10 20 -5 0 -10 9 -10 20 0 17 7 20 50 20 43 0
50 -3 50 -20z m1660 0 c0 -11 -4 -20 -10 -20 -5 0 -10 -9 -10 -20 0 -11 5 -20
10 -20 6 0 10 -22 10 -50 0 -27 -4 -50 -10 -50 -5 0 -10 -9 -10 -20 0 -11 5
-20 10 -20 6 0 10 -13 10 -30 0 -29 -1 -30 -50 -30 -49 0 -50 1 -50 30 0 17 5
30 10 30 6 0 10 9 10 20 0 11 -4 20 -10 20 -5 0 -10 23 -10 50 0 28 5 50 10
50 6 0 10 9 10 20 0 11 -4 20 -10 20 -5 0 -10 9 -10 20 0 17 7 20 50 20 43 0
50 -3 50 -20z m-2860 -260 l0 -240 370 0 370 0 0 240 0 240 150 0 150 0 -2
-437 -3 -438 -675 0 -675 0 -3 438 -2 437 160 0 160 0 0 -240z m340 190 c0
-43 3 -50 20 -50 17 0 20 7 20 50 l0 50 170 0 170 0 -2 -227 -3 -228 -345 0
-345 0 -3 228 -2 227 160 0 160 0 0 -50z m2520 -240 c0 -6 -43 -10 -110 -10
-67 0 -110 4 -110 10 0 6 43 10 110 10 67 0 110 -4 110 -10z m-1514 -44 c8 -8
14 -31 14 -50 0 -20 5 -36 10 -36 6 0 10 -7 10 -15 0 -19 44 -65 62 -65 8 0
20 -9 28 -20 8 -11 22 -20 32 -20 10 0 18 -4 18 -10 0 -5 14 -10 30 -10 17 0
30 -4 30 -10 0 -5 14 -10 30 -10 l30 0 0 130 c0 124 1 130 20 130 20 0 20 -5
18 -287 l-3 -288 -285 0 -285 0 -3 288 -2 287 116 0 c87 0 119 -4 130 -14z
m974 -116 l0 -130 30 0 c17 0 30 5 30 10 0 6 18 10 40 10 22 0 40 5 40 10 0 6
7 10 15 10 20 0 105 85 105 105 0 8 5 15 10 15 6 0 10 16 10 36 0 58 14 64
145 64 l116 0 -3 -282 -3 -283 -37 -3 c-31 -3 -37 0 -32 12 4 10 -3 24 -17 36
-30 25 -39 25 -39 1 0 -12 7 -18 17 -17 10 0 19 -7 21 -17 3 -16 -3 -18 -50
-18 -29 1 -63 1 -75 1 -13 0 -30 -1 -38 -1 -8 0 -32 0 -52 0 -21 0 -54 0 -73
-1 -19 0 -71 0 -115 -1 l-80 -2 -3 288 c-2 282 -2 287 18 287 19 0 20 -6 20
-130z m-7402 -547 l-3 -78 -45 0 -45 0 -3 78 -3 77 51 0 51 0 -3 -77z m2257
67 c-4 -7 -387 -10 -1115 -10 -728 0 -1111 3 -1115 10 -4 7 370 10 1115 10
745 0 1119 -3 1115 -10z m123 -67 l-3 -78 -45 0 -45 0 -3 78 -3 77 51 0 51 0
-3 -77z m2257 67 c-4 -7 -387 -10 -1115 -10 -728 0 -1111 3 -1115 10 -4 7 370
10 1115 10 745 0 1119 -3 1115 -10z m123 -67 l-3 -78 -45 0 -45 0 -3 78 -3 77
51 0 51 0 -3 -77z m2380 0 l-3 -78 -45 0 -45 0 -3 78 -3 77 51 0 51 0 -3 -77z
m2360 0 l-3 -78 -45 1 -45 1 -3 77 -3 76 51 0 51 0 -3 -77z m2380 0 l-3 -78
-45 1 -45 1 -3 77 -3 76 51 0 51 0 -3 -77z m-5980 30 l-3 -28 -555 0 -555 0
-3 28 -3 27 561 0 561 0 -3 -27z m3480 0 l-3 -28 -555 0 -555 0 -3 28 -3 27
561 0 561 0 -3 -27z m2380 -39 l-3 -65 -1115 0 -1115 1 -3 65 -3 65 1121 0
1121 0 -3 -66z m-9500 -9 l-3 -55 -1115 0 -1115 0 -3 55 -3 55 1121 0 1121 0
-3 -55z m2380 0 l-3 -55 -1115 0 -1115 -1 -3 56 -3 55 1121 0 1121 0 -3 -55z
m2380 -30 l-3 -25 -1115 -1 -1115 0 -3 25 -3 26 1121 0 1121 0 -3 -25z m2360
0 l-3 -25 -1105 -1 -1105 0 -3 25 -3 26 1111 0 1111 0 -3 -25z"/>
</g>
</svg>
