<svg
   version="1.1"
   id="svg1"
   width="819"
   height="383"
   viewBox="0 0 819 383">
  <defs
     id="defs1" />
  <path
     style="fill:none;stroke:#000000;stroke-opacity:1"
     d="m 168,83 c 0,-1.733333 0.66667,-2 5,-2 4.33333,0 5,0.266667 5,2 0,1.981882 0.66667,2 73.59362,2 72.75262,0 73.5996,-0.02285 74.11663,-2 0.76541,-2.926918 8.81409,-2.926918 9.5795,0 0.51704,1.977174 1.36401,2 74.21025,2 72.84624,0 73.69321,-0.02283 74.21025,-2 0.41992,-1.605786 1.36402,-2 4.78975,-2 3.42573,0 4.36983,0.394214 4.78975,2 0.51708,1.977328 1.36401,2 74.71025,2 73.34624,0 74.19317,-0.02267 74.71025,-2 0.76541,-2.926918 8.81409,-2.926918 9.5795,0 0.51707,1.977299 1.36401,2 74.61663,2 C 800.33333,85 801,84.982005 801,83 c 0,-1.666667 0.66667,-2 4,-2 2.2,0 4,-0.45 4,-1 0,-0.664994 -133.5,-1 -398.5,-1 -265,0 -398.5,0.335006 -398.5,1 0,0.55 1.522516,1 3.383369,1 2.542364,0 3.513373,0.49714 3.90638,2 0.517075,1.977299 1.364016,2 74.616631,2 C 167.33333,85 168,84.982005 168,83 Z"
     id="path113" />
  <path
     style="fill:none;stroke:#000000;stroke-opacity:1"
     d="m 808.81846,85.181535 c 0.30774,-3.206665 0.20695,-3.307735 -2.99181,-3 -2.24337,0.215824 -3.42074,0.901316 -3.65303,2.126878 -0.61565,3.24812 0.64878,4.84465 3.57069,4.508558 2.31128,-0.265853 2.80705,-0.852144 3.07415,-3.635436 z"
     id="path112" />
  <path
     style="fill:none;stroke:#000000;stroke-opacity:1"
     d="m 650.5,85.5 c 0,-2.65367 -0.37519,-3.036175 -3.25,-3.313358 -2.99081,-0.288368 -3.25,-0.08234 -3.25,2.583333 0,3.625328 0.76171,4.399214 3.96258,4.025935 C 650.04951,88.552535 650.5,87.967387 650.5,85.5 Z"
     id="path111" />
  <path
     style="fill:none;stroke:#000000;stroke-opacity:1"
     d="m 491.81846,85.181535 c 0.30774,-3.206665 0.20695,-3.307735 -2.99181,-3 -2.24337,0.215824 -3.42074,0.901316 -3.65303,2.126878 -0.61565,3.24812 0.64878,4.84465 3.57069,4.508558 2.31128,-0.265853 2.80705,-0.852144 3.07415,-3.635436 z"
     id="path110" />
  <path
     style="fill:none;stroke:#000000;stroke-opacity:1"
     d="m 333.5,85.5 c 0,-2.65367 -0.37519,-3.036175 -3.25,-3.313358 -2.99081,-0.288368 -3.25,-0.08234 -3.25,2.583333 0,3.625328 0.76171,4.399214 3.96258,4.025935 C 333.04951,88.552535 333.5,87.967387 333.5,85.5 Z"
     id="path109" />
  <path
     style="fill:none;stroke:#000000;stroke-opacity:1"
     d="m 176,85.5 c 0,-3.222222 -0.2381,-3.5 -3,-3.5 -2.62745,0 -3,0.351852 -3,2.833333 C 170,88.275027 170.63798,89 173.66667,89 175.66667,89 176,88.5 176,85.5 Z"
     id="path108" />
  <path
     style="fill:none;stroke:#000000;stroke-opacity:1"
     d="M 17.813358,85.25 C 18.113918,82.132748 17.98117,82 14.563358,82 11.317318,82 11,82.252309 11,84.833333 c 0,3.560972 0.773508,4.33448 3.962576,3.962577 2.056168,-0.239787 2.596857,-0.912315 2.850782,-3.54591 z"
     id="path107" />
  <path
     style="fill:none;stroke:#000000;stroke-opacity:1"
     d="m 458.6409,135.69244 c 0.38084,-0.38084 -4.22007,-0.6086 -10.22423,-0.50614 l -10.91667,0.18631 8.5,0.60328 c 9.87808,0.70108 11.69715,0.6603 12.6409,-0.28345 z"
     id="path106" />
  <path
     style="fill:none;stroke:#000000;stroke-opacity:1"
     d="M 377.81336,167.25 C 378.23404,162.88693 380,163.08883 380,167.5 v 3.5 h 11.52605 11.52604 L 402.77605,155.75 402.5,140.5 h -23 -23 l -0.27623,15.2841 -0.27623,15.2841 10.77623,-0.2841 L 377.5,170.5 Z"
     id="path105" />
  <path
     style="fill:none;stroke:#000000;stroke-opacity:1"
     d="m 355,155 v -16 h 24.5 24.5 v 16 16 h 10.60699 c 9.26134,0 10.52998,-0.20067 10,-1.58179 -0.33385,-0.86998 -0.60699,-9.86998 -0.60699,-20 V 131 h -45 -45 v 20 20 h 10.5 10.5 z"
     id="path104" />
  <path
     style="fill:none;stroke:#000000;stroke-opacity:1"
     d="m 425,175 v -3 h -10.03138 c -10.40176,0 -12.06331,0.70491 -10.60699,4.5 0.45871,1.19539 2.61269,1.5 10.60699,1.5 H 425 Z"
     id="path103" />
  <path
     style="fill:none;stroke:#000000;stroke-opacity:1"
     d="m 402.5,175 c 0,-2.49431 -0.0245,-2.50065 -10.76833,-2.78402 -8.93382,-0.23563 -10.86862,-0.0227 -11.35699,1.25 -0.32376,0.84371 -0.32376,2.22433 0,3.06804 0.48837,1.27268 2.42317,1.48563 11.35699,1.25 C 402.47548,177.50065 402.5,177.49431 402.5,175 Z"
     id="path102" />
  <path
     style="fill:none;stroke:#000000;stroke-opacity:1"
     d="m 377.5,175 c 0,-2.48583 -0.0582,-2.50162 -10.26788,-2.78518 -8.48839,-0.23576 -10.36999,-0.0191 -10.85699,1.25 -0.32401,0.84435 -0.32401,2.22601 0,3.07036 0.487,1.26912 2.3686,1.48576 10.85699,1.25 C 377.44181,177.50162 377.5,177.48583 377.5,175 Z"
     id="path101" />
  <path
     style="fill:none;stroke:#000000;stroke-opacity:1"
     d="m 354.5,175 c 0,-2.48553 -0.0593,-2.50165 -10.25,-2.78498 L 334,171.93003 V 175 v 3.06997 l 10.25,-0.28499 C 354.44067,177.50165 354.5,177.48553 354.5,175 Z"
     id="path100" />
  <path
     style="fill:none;stroke:#000000;stroke-opacity:1"
     d="M 465,160.5 V 139 h -17 -17 v 21.5 21.5 h 17 17 z"
     id="path99" />
  <path
     style="fill:none;stroke:#000000;stroke-opacity:1"
     d="m 532.72316,178.13741 c 1.77274,-1.14145 3.50903,-3.21433 3.85841,-4.60639 0.34939,-1.39206 0.98638,-2.53102 1.41555,-2.53102 1.20533,0 2.09877,-6.27055 1.39489,-9.78996 -0.34681,-1.73403 -2.08381,-4.83394 -3.86001,-6.8887 -3.19068,-3.69108 -3.32032,-3.73644 -10.79924,-3.77863 -6.62499,-0.0374 -7.88552,0.25379 -10.09941,2.33287 -1.39128,1.30657 -2.81257,3.66391 -3.15841,5.23853 C 510.71376,161.57974 509,162.92648 509,160.05902 509,158.92656 509.45,158 510,158 c 0.55,0 1,-0.59081 1,-1.31291 0,-1.83046 5.26233,-6.68709 7.2457,-6.68709 0.89995,0 1.91438,-0.45 2.2543,-1 0.33992,-0.55 2.16648,-1 4.05902,-1 1.89254,0 3.44098,0.45 3.44098,1 0,0.55 1.10948,1 2.46552,1 5.63601,0 11.50986,10.20774 9.97434,17.33368 C 539.65693,170.96707 535.2136,179 533.98677,179 c -0.45276,0 -1.6475,0.27288 -2.65498,0.6064 -1.00749,0.33351 -0.38137,-0.32753 1.39137,-1.46899 z"
     id="path98" />
  <path
     style="fill:none;stroke:#000000;stroke-opacity:1"
     d="m 511,177.98643 c 0,-3.30746 -0.5625,-6.92119 -1.25,-8.03051 -1.02964,-1.66138 -0.98704,-2.18051 0.24164,-2.94479 0.92505,-0.57541 1.85567,-0.56382 2.45,0.0305 0.5271,0.5271 1.74264,0.95836 2.7012,0.95836 2.4712,0 8.85716,3.9484 8.85716,5.47633 0,0.70333 0.675,1.83898 1.5,2.52367 1.59079,1.32024 2.00743,3 0.74411,3 -0.41574,0 -1.3624,-1.3702 -2.10368,-3.04488 -1.55922,-3.52252 -4.2962,-5.46456 -8.89043,-6.30827 -2.88142,-0.52916 -3.25,-0.34139 -3.25,1.65564 0,5.18476 6.27285,9.22145 13.24497,8.5234 2.69699,-0.27002 3.25503,0.017 3.25503,1.67411 0,1.83513 0.76251,2.0237 9.25,2.28753 l 9.25,0.28752 V 161.03753 138 h -19.46563 -19.46563 l 0.0534,23 c 0.0444,19.11743 0.29178,23 1.46563,23 1.05977,0 1.41225,-1.50091 1.41225,-6.01357 z"
     id="path97" />
  <path
     style="fill:none;stroke:#000000;stroke-opacity:1"
     d="m 458.30194,183.25562 c -5.05893,-0.18111 -13.60893,-0.1819 -19,-0.002 -5.39107,0.18015 -1.25194,0.32834 9.19806,0.3293 10.45,9.6e-4 14.86087,-0.14644 9.80194,-0.32755 z"
     id="path96" />
  <path
     style="fill:none;stroke:#000000;stroke-opacity:1"
     d="M 425,181.5 V 179 H 414.5 404 v 2.5 2.5 h 10.5 10.5 z"
     id="path95" />
  <path
     style="fill:none;stroke:#000000;stroke-opacity:1"
     d="M 403,181.5 V 179 H 391.5 380 v 2.5 2.5 h 11.5 11.5 z"
     id="path94" />
  <path
     style="fill:none;stroke:#000000;stroke-opacity:1"
     d="m 377.81955,181.75 c -0.3058,-2.1532 -0.78202,-2.26221 -11.06955,-2.53383 L 356,178.93234 V 181.46617 184 h 11.06955 c 10.90755,0 11.06488,-0.0329 10.75,-2.25 z"
     id="path93" />
  <path
     style="fill:none;stroke:#000000;stroke-opacity:1"
     d="M 355,181.5 V 179 H 344.5 334 v 2.5 2.5 h 10.5 10.5 z"
     id="path92" />
  <path
     style="fill:none;stroke:#000000;stroke-opacity:1"
     d="m 542.77643,186.27311 c -2.04796,-0.21488 -5.64796,-0.21785 -8,-0.007 -2.35204,0.21125 -0.67643,0.38706 3.72357,0.39069 4.4,0.004 6.32439,-0.16921 4.27643,-0.38408 z"
     id="path91" />
  <path
     style="fill:none;stroke:#000000;stroke-opacity:1"
     d="M 425,188.5 V 186 H 414.5 404 v 2.5 2.5 h 10.5 10.5 z"
     id="path90" />
  <path
     style="fill:none;stroke:#000000;stroke-opacity:1"
     d="M 403,188.5 V 186 H 391.5 380 v 2.5 2.5 h 11.5 11.5 z"
     id="path89" />
  <path
     style="fill:none;stroke:#000000;stroke-opacity:1"
     d="m 377.81955,188.25 c 0.31488,-2.21707 0.15755,-2.25 -10.75,-2.25 H 356 v 2.53383 2.53383 l 10.75,-0.28383 c 10.28753,-0.27162 10.76375,-0.38063 11.06955,-2.53383 z"
     id="path88" />
  <path
     style="fill:none;stroke:#000000;stroke-opacity:1"
     d="M 355,188.5 V 186 H 344.5 334 v 2.5 2.5 h 10.5 10.5 z"
     id="path87" />
  <path
     style="fill:none;stroke:#000000;stroke-opacity:1"
     d="m 440.80247,195.35599 c 1.63513,-0.43795 2.2148,-1.23104 2,-2.73634 -0.26616,-1.86521 -0.96104,-2.11965 -5.78877,-2.11965 -4.5747,0 -5.54647,0.31241 -5.8484,1.88017 -0.61104,3.17287 3.8075,4.53725 9.63717,2.97582 z"
     id="path86" />
  <path
     style="fill:none;stroke:#000000;stroke-opacity:1"
     d="m 425,195 v -3 h -10.03138 c -10.40176,0 -12.06331,0.70491 -10.60699,4.5 0.45871,1.19539 2.61269,1.5 10.60699,1.5 H 425 Z"
     id="path85" />
  <path
     style="fill:none;stroke:#000000;stroke-opacity:1"
     d="m 402.5,195 c 0,-2.49431 -0.0245,-2.50065 -10.76833,-2.78402 -8.93382,-0.23563 -10.86862,-0.0227 -11.35699,1.25 -0.32376,0.84371 -0.32376,2.22433 0,3.06804 0.48837,1.27268 2.42317,1.48563 11.35699,1.25 C 402.47548,197.50065 402.5,197.49431 402.5,195 Z"
     id="path84" />
  <path
     style="fill:none;stroke:#000000;stroke-opacity:1"
     d="m 377.5,195 c 0,-2.48583 -0.0582,-2.50162 -10.26788,-2.78518 -8.48839,-0.23576 -10.36999,-0.0191 -10.85699,1.25 -0.32401,0.84435 -0.32401,2.22601 0,3.07036 0.487,1.26912 2.3686,1.48576 10.85699,1.25 C 377.44181,197.50162 377.5,197.48583 377.5,195 Z"
     id="path83" />
  <path
     style="fill:none;stroke:#000000;stroke-opacity:1"
     d="m 354.5,195 c 0,-2.48553 -0.0593,-2.50165 -10.25,-2.78498 L 334,191.93003 V 195 v 3.06997 l 10.25,-0.28499 C 354.44067,197.50165 354.5,197.48553 354.5,195 Z"
     id="path82" />
  <path
     style="fill:none;stroke:#000000;stroke-opacity:1"
     d="m 432.5,199 c 0.33992,-0.55 -0.0835,-1 -0.94098,-1 -0.85746,0 -1.55902,0.45 -1.55902,1 0,0.55 0.42344,1 0.94098,1 0.51754,0 1.2191,-0.45 1.55902,-1 z"
     id="path81" />
  <path
     style="fill:none;stroke:#000000;stroke-opacity:1"
     d="m 508.29601,186.79589 c 0.92485,-0.58784 0.91418,-0.76881 -0.046,-0.78058 -0.96623,-0.0118 -1.25,-5.68592 -1.25,-24.99417 V 136.04228 L 526.75,135.738 l 19.75,-0.30428 -20.5,0.0331 -20.5,0.0331 -0.26417,32.49188 c -0.1453,17.87053 0.0775,33.17053 0.49511,34 0.42708,0.84828 0.89094,-1.97869 1.06019,-6.4613 0.18186,-4.81666 0.7772,-8.27217 1.50488,-8.73469 z"
     id="path80" />
  <path
     style="fill:none;stroke:#000000;stroke-opacity:1"
     d="M 425,201.5 V 199 H 414.5 404 v 2.5 2.5 h 10.5 10.5 z"
     id="path79" />
  <path
     style="fill:none;stroke:#000000;stroke-opacity:1"
     d="M 403,201.5 V 199 H 391.5 380 v 2.5 2.5 h 11.5 11.5 z"
     id="path78" />
  <path
     style="fill:none;stroke:#000000;stroke-opacity:1"
     d="m 377.81955,201.75 c -0.3058,-2.1532 -0.78202,-2.26221 -11.06955,-2.53383 L 356,198.93234 V 201.46617 204 h 11.06955 c 10.90755,0 11.06488,-0.0329 10.75,-2.25 z"
     id="path77" />
  <path
     style="fill:none;stroke:#000000;stroke-opacity:1"
     d="M 355,201.5 V 199 H 344.5 334 v 2.5 2.5 h 10.5 10.5 z"
     id="path76" />
  <path
     style="fill:none;stroke:#000000;stroke-opacity:1"
     d="m 540.75,191.33772 c 0.6875,-0.27741 1.8125,-0.27741 2.5,0 0.6875,0.27741 0.125,0.50439 -1.25,0.50439 -1.375,0 -1.9375,-0.22698 -1.25,-0.50439 z"
     id="path75" />
  <path
     style="fill:none;stroke:#000000;stroke-opacity:1"
     d="m 540.6875,197.35417 c -1.22042,-1.22043 -0.73541,-1.9256 1.3244,-1.9256 1.10655,0 1.86593,0.43795 1.6875,0.97322 -0.42599,1.27798 -2.14328,1.821 -3.0119,0.95238 z"
     id="path74" />
  <path
     style="fill:none;stroke:#000000;stroke-opacity:1"
     d="m 540.75,199.33772 c 0.6875,-0.27741 1.8125,-0.27741 2.5,0 0.6875,0.27741 0.125,0.50439 -1.25,0.50439 -1.375,0 -1.9375,-0.22698 -1.25,-0.50439 z"
     id="path73" />
  <path
     style="fill:none;stroke:#000000;stroke-opacity:1"
     d="m 540.6875,205.35417 c -1.22042,-1.22043 -0.73541,-1.9256 1.3244,-1.9256 1.10655,0 1.86593,0.43795 1.6875,0.97322 -0.42599,1.27798 -2.14328,1.821 -3.0119,0.95238 z"
     id="path72" />
  <path
     style="fill:none;stroke:#000000;stroke-opacity:1"
     d="M 544.66667,197.5 V 188 H 542 539.33333 v 9.5 9.5 H 542 h 2.66667 z"
     id="path71" />
  <path
     style="fill:none;stroke:#000000;stroke-opacity:1"
     d="m 440.80247,207.35599 c 1.63513,-0.43795 2.2148,-1.23104 2,-2.73634 C 442.5362,202.75371 441.84169,202.5 437,202.5 c -4.89143,0 -5.53437,0.24145 -5.81066,2.18212 -0.25671,1.80324 0.26417,2.25293 3,2.58996 1.82087,0.22432 3.53566,0.47372 3.81066,0.55423 0.275,0.0805 1.53611,-0.13113 2.80247,-0.47032 z"
     id="path70" />
  <path
     style="fill:none;stroke:#000000;stroke-opacity:1"
     d="m 546,209 c 0,-0.55 -1.575,-1 -3.5,-1 -1.925,0 -3.5,0.45 -3.5,1 0,0.55 1.575,1 3.5,1 1.925,0 3.5,-0.45 3.5,-1 z"
     id="path69" />
  <path
     style="fill:none;stroke:#000000;stroke-opacity:1"
     d="M 425,208.5 V 206 H 414.5 404 v 2.5 2.5 h 10.5 10.5 z"
     id="path68" />
  <path
     style="fill:none;stroke:#000000;stroke-opacity:1"
     d="M 403,208.5 V 206 H 391.5 380 v 2.5 2.5 h 11.5 11.5 z"
     id="path67" />
  <path
     style="fill:none;stroke:#000000;stroke-opacity:1"
     d="m 377.81955,208.25 c 0.31488,-2.21707 0.15755,-2.25 -10.75,-2.25 H 356 v 2.53383 2.53383 l 10.75,-0.28383 c 10.28753,-0.27162 10.76375,-0.38063 11.06955,-2.53383 z"
     id="path66" />
  <path
     style="fill:none;stroke:#000000;stroke-opacity:1"
     d="M 355,208.5 V 206 H 344.5 334 v 2.5 2.5 h 10.5 10.5 z"
     id="path65" />
  <path
     style="fill:none;stroke:#000000;stroke-opacity:1"
     d="m 434.75,211.31067 c -0.9625,-0.25152 -2.5375,-0.25152 -3.5,0 -0.9625,0.25153 -0.175,0.45733 1.75,0.45733 1.925,0 2.7125,-0.2058 1.75,-0.45733 z"
     id="path64" />
  <path
     style="fill:none;stroke:#000000;stroke-opacity:1"
     d="M 425,214.90643 V 212 h -10.03138 c -7.9943,0 -10.14828,0.30461 -10.60699,1.5 -1.37263,3.57702 0.1862,4.20646 10.55094,4.26038 L 425,217.81285 Z"
     id="path63" />
  <path
     style="fill:none;stroke:#000000;stroke-opacity:1"
     d="M 402.81642,214.75 403.13284,212 H 391.56642 C 380.11588,212 380,212.02338 380,214.33333 c 0,1.28334 0.20956,2.5429 0.46569,2.79902 0.25612,0.25613 5.31862,0.44363 11.25,0.41667 L 402.5,217.5 Z"
     id="path62" />
  <path
     style="fill:none;stroke:#000000;stroke-opacity:1"
     d="m 377.5,215 c 0,-2.48583 -0.0582,-2.50162 -10.26788,-2.78518 -8.48839,-0.23576 -10.36999,-0.0191 -10.85699,1.25 -0.32401,0.84435 -0.32401,2.22601 0,3.07036 0.487,1.26912 2.3686,1.48576 10.85699,1.25 C 377.44181,217.50162 377.5,217.48583 377.5,215 Z"
     id="path61" />
  <path
     style="fill:none;stroke:#000000;stroke-opacity:1"
     d="M 354.81642,214.75 355.13284,212 H 344.56642 334 v 3.0467 3.04671 L 344.25,217.7967 354.5,217.5 Z"
     id="path60" />
  <path
     style="fill:none;stroke:#000000;stroke-opacity:1"
     d="M 425,221.5 V 219 H 414.5 404 v 2.5 2.5 h 10.5 10.5 z"
     id="path59" />
  <path
     style="fill:none;stroke:#000000;stroke-opacity:1"
     d="M 403,221.5 V 219 H 391.5 380 v 2.5 2.5 h 11.5 11.5 z"
     id="path58" />
  <path
     style="fill:none;stroke:#000000;stroke-opacity:1"
     d="m 377.81955,221.75 c -0.3058,-2.1532 -0.78202,-2.26221 -11.06955,-2.53383 L 356,218.93234 V 221.46617 224 h 11.06955 c 10.90755,0 11.06488,-0.0329 10.75,-2.25 z"
     id="path57" />
  <path
     style="fill:none;stroke:#000000;stroke-opacity:1"
     d="M 355,221.5 V 219 H 344.5 334 v 2.5 2.5 h 10.5 10.5 z"
     id="path56" />
  <path
     style="fill:none;stroke:#000000;stroke-opacity:1"
     d="m 545.25,227.29427 c -1.2375,-0.23836 -3.2625,-0.23836 -4.5,0 -1.2375,0.23835 -0.225,0.43337 2.25,0.43337 2.475,0 3.4875,-0.19502 2.25,-0.43337 z"
     id="path55" />
  <path
     style="fill:none;stroke:#000000;stroke-opacity:1"
     d="M 425,228.5 V 226 H 414.5 404 v 2.5 2.5 h 10.5 10.5 z"
     id="path54" />
  <path
     style="fill:none;stroke:#000000;stroke-opacity:1"
     d="M 403,228.5 V 226 H 391.5 380 v 2.5 2.5 h 11.5 11.5 z"
     id="path53" />
  <path
     style="fill:none;stroke:#000000;stroke-opacity:1"
     d="m 377.81955,228.25 c 0.31488,-2.21707 0.15755,-2.25 -10.75,-2.25 C 357.00211,226 356,226.16597 356,227.83333 c 0,1.00834 0.31475,2.14809 0.69945,2.53278 0.38469,0.3847 5.22219,0.5722 10.75,0.41667 9.56232,-0.26904 10.06607,-0.39208 10.3701,-2.53278 z"
     id="path52" />
  <path
     style="fill:none;stroke:#000000;stroke-opacity:1"
     d="M 355,228.5 V 226 H 344.5 334 v 2.5 2.5 h 10.5 10.5 z"
     id="path51" />
  <path
     style="fill:none;stroke:#000000;stroke-opacity:1"
     d="m 545,231.75 c 0,-0.4125 -1.35,-0.75 -3,-0.75 -1.65,0 -3,0.3375 -3,0.75 0,0.4125 1.35,0.75 3,0.75 1.65,0 3,-0.3375 3,-0.75 z"
     id="path50" />
  <path
     style="fill:none;stroke:#000000;stroke-opacity:1"
     d="m 540,237.71429 c 0,-0.70715 0.9,-1.28572 2,-1.28572 1.1,0 2,0.57857 2,1.28572 0,0.70714 -0.9,1.28571 -2,1.28571 -1.1,0 -2,-0.57857 -2,-1.28571 z"
     id="path49" />
  <path
     style="fill:none;stroke:#000000;stroke-opacity:1"
     d="M 545,238.83179 C 545,235.88069 543.8323,234 542,234 c -1.8323,0 -3,1.88069 -3,4.83179 0,1.1869 0.86555,1.66821 3,1.66821 2.13445,0 3,-0.48131 3,-1.66821 z"
     id="path48" />
  <path
     style="fill:none;stroke:#000000;stroke-opacity:1"
     d="m 431,233 c 0,-0.55 0.675,-1 1.5,-1 0.825,0 1.5,0.45 1.5,1 0,0.55 -0.675,1 -1.5,1 -0.825,0 -1.5,-0.45 -1.5,-1 z"
     id="path47" />
  <path
     style="fill:none;stroke:#000000;stroke-opacity:1"
     d="m 431,237.78761 c 0,-0.74747 0.90536,-1.35904 2.0119,-1.35904 2.36252,0 2.08561,1.92341 -0.34477,2.39475 C 431.75021,239.00115 431,238.53508 431,237.78761 Z"
     id="path46" />
  <path
     style="fill:none;stroke:#000000;stroke-opacity:1"
     d="m 435.69703,235.75037 c -0.18209,-4.38951 -0.3929,-4.74966 -2.78036,-4.75 -3.24582,-4.6e-4 -4.22011,0.92908 -2.78555,2.65762 0.74141,0.89335 0.78408,1.75991 0.12763,2.59201 -2.03952,2.58525 -1.05589,4.38887 2.35495,4.31808 3.26576,-0.0678 3.27948,-0.0892 3.08333,-4.81771 z"
     id="path45" />
  <path
     style="fill:none;stroke:#000000;stroke-opacity:1"
     d="m 503.26903,247.34406 c -0.67703,-0.27392 -2.02703,-0.29059 -3,-0.0371 -0.97297,0.25354 -0.41903,0.47766 1.23097,0.49804 1.65,0.0204 2.44606,-0.18706 1.76903,-0.46099 z"
     id="path44" />
  <path
     style="fill:none;stroke:#000000;stroke-opacity:1"
     d="m 475.26903,247.34406 c -0.67703,-0.27392 -2.02703,-0.29059 -3,-0.0371 -0.97297,0.25354 -0.41903,0.47766 1.23097,0.49804 1.65,0.0204 2.44606,-0.18706 1.76903,-0.46099 z"
     id="path43" />
  <path
     style="fill:none;stroke:#000000;stroke-opacity:1"
     d="m 540,245.71429 c 0,-0.70715 0.9,-1.28572 2,-1.28572 1.1,0 2,0.57857 2,1.28572 0,0.70714 -0.9,1.28571 -2,1.28571 -1.1,0 -2,-0.57857 -2,-1.28571 z"
     id="path42" />
  <path
     style="fill:none;stroke:#000000;stroke-opacity:1"
     d="M 545,247.08179 C 545,243.88992 543.8843,242 542,242 c -1.8843,0 -3,1.88992 -3,5.08179 0,1.46468 0.7093,1.91821 3,1.91821 2.2907,0 3,-0.45353 3,-1.91821 z"
     id="path41" />
  <path
     style="fill:none;stroke:#000000;stroke-opacity:1"
     d="m 431,245.78761 c 0,-0.74747 0.90536,-1.35904 2.0119,-1.35904 2.36252,0 2.08561,1.92341 -0.34477,2.39475 C 431.75021,247.00115 431,246.53508 431,245.78761 Z"
     id="path40" />
  <path
     style="fill:none;stroke:#000000;stroke-opacity:1"
     d="m 436,247.08179 c 0,-5.28937 -3.66763,-6.93987 -5.94897,-2.67714 C 428.39376,247.50128 429.37478,249 433.05902,249 435.29153,249 436,248.53791 436,247.08179 Z"
     id="path39" />
  <path
     style="fill:none;stroke:#000000;stroke-opacity:1"
     d="m 543.25,251.26779 c -2.3375,-0.21053 -6.1625,-0.21053 -8.5,0 -2.3375,0.21054 -0.425,0.3828 4.25,0.3828 4.675,0 6.5875,-0.17226 4.25,-0.3828 z"
     id="path38" />
  <path
     style="fill:none;stroke:#000000;stroke-width:1;stroke-dasharray:none;stroke-opacity:1"
     d="M 402.77605,247.25 403.05209,232 H 391.52605 380 v 3.5 c 0,4.41117 -1.76596,4.61307 -2.18664,0.25 L 377.5,232.5 H 367 356.5 l -0.27953,13.95184 c -0.15375,7.67352 -0.0521,14.5445 0.22584,15.26884 0.40179,1.04706 5.17324,1.26189 23.27953,1.04816 L 402.5,262.5 Z"
     id="path37" />
  <path
     style="fill:none;fill-opacity:0;stroke:#000000;stroke-width:1;stroke-dasharray:none;stroke-opacity:1"
     d="m 463,260.5 c 0,-7.16667 0.31373,-8.81373 2,-10.5 1.7037,-1.7037 2,-3.33333 2,-11 v -9 l -3.25,-0.11842 c -1.7875,-0.0651 -3.62023,-0.0542 -4.07273,0.0242 -0.4525,0.0785 -0.6775,-0.88074 -0.5,-2.13158 0.26239,-1.849 0.97716,-2.29148 3.82273,-2.36646 2.09015,-0.0551 3.3993,-0.5586 3.25,-1.25 C 466.1125,223.521 467.125,223 468.5,223 h 2.5 v 11 11 h 2.95956 2.95956 l 0.29044,-8.25 0.29044,-8.25 3.5,0.261 c 6.88694,0.51357 11.57008,4.59277 14.62505,12.739 0.9257,2.46844 1.76734,3.05499 4.75,3.31037 L 504,245.12073 V 234.06037 C 504,223.00062 504.00014,223 506.44098,223 c 1.34254,0 2.7191,-0.45 3.05902,-1 0.33992,-0.55 1.4703,-1 2.51196,-1 4.91426,0 9.64697,-4.7916 11.11174,-11.25 l 0.6237,-2.75 h -7.93944 C 502.87063,207 504,210.58813 504,169.4847 v -35.44492 l 21.25,-0.26989 21.25,-0.26989 0.29206,-7.75 c 0.29149,-7.73465 0.28697,-7.75 -2.28138,-7.75 -2.6658,0 -4.84445,-3.05541 -2.69059,-3.77336 0.64895,-0.21632 1.17991,-0.96106 1.17991,-1.65499 0,-1.64665 3.46545,-4.77287 4.33115,-3.90716 0.36787,0.36786 0.66885,0.19392 0.66885,-0.38653 0,-0.58046 -1.575,-1.35085 -3.5,-1.71198 -1.925,-0.36113 -3.5,-1.09735 -3.5,-1.63604 0,-0.5387 -1.13653,-1.41155 -2.52563,-1.93968 -1.38909,-0.52814 -2.81877,-1.7545 -3.17705,-2.72525 C 534.93903,99.294254 534.34388,98.275 533.97476,98 533.60564,97.725 533.005,95.5875 532.64,93.25 L 531.97636,89 h 8.51182 C 545.49606,89 549,88.588344 549,88 c 0,-0.642452 -9.84379,-1 -27.53138,-1 -23.54986,0 -27.61463,0.216927 -28.10699,1.5 C 492.54969,90.61588 484,90.61588 484,88.5 484,87.180089 475.05556,87 409.5,87 343.94444,87 335,87.180089 335,88.5 c 0,1.105699 -1.15478,1.5 -4.39301,1.5 -2.98241,0 -4.57784,-0.481652 -4.96862,-1.5 C 325.13395,87.185485 315.97013,87 251.53138,87 186.83682,87 178,87.180266 178,88.5 c 0,1.190476 1.44444,1.5 7,1.5 7.67977,0 7.55926,-0.134929 5.98223,6.69787 -1.32021,5.72008 -9.18744,13.20483 -12.53099,11.92179 -0.76296,-0.29277 -1.65316,-0.10196 -1.97823,0.42401 -0.32919,0.53264 0.83229,0.95633 2.62158,0.95633 4.43042,0 10.31103,6.40199 12.02557,13.09177 L 192.3781,128 H 236.18905 280 v 11.5 11.5 h 3 3 v -8.5879 -8.5879 l 4.25,0.684 c 5.05818,0.81406 8.80932,3.00262 9.46879,5.52447 0.26306,1.00594 1.08412,2.06146 1.82458,2.3456 0.74046,0.28414 1.64619,2.11527 2.01275,4.06917 0.81752,4.35775 1.99045,4.56971 2.80308,0.50655 0.6613,-3.30647 4.98445,-9.54297 7.54601,-10.88574 0.87713,-0.4598 3.50729,-1.1528 5.84479,-1.54002 L 324,133.8242 v 8.5879 c 0,6.88182 0.29148,8.5879 1.46725,8.5879 1.18596,0 1.52145,-2.15675 1.75,-11.25 0.27582,-10.9742 0.34074,-11.2582 2.64809,-11.58467 1.30093,-0.18406 2.85343,0.15344 3.45,0.75 0.74769,0.7477 15.18703,1.08467 46.47828,1.08467 44.55262,0 45.40331,0.037 45.91663,2 0.50336,1.92485 1.36402,2 22.90638,2 H 471 v 35.46482 C 471,210.58182 472.12231,207 459.23893,207 h -7.89254 l 0.46132,3.25 c 0.27801,1.95862 1.69925,4.3771 3.5768,6.08656 3.73835,3.40366 8.12364,5.82196 8.98871,4.95689 0.34473,-0.34473 0.62678,-0.053 0.62678,0.64829 0,1.48373 -4.25926,0.70002 -6.69709,-1.23228 C 452.87393,216.4063 451,213.95597 451,211.16026 c 0,-1.64648 -0.53096,-3.17058 -1.17991,-3.3869 -0.65876,-0.21958 -0.89346,-1.13977 -0.53138,-2.08333 C 449.8278,204.28517 451.38388,204 458.51068,204 h 8.57345 L 466.79206,196.25 466.5,188.5 454.75,188.21826 C 443.94654,187.95923 440.92622,188.6003 444,190.5 c 1.85335,1.14543 1.01878,4.34006 -1.69053,6.47121 -2.62396,2.06401 -2.63774,2.13018 -0.55712,2.67428 2.99523,0.78327 4.01084,5.85371 1.68687,8.42167 -0.96206,1.06306 -2.35064,1.93284 -3.08573,1.93284 -0.7351,0 -1.8986,0.9 -2.58556,2 -0.83402,1.33547 -2.33203,2 -4.50848,2 H 430 v 5.5 5.5 h 3.5 c 1.925,0 3.54858,0.3375 3.60795,0.75 0.0594,0.4125 0.23172,4.8 0.383,9.75 0.15127,4.95 0.32769,9.98663 0.39205,11.1925 0.0982,1.84037 0.79695,2.24189 4.35056,2.5 l 4.23355,0.3075 1.02666,5.44037 c 1.41466,7.49636 7.30595,13.07354 14.75623,13.96944 0.4125,0.0496 0.75,-3.73481 0.75,-8.40981 z"
     id="PasilloA1" />
  <path
     style="fill:none;stroke:#000000;stroke-opacity:1"
     d="M 425,261.5 V 232 H 414.5 404 v 16 16 H 379.5 355 V 248 232 H 344.5 334 v 29.5 29.5 h 45.5 45.5 z"
     id="path35" />
  <path
     style="fill:none;stroke:#000000;stroke-opacity:1"
     d="M 809,191.5 C 809,90.666667 808.98686,90 807,90 c -1.98686,0 -2,0.666667 -2,101.5 0,100.83333 0.0131,101.5 2,101.5 1.98686,0 2,-0.66667 2,-101.5 z"
     id="path34" />
  <path
     style="fill:none;stroke:#000000;stroke-opacity:1"
     d="m 804,191.5 c 0,-67 -0.3399,-101.5 -1,-101.5 -0.6601,0 -1,34.5 -1,101.5 0,67 0.3399,101.5 1,101.5 0.6601,0 1,-34.5 1,-101.5 z"
     id="path33" />
  <path
     style="fill:none;stroke:#000000;stroke-width:2.2;stroke-dasharray:none;stroke-opacity:1"
     d="M 801,190 V 87 h -74.5 c -65.55556,0 -74.5,0.180089 -74.5,1.5 0,2.11588 -8.54969,2.11588 -9.36163,0 -0.49952,-1.301748 -6.36577,-1.5 -44.38474,-1.5 -42.57166,0 -43.85752,0.05649 -45.5216,2 -1.46399,1.709812 -2.94994,2 -10.24129,2 h -8.52884 l 0.60033,2.75 c 1.00084,4.584602 2.62459,8.25 3.65472,8.25 0.53587,0 2.21615,0.88427 3.73395,1.96504 1.51781,1.08077 4.62477,2.26329 6.90437,2.62781 5.25383,0.84012 5.29647,1.96736 0.10583,2.79738 -2.92102,0.46709 -4.27081,1.2636 -4.87683,2.87781 -0.55119,1.46816 -0.45232,2.29473 0.2889,2.41537 0.61975,0.10088 2.81433,0.45877 4.87683,0.79531 l 3.75,0.61191 V 204.54531 293 h 124 124 z"
     id="A2.2" />
  <path
     style="fill:none;stroke:#000000;stroke-opacity:1"
     d="m 552,206 c 0,-86.33333 -0.0153,-87 -2,-87 -1.98467,0 -2,0.66667 -2,87 0,86.33333 0.0153,87 2,87 1.98467,0 2,-0.66667 2,-87 z"
     id="path31" />
  <path
     style="fill:none;stroke:#000000;stroke-opacity:1"
     d="M 546.77114,273.25 546.5,253.5 538.6552,253.20623 C 530.02724,252.88313 528,253.74839 528,257.75402 c 0,3.73424 -7.86412,11.27698 -11.61842,11.14362 -2.8664,-0.10182 -2.86412,-0.1065 0.43375,-0.88706 C 520.43942,267.1528 525,263.42791 525,261.32569 525,260.59656 525.45,260 526,260 c 0.55,0 1,-0.91445 1,-2.03212 0,-1.11766 0.65204,-3.59266 1.44897,-5.5 C 529.71322,249.44212 530.34662,249 533.41724,249 h 3.51929 l 0.28173,-11.75 0.28174,-11.75 4.75,-0.30479 4.75,-0.30479 V 218 211.10958 L 542.25,210.80479 537.5,210.5 537.21725,199.25 536.9345,188 h -3.86943 c -3.40029,0 -3.99621,-0.36372 -4.91523,-3 -0.89729,-2.57399 -1.5502,-3 -4.59782,-3 C 521.59841,182 520,181.55 520,181 c 0,-0.55 -0.61431,-1 -1.36514,-1 -0.75083,0 -2.55083,-0.93266 -4,-2.07258 L 512,175.85484 v 5.95595 c 0,5.11494 -0.28241,6.0298 -2,6.47896 -1.7785,0.46509 -2,1.36401 -2,8.11663 V 204 h 8.5 c 9.34845,0 9.08369,-0.24327 7.44925,6.84463 -1.34156,5.81781 -6.49749,11.23423 -11.46211,12.04121 -5.02376,0.81658 -5.01542,2.46819 0.0129,2.54949 3.36311,0.0544 4.05088,0.42292 4.31955,2.31467 0.29139,2.05169 -0.0832,2.25 -4.25,2.25 H 508 v 9.38337 c 0,8.54236 0.17925,9.43024 2,9.90638 1.81336,0.4742 2,1.36401 2,9.53484 0,4.95651 0.27314,9.72364 0.60699,10.59362 0.33384,0.86999 0.12636,1.58179 -0.46107,1.58179 -0.65105,0 -1.18086,-3.32103 -1.35699,-8.50605 -0.15891,-4.67833 -0.73893,-8.61583 -1.28893,-8.75 -0.63433,-0.15475 -1.09915,6.97794 -1.27114,19.50605 L 507.95772,293 H 527.5 547.04228 Z"
     id="path30" />
  <path
     style="fill:none;stroke:#000000;stroke-opacity:1"
     d="M 489.74091,278.40757 C 488.3051,276.97177 490.28347,276 494.64235,276 c 3.17202,0 4.40145,0.37362 4.11326,1.25 -0.44143,1.34238 -7.87531,2.29696 -9.0147,1.15757 z"
     id="path29" />
  <path
     style="fill:none;stroke:#000000;stroke-opacity:1"
     d="m 479,277.4492 c 0,-1.21685 0.90373,-1.46657 4.19678,-1.15966 C 489.11569,276.84119 489.42357,279 483.58333,279 480.1092,279 479,278.6247 479,277.4492 Z"
     id="path28" />
  <path
     style="fill:none;stroke:#000000;stroke-opacity:1"
     d="m 501,278 v -13 h -13 -13 v 13 13 h 13 13 z"
     id="path27" />
  <path
     style="fill:none;stroke:#000000;stroke-opacity:1"
     d="m 473.44686,290.72211 c -0.28135,-0.73317 -0.38449,-6.93309 -0.2292,-13.77758 L 473.5,264.5 l 14.77839,-0.2769 14.7784,-0.27689 -0.2784,13.77689 L 502.5,291.5 l -14.2708,0.27758 c -11.16584,0.21719 -14.3821,-0.0125 -14.78234,-1.05547 z"
     id="path26" />
  <path
     style="fill:none;stroke:#000000;stroke-opacity:1"
     d="m 503.7695,271.25 c -0.22892,-18.47534 -0.49534,-21.77027 -1.7695,-21.88465 -0.825,-0.0741 -2.46141,-0.18656 -3.63646,-0.25 -1.73938,-0.0939 -2.26187,-0.95169 -2.81127,-4.61535 -0.37115,-2.475 -0.98739,-4.5 -1.36943,-4.5 -0.38204,0 -1.30113,-1.3702 -2.04241,-3.04488 -1.55922,-3.52252 -4.2962,-5.46456 -8.89043,-6.30827 L 480,230.05 l -0.0153,8.225 c -0.008,4.52375 -0.34986,8.75089 -0.75874,9.39365 -0.40889,0.64275 -2.31449,1.31775 -4.23469,1.5 L 471.5,249.5 471.2305,271.25 470.961,293 h 16.539 16.539 z"
     id="path25" />
  <path
     style="fill:none;stroke:#000000;stroke-opacity:1"
     d="m 467,273.5 c 0,-12.33333 -0.36752,-19.5 -1,-19.5 -0.58824,0 -1,3.5 -1,8.5 0,6.73417 -0.29936,8.5 -1.44098,8.5 -0.79254,0 -1.7191,-0.45 -2.05902,-1 -0.33992,-0.55 -1.34754,-1 -2.23916,-1 -0.89163,0 -3.77869,-1.4625 -6.41571,-3.25 -3.7309,-2.52899 -4.94004,-4.02648 -5.45024,-6.75 -1.05071,-5.60875 -1.9179,-6.11767 -10.05735,-5.90223 L 430,253.29197 V 273.14599 293 h 18.5 18.5 z"
     id="path24" />
  <path
     style="fill:none;stroke:#000000;stroke-opacity:1"
     d="m 402.81858,292.25113 c -12.47479,-0.15858 -33.17479,-0.15875 -46,-3.8e-4 -12.82522,0.15837 -2.61858,0.28812 22.68142,0.28833 25.3,2.1e-4 35.79336,-0.12936 23.31858,-0.28795 z"
     id="path23" />
  <path
     style="fill:none;stroke:#000000;stroke-opacity:1"
     d="m 332,211.5 c 0,-80.83333 -0.0164,-81.5 -2,-81.5 -1.87786,0 -2,0.66667 -2,10.91667 0,7.75555 -0.36196,11.08558 -1.25,11.5 -1,0.46666 -1,0.7 0,1.16666 0.98239,0.45845 1.25,15.44445 1.25,70 0,68.75 0.0192,69.41667 2,69.41667 1.98364,0 2,-0.66667 2,-81.5 z"
     id="path22" />
  <path
     style="fill:none;stroke:#000000;stroke-opacity:1"
     d="m 327,224 c 0,-68.11213 -0.0255,-69 -1.98095,-69 -2.3995,0 -2.9265,-1.93631 -3.26602,-12 l -0.25303,-7.5 -3,0.34469 c -1.65,0.18959 -3.15,0.75209 -3.33333,1.25 -0.18334,0.49792 -0.98197,0.90531 -1.77475,0.90531 -0.79278,0 -1.86915,1.125 -2.39192,2.5 -0.52277,1.375 -1.35821,2.5 -1.85653,2.5 -0.49832,0 -1.41594,2.025 -2.03915,4.5 -0.62322,2.475 -1.57016,4.5 -2.10432,4.5 -0.53416,0 -1.4811,-2.025 -2.10432,-4.5 -0.62321,-2.475 -1.54083,-4.5 -2.03915,-4.5 -0.49832,0 -1.33376,-1.125 -1.85653,-2.5 -0.52277,-1.375 -1.59914,-2.5 -2.39192,-2.5 -0.79278,0 -1.59141,-0.40739 -1.77475,-0.90531 -0.18333,-0.49791 -1.68333,-1.06041 -3.33333,-1.25 l -3,-0.34469 -0.24591,6.5 c -0.13526,3.575 -0.49315,7.9625 -0.79532,9.75 -0.54086,3.1995 -0.63364,3.25 -5.97133,3.25 H 276.0655 L 275.78275,143.75 275.5,132.5 h -50 -50 L 175.24405,212.75 174.9881,293 H 250.99405 327 Z"
     id="path21" />
  <path
     style="fill:none;stroke:#000000;stroke-opacity:1"
     d="m 174,211.991 v -81.009 l 51.75,0.259 51.75,0.259 0.28275,11.25 0.28275,11.25 h 3.46725 c 1.90699,0 3.46725,-0.45 3.46725,-1 0,-0.55 -1.35,-1 -3,-1 h -3 V 141 130 H 225.5 172 v 81.5 c 0,53.66667 0.34151,81.5 1,81.5 0.65844,0 1,-27.66967 1,-81.009 z"
     id="path20" />
  <path
     style="display:inline;fill:none;fill-opacity:0;stroke:#000000;stroke-width:2;stroke-dasharray:none;stroke-opacity:1"
     d="m 171,210.11663 v -82.88337 l 2.25,-0.60297 c 1.2375,-0.33164 5.76782,-0.60913 10.06739,-0.61663 7.34311,-0.0128 7.77911,-0.13424 7.18656,-2.0012 C 189.18552,119.85845 184.77028,113 183.41451,113 182.63653,113 182,112.55 182,112 c 0,-0.55 -1.0882,-1 -2.41821,-1 -6.43623,0 -7.42271,-2.6916 -1.33179,-3.63377 5.10182,-0.78918 11.75,-6.96114 11.75,-10.908337 0,-1.351841 -0.002,-2.751997 -0.004,-3.111458 -0.002,-0.359461 -3.30551,-0.557179 -7.34009,-0.439374 -5.97404,0.174435 -8.01492,-0.186617 -10.99552,-1.945211 C 169.64696,89.774179 168,88.394014 168,87.894817 168,87.357156 137.73409,87.091703 93.75,87.243593 L 19.5,87.5 19.245306,190.25 18.990613,293 H 94.995306 171 Z"
     id="A1.1" />
  <path
     style="fill:none;stroke:#000000;stroke-opacity:1"
     d="M 17.749839,140.82631 C 17.602216,112.59684 17.481394,135.4 17.481346,191.5 c -4.8e-5,56.1 0.120735,79.19684 0.268406,51.32631 0.147671,-27.87053 0.14771,-73.77053 8.7e-5,-102 z"
     id="path18" />
  <path
     style="fill:none;stroke:#000000;stroke-opacity:1"
     d="M 15,191.42668 C 15,95.228469 14.907392,89.871184 13.25,90.190335 11.599085,90.508239 11.485576,96.25932 11.245239,191.76366 10.991742,292.49818 11.000416,293 12.995239,293 14.988429,293 15,292.41373 15,191.42668 Z"
     id="path17" />
  <path
     style="fill:none;stroke:#000000;stroke-opacity:1"
     d="m 484,297.04381 c 0,-1.73469 -0.82092,-1.98946 -7.25,-2.25 L 469.5,294.5 l -0.5,-34 -0.5,-34 -4.5,0.59981 -4.5,0.5998 4.22349,0.1502 4.22349,0.15019 0.0247,33.52113 0.0247,33.52114 -19.74816,-0.27114 L 428.5,294.5 428.23011,273.25 427.96022,252 l 8.26989,-0.18338 8.26989,-0.18338 -8,-0.56662 -8,-0.56662 v -11 -11 l 4,-0.60809 4,-0.6081 -4.25,-0.1419 L 428,227 v -20 -20 h 19.95956 19.95956 l 0.33689,8.25 c 0.1853,4.5375 0.42849,-7.1625 0.54044,-26 L 469,135 h -4.66667 c -5.15594,0 -5.21149,1.34555 -0.0595,1.44052 L 467.5,136.5 V 161 185.5 H 448 428.5 V 161 136.5 l 3.15898,0.30178 c 1.73744,0.16598 3.4515,-0.17152 3.80902,-0.75 C 435.88633,135.3749 434.49515,135 431.565,135 h -4.55303 l -0.25598,79.75 -0.25599,79.75 -7.25,0.29381 c -5.09995,0.20668 -7.25,0.67623 -7.25,1.58333 0,0.70924 0.3,1.58953 0.66667,1.95619 C 413.03333,298.7 429.23333,299 448.66667,299 483.06957,299 484,298.94849 484,297.04381 Z"
     id="path16" />
  <path
     style="fill:none;stroke:#000000;stroke-opacity:1"
     d="m 642.5,298 c 0,-1.3018 -4.92208,-1.53464 -37.25,-1.76217 C 568.43102,295.97869 568,295.99908 568,298 c 0,2.00092 0.43102,2.02131 37.25,1.76217 C 637.57792,299.53464 642.5,299.3018 642.5,298 Z"
     id="path15" />
  <path
     style="fill:none;stroke:#000000;stroke-opacity:1"
     d="M 566.81955,297.25 567.1391,295 H 537.06955 507 v -21.5 c 0,-16.49123 0.29121,-21.51839 1.25,-21.57895 1,-0.0632 1,-0.17982 0,-0.58333 -0.89755,-0.36217 -1.25,-3.72339 -1.25,-11.92105 V 228 l 4.75,-0.0789 c 5.52087,-0.0918 4.74687,-0.56213 -2,-1.21543 l -4.75,-0.46 V 260.62284 295 h -6 c -5.15152,0 -6,0.25926 -6,1.83333 0,1.00834 0.30553,2.13887 0.67895,2.51229 0.37343,0.37342 16.91093,0.56092 36.75,0.41667 L 566.5,299.5 Z"
     id="path14" />
  <path
     style="fill:none;stroke:#000000;stroke-opacity:1"
     d="m 411,298 c 0,-1.96491 -0.66667,-2 -38,-2 -37.33333,0 -38,0.0351 -38,2 0,1.96491 0.66667,2 38,2 37.33333,0 38,-0.0351 38,-2 z"
     id="path13" />
  <path
     style="fill:none;stroke:#000000;stroke-opacity:1"
     d="m 809,299.5 c 0,-4.47619 -0.0185,-4.5 -3.5,-4.5 -3.3913,0 -3.5,0.11905 -3.5,3.83333 C 802,303.4171 802.47008,304 806.16667,304 808.85802,304 809,303.77451 809,299.5 Z"
     id="path12" />
  <path
     style="fill:none;stroke:#000000;stroke-opacity:1"
     d="m 801,300 v -4 H 726.5 652 v 4 4 h 74.5 74.5 z"
     id="path11" />
  <path
     style="fill:none;stroke:#000000;stroke-opacity:1"
     d="M 650.8075,299.25 651.115,295 h -3.5575 c -3.55695,0 -3.5575,7.1e-4 -3.5575,4.56336 0,4.54601 0.0123,4.56217 3.25,4.25 3.05052,-0.29413 3.26887,-0.57421 3.5575,-4.56336 z"
     id="path10" />
  <path
     style="fill:none;stroke:#000000;stroke-opacity:1"
     d="m 642.00026,302.5 c 0,-1.0245 -145.17846,-2.02211 -147.81364,-1.01571 -0.72236,0.27587 -1.03153,0.95764 -0.68704,1.51504 0.86032,1.39202 148.50067,0.89558 148.50068,-0.49933 z"
     id="path9" />
  <path
     style="fill:none;stroke:#000000;stroke-opacity:1"
     d="m 492,299.5 c 0,-4.47619 -0.0185,-4.5 -3.5,-4.5 -3.3913,0 -3.5,0.11905 -3.5,3.83333 C 485,303.4171 485.47008,304 489.16667,304 491.85802,304 492,303.77451 492,299.5 Z"
     id="path8" />
  <path
     style="fill:none;stroke:#000000;stroke-opacity:1"
     d="m 484,302.5 c 0,-1.31991 -8.94444,-1.5 -74.5,-1.5 -65.55556,0 -74.5,0.18009 -74.5,1.5 0,1.31991 8.94444,1.5 74.5,1.5 65.55556,0 74.5,-0.18009 74.5,-1.5 z"
     id="path7" />
  <path
     style="fill:none;stroke:#000000;stroke-opacity:1"
     d="M 333.8075,299.25 334.115,295 h -3.5575 c -3.55695,0 -3.5575,7.1e-4 -3.5575,4.56336 0,4.54601 0.0124,4.56217 3.25,4.25 3.05052,-0.29413 3.26887,-0.57421 3.5575,-4.56336 z"
     id="path6" />
  <path
     style="fill:none;stroke:#000000;stroke-opacity:1"
     d="m 325.5,300 v -3.5 L 251.75,296.24355 178,295.9871 V 300 304.0129 L 251.75,303.75645 325.5,303.5 Z"
     id="path5" />
  <path
     style="fill:none;stroke:#000000;stroke-opacity:1"
     d="m 176,299.5 c 0,-4.33333 -0.11111,-4.5 -3,-4.5 -2.88889,0 -3,0.16667 -3,4.5 0,4.33333 0.11111,4.5 3,4.5 2.88889,0 3,-0.16667 3,-4.5 z"
     id="path4" />
  <path
     style="fill:none;stroke:#000000;stroke-opacity:1"
     d="m 168,300 v -4 H 93.5 19 v 3.33333 c 0,1.83334 0.3,3.63334 0.666667,4 C 20.033333,303.7 53.558333,304 94.166667,304 H 168 Z"
     id="path3" />
  <path
     style="fill:none;stroke:#000000;stroke-opacity:1"
     d="M 18,299.5 C 18,295.02381 17.98148,295 14.5,295 11.108696,295 11,295.11905 11,298.83333 11,303.4171 11.470078,304 15.166667,304 17.858025,304 18,303.77451 18,299.5 Z"
     id="path2" />
</svg>
