<?xml version="1.0" encoding="UTF-8"?>
<!DOCTYPE svg PUBLIC "-//W3C//DTD SVG 1.1//EN" "http://www.w3.org/Graphics/SVG/1.1/DTD/svg11.dtd">
<svg xmlns="http://www.w3.org/2000/svg" version="1.1" width="1252px" height="604px" style="shape-rendering:geometricPrecision; text-rendering:geometricPrecision; image-rendering:optimizeQuality; fill-rule:evenodd; clip-rule:evenodd" xmlns:xlink="http://www.w3.org/1999/xlink">
<g><path style="opacity:1" fill="#fefefe" d="M -0.5,-0.5 C 416.833,-0.5 834.167,-0.5 1251.5,-0.5C 1251.5,200.833 1251.5,402.167 1251.5,603.5C 834.167,603.5 416.833,603.5 -0.5,603.5C -0.5,402.167 -0.5,200.833 -0.5,-0.5 Z"/></g>
<g><path style="opacity:1" fill="#222322" d="M 25.5,27.5 C 59.1733,27.1668 92.8399,27.5001 126.5,28.5C 93.5,29.1667 60.5,29.8333 27.5,30.5C 31.4454,31.4909 35.4454,31.8242 39.5,31.5C 39.5,36.1667 39.5,40.8333 39.5,45.5C 35.5,45.5 31.5,45.5 27.5,45.5C 27.5,80.1667 27.5,114.833 27.5,149.5C 25.5057,109.18 24.839,68.5137 25.5,27.5 Z"/></g>
<g><path style="opacity:1" fill="#222222" d="M 129.5,27.5 C 237.5,28.1667 237.5,28.8333 129.5,29.5C 129.5,28.8333 129.5,28.1667 129.5,27.5 Z"/></g>
<g><path style="opacity:1" fill="#212121" d="M 1095.5,27.5 C 1095.5,28.1667 1095.5,28.8333 1095.5,29.5C 987.5,28.8333 987.5,28.1667 1095.5,27.5 Z"/></g>
<g><path style="opacity:1" fill="#222222" d="M 1179.5,27.5 C 1179.5,28.1667 1179.5,28.8333 1179.5,29.5C 1071.5,28.8333 1071.5,28.1667 1179.5,27.5 Z"/></g>
<g><path style="opacity:1" fill="#272727" d="M 1181.5,27.5 C 1189.53,27.169 1197.53,27.5023 1205.5,28.5C 1201.5,28.8333 1197.5,29.1667 1193.5,29.5C 1189.11,29.4907 1185.11,28.824 1181.5,27.5 Z"/></g>
<g><path style="opacity:1" fill="#242424" d="M 794.5,27.5 C 825.167,28.1667 825.167,28.8333 794.5,29.5C 794.5,28.8333 794.5,28.1667 794.5,27.5 Z"/></g>
<g><path style="opacity:1" fill="#c6c6c6" d="M 25.5,27.5 C 59.3292,26.5017 93.3292,26.1683 127.5,26.5C 127.5,27.8333 127.5,29.1667 127.5,30.5C 97.9953,30.1686 68.6619,30.5019 39.5,31.5C 35.4454,31.8242 31.4454,31.4909 27.5,30.5C 60.5,29.8333 93.5,29.1667 126.5,28.5C 92.8399,27.5001 59.1733,27.1668 25.5,27.5 Z"/></g>
<g><path style="opacity:1" fill="#cfcfcf" d="M 129.5,27.5 C 156.662,26.5021 183.995,26.1688 211.5,26.5C 211.367,29.925 212.033,30.2583 213.5,27.5C 230.987,28.8329 248.821,29.4996 267,29.5C 285.179,29.4996 303.013,28.8329 320.5,27.5C 321.222,27.9175 321.722,28.5842 322,29.5C 322.278,28.5842 322.778,27.9175 323.5,27.5C 387.167,26.1667 450.833,26.1667 514.5,27.5C 542.627,26.1798 570.627,26.1798 598.5,27.5C 490.5,28.1667 490.5,28.8333 598.5,29.5C 599.167,30.8333 599.833,30.8333 600.5,29.5C 636.5,29.5 672.5,29.5 708.5,29.5C 709.167,30.8333 709.833,30.8333 710.5,29.5C 818.5,28.8333 818.5,28.1667 710.5,27.5C 737.662,26.5021 764.995,26.1688 792.5,26.5C 792.5,27.8333 792.5,29.1667 792.5,30.5C 778.323,30.1709 764.323,30.5042 750.5,31.5C 745.833,31.5 741.167,31.5 736.5,31.5C 731.5,30.1667 726.5,30.1667 721.5,31.5C 615.833,31.5 510.167,31.5 404.5,31.5C 361.693,30.5441 319.026,30.5441 276.5,31.5C 272.167,31.5 267.833,31.5 263.5,31.5C 218.97,31.2574 174.304,30.5907 129.5,29.5C 237.5,28.8333 237.5,28.1667 129.5,27.5 Z"/></g>
<g><path style="opacity:1" fill="#262626" d="M 708.5,29.5 C 672.5,29.5 636.5,29.5 600.5,29.5C 618.154,28.1671 636.154,27.5004 654.5,27.5C 672.846,27.5004 690.846,28.1671 708.5,29.5 Z"/></g>
<g><path style="opacity:1" fill="#262626" d="M 598.5,27.5 C 598.5,28.1667 598.5,28.8333 598.5,29.5C 490.5,28.8333 490.5,28.1667 598.5,27.5 Z"/></g>
<g><path style="opacity:1" fill="#262626" d="M 514.5,27.5 C 497.013,28.8329 479.179,29.4996 461,29.5C 443.167,29.1667 425.333,28.8333 407.5,28.5C 443.16,27.5001 478.827,27.1668 514.5,27.5 Z"/></g>
<g><path style="opacity:1" fill="#232323" d="M 710.5,27.5 C 818.5,28.1667 818.5,28.8333 710.5,29.5C 710.5,28.8333 710.5,28.1667 710.5,27.5 Z"/></g>
<g><path style="opacity:1" fill="#222222" d="M 323.5,27.5 C 350.508,27.1669 377.508,27.5002 404.5,28.5C 391,28.8333 377.5,29.1667 364,29.5C 350.15,29.4993 336.65,28.8326 323.5,27.5 Z"/></g>
<g><path style="opacity:1" fill="#222222" d="M 213.5,27.5 C 249.167,27.5 284.833,27.5 320.5,27.5C 303.013,28.8329 285.179,29.4996 267,29.5C 248.821,29.4996 230.987,28.8329 213.5,27.5 Z"/></g>
<g><path style="opacity:1" fill="#c6c6c6" d="M 794.5,27.5 C 803.352,26.3085 812.019,26.3085 820.5,27.5C 833.65,28.8326 847.15,29.4993 861,29.5C 874.85,29.4993 888.35,28.8326 901.5,27.5C 902.222,27.9175 902.722,28.5842 903,29.5C 903.278,28.5842 903.778,27.9175 904.5,27.5C 917.65,28.8326 931.15,29.4993 945,29.5C 958.85,29.4993 972.35,28.8326 985.5,27.5C 994.295,26.2115 1002.96,26.2115 1011.5,27.5C 1012.97,30.2583 1013.63,29.925 1013.5,26.5C 1041.01,26.1688 1068.34,26.5021 1095.5,27.5C 987.5,28.1667 987.5,28.8333 1095.5,29.5C 1059.69,30.3707 1024.02,31.0374 988.5,31.5C 983.833,31.5 979.167,31.5 974.5,31.5C 922.764,30.1676 870.931,30.1676 819,31.5C 810.735,30.847 802.568,30.1803 794.5,29.5C 825.167,28.8333 825.167,28.1667 794.5,27.5 Z"/></g>
<g><path style="opacity:1" fill="#222222" d="M 1011.5,27.5 C 1008.06,28.8232 1004.23,29.4898 1000,29.5C 996.167,29.1667 992.333,28.8333 988.5,28.5C 996.138,27.5025 1003.8,27.1692 1011.5,27.5 Z"/></g>
<g><path style="opacity:1" fill="#222222" d="M 904.5,27.5 C 931.5,27.5 958.5,27.5 985.5,27.5C 972.35,28.8326 958.85,29.4993 945,29.5C 931.15,29.4993 917.65,28.8326 904.5,27.5 Z"/></g>
<g><path style="opacity:1" fill="#222222" d="M 820.5,27.5 C 847.5,27.5 874.5,27.5 901.5,27.5C 888.35,28.8326 874.85,29.4993 861,29.5C 847.15,29.4993 833.65,28.8326 820.5,27.5 Z"/></g>
<g><path style="opacity:1" fill="#c4c4c4" d="M 1179.5,27.5 C 1071.5,28.1667 1071.5,28.8333 1179.5,29.5C 1152.34,30.4979 1125.01,30.8312 1097.5,30.5C 1097.5,29.1667 1097.5,27.8333 1097.5,26.5C 1125.01,26.1688 1152.34,26.5021 1179.5,27.5 Z"/></g>
<g><path style="opacity:1" fill="#494949" d="M 263.5,31.5 C 267.833,31.5 272.167,31.5 276.5,31.5C 277.833,36.1667 277.833,40.8333 276.5,45.5C 276.826,41.1161 276.492,36.7828 275.5,32.5C 274.893,32.6236 274.56,32.9569 274.5,33.5C 271.5,33.5 268.5,33.5 265.5,33.5C 265.44,32.9569 265.107,32.6236 264.5,32.5C 263.508,36.7828 263.174,41.1161 263.5,45.5C 262.167,40.8333 262.167,36.1667 263.5,31.5 Z"/></g>
<g><path style="opacity:1" fill="#4b4b4b" d="M 974.5,31.5 C 979.167,31.5 983.833,31.5 988.5,31.5C 988.819,36.3633 988.486,41.03 987.5,45.5C 987.826,41.1161 987.492,36.7828 986.5,32.5C 985.893,32.6236 985.56,32.9569 985.5,33.5C 982.5,33.5 979.5,33.5 976.5,33.5C 976.44,32.9569 976.107,32.6236 975.5,32.5C 974.508,36.7828 974.174,41.1161 974.5,45.5C 973.167,40.8333 973.167,36.1667 974.5,31.5 Z"/></g>
<g><path style="opacity:1" fill="#bfbfbf" d="M 27.5,33.5 C 30.8333,33.5 34.1667,33.5 37.5,33.5C 37.5,36.8333 37.5,40.1667 37.5,43.5C 34.1667,43.5 30.8333,43.5 27.5,43.5C 27.5,40.1667 27.5,36.8333 27.5,33.5 Z"/></g>
<g><path style="opacity:1" fill="#fdfdfd" d="M 28.5,34.5 C 31.1667,34.5 33.8333,34.5 36.5,34.5C 36.5,37.1667 36.5,39.8333 36.5,42.5C 33.8333,42.5 31.1667,42.5 28.5,42.5C 28.5,39.8333 28.5,37.1667 28.5,34.5 Z"/></g>
<g><path style="opacity:1" fill="#323232" d="M 404.5,31.5 C 510.167,31.5 615.833,31.5 721.5,31.5C 722.499,141.999 722.833,252.665 722.5,363.5C 722.167,363.5 721.833,363.5 721.5,363.5C 721.5,363.167 721.5,362.833 721.5,362.5C 721.833,252.498 721.5,142.498 720.5,32.5C 719.893,32.6236 719.56,32.9569 719.5,33.5C 651.167,33.5 582.833,33.5 514.5,33.5C 514.5,35.5 514.5,37.5 514.5,39.5C 581.167,39.5 647.833,39.5 714.5,39.5C 714.5,64.1667 714.5,88.8333 714.5,113.5C 709.833,113.5 705.167,113.5 700.5,113.5C 700.158,112.662 699.492,112.328 698.5,112.5C 698.5,112.167 698.5,111.833 698.5,111.5C 703.167,111.5 707.833,111.5 712.5,111.5C 712.5,88.1667 712.5,64.8333 712.5,41.5C 646.5,41.5 580.5,41.5 514.5,41.5C 514.5,42.8333 514.5,44.1667 514.5,45.5C 509.833,45.5 505.167,45.5 500.5,45.5C 500.5,44.1667 500.5,42.8333 500.5,41.5C 472.167,41.5 443.833,41.5 415.5,41.5C 415.44,40.9569 415.107,40.6236 414.5,40.5C 413.5,144.831 413.167,249.165 413.5,353.5C 412.501,249.001 412.167,144.335 412.5,39.5C 441.833,39.5 471.167,39.5 500.5,39.5C 500.5,37.5 500.5,35.5 500.5,33.5C 469.5,33.5 438.5,33.5 407.5,33.5C 407.44,32.9569 407.107,32.6236 406.5,32.5C 405.5,142.831 405.167,253.165 405.5,363.5C 404.501,253.001 404.167,142.335 404.5,31.5 Z"/></g>
<g><path style="opacity:1" fill="#f9f9f9" d="M 719.5,34.5 C 719.5,143.167 719.5,251.833 719.5,360.5C 689.5,360.5 659.5,360.5 629.5,360.5C 629.5,358.5 629.5,356.5 629.5,354.5C 636.687,354.825 643.687,354.491 650.5,353.5C 651.499,313.337 651.832,273.003 651.5,232.5C 654.167,232.5 656.833,232.5 659.5,232.5C 659.168,273.003 659.501,313.337 660.5,353.5C 677.167,353.5 693.833,353.5 710.5,353.5C 710.5,300.833 710.5,248.167 710.5,195.5C 693.833,195.5 677.167,195.5 660.5,195.5C 659.596,196.209 659.263,197.209 659.5,198.5C 656.833,198.5 654.167,198.5 651.5,198.5C 651.19,195.287 651.523,192.287 652.5,189.5C 673.167,189.5 693.833,189.5 714.5,189.5C 714.5,164.833 714.5,140.167 714.5,115.5C 709.833,115.5 705.167,115.5 700.5,115.5C 700.5,114.833 700.5,114.167 700.5,113.5C 705.167,113.5 709.833,113.5 714.5,113.5C 714.5,88.8333 714.5,64.1667 714.5,39.5C 648.335,38.5008 582.002,38.1675 515.5,38.5C 515.5,37.1667 515.5,35.8333 515.5,34.5C 583.5,34.5 651.5,34.5 719.5,34.5 Z"/></g>
<g><path style="opacity:1" fill="#fbfbfb" d="M 512.5,34.5 C 512.5,37.1667 512.5,39.8333 512.5,42.5C 509.5,42.5 506.5,42.5 503.5,42.5C 503.5,39.8333 503.5,37.1667 503.5,34.5C 506.5,34.5 509.5,34.5 512.5,34.5 Z"/></g>
<g><path style="opacity:1" fill="#eaeaea" d="M 407.5,33.5 C 438.5,33.5 469.5,33.5 500.5,33.5C 500.5,35.5 500.5,37.5 500.5,39.5C 471.167,39.5 441.833,39.5 412.5,39.5C 412.167,144.335 412.501,249.001 413.5,353.5C 419.833,353.5 426.167,353.5 432.5,353.5C 432.5,356.167 432.5,358.833 432.5,361.5C 423.833,361.5 415.167,361.5 406.5,361.5C 406.167,251.999 406.501,142.665 407.5,33.5 Z"/></g>
<g><path style="opacity:1" fill="#c4c4c4" d="M 719.5,33.5 C 719.5,33.8333 719.5,34.1667 719.5,34.5C 651.5,34.5 583.5,34.5 515.5,34.5C 515.5,35.8333 515.5,37.1667 515.5,38.5C 582.002,38.1675 648.335,38.5008 714.5,39.5C 647.833,39.5 581.167,39.5 514.5,39.5C 514.5,37.5 514.5,35.5 514.5,33.5C 582.833,33.5 651.167,33.5 719.5,33.5 Z"/></g>
<g><path style="opacity:1" fill="#b3b3b3" d="M 512.5,34.5 C 509.5,34.5 506.5,34.5 503.5,34.5C 503.5,37.1667 503.5,39.8333 503.5,42.5C 506.5,42.5 509.5,42.5 512.5,42.5C 509.375,43.4794 506.042,43.8128 502.5,43.5C 502.5,40.1667 502.5,36.8333 502.5,33.5C 506.042,33.1872 509.375,33.5206 512.5,34.5 Z"/></g>
<g><path style="opacity:1" fill="#c1c1c1" d="M 698.5,111.5 C 702.634,110.515 706.968,110.182 711.5,110.5C 711.5,87.8333 711.5,65.1667 711.5,42.5C 646.167,42.5 580.833,42.5 515.5,42.5C 515.5,43.5 515.5,44.5 515.5,45.5C 518.957,45.6672 519.29,46.6672 516.5,48.5C 511.204,46.9308 505.87,45.9308 500.5,45.5C 505.167,45.5 509.833,45.5 514.5,45.5C 514.5,44.1667 514.5,42.8333 514.5,41.5C 580.5,41.5 646.5,41.5 712.5,41.5C 712.5,64.8333 712.5,88.1667 712.5,111.5C 707.833,111.5 703.167,111.5 698.5,111.5 Z"/></g>
<g><path style="opacity:1" fill="#212121" d="M 265.5,33.5 C 265.5,36.5 265.5,39.5 265.5,42.5C 268.625,43.4794 271.958,43.8128 275.5,43.5C 275.813,39.9581 275.479,36.6248 274.5,33.5C 274.56,32.9569 274.893,32.6236 275.5,32.5C 276.492,36.7828 276.826,41.1161 276.5,45.5C 272.167,45.5 267.833,45.5 263.5,45.5C 263.174,41.1161 263.508,36.7828 264.5,32.5C 265.107,32.6236 265.44,32.9569 265.5,33.5 Z"/></g>
<g><path style="opacity:1" fill="#ababab" d="M 274.5,33.5 C 275.479,36.6248 275.813,39.9581 275.5,43.5C 271.958,43.8128 268.625,43.4794 265.5,42.5C 268.5,42.5 271.5,42.5 274.5,42.5C 274.5,39.5 274.5,36.5 274.5,33.5 Z"/></g>
<g><path style="opacity:1" fill="#f7f7f7" d="M 265.5,33.5 C 268.5,33.5 271.5,33.5 274.5,33.5C 274.5,36.5 274.5,39.5 274.5,42.5C 271.5,42.5 268.5,42.5 265.5,42.5C 265.5,39.5 265.5,36.5 265.5,33.5 Z"/></g>
<g><path style="opacity:1" fill="#222222" d="M 736.5,31.5 C 741.167,31.5 745.833,31.5 750.5,31.5C 750.5,36.1667 750.5,40.8333 750.5,45.5C 745.833,45.5 741.167,45.5 736.5,45.5C 736.5,40.8333 736.5,36.1667 736.5,31.5 Z"/></g>
<g><path style="opacity:1" fill="#c0c0c0" d="M 738.5,33.5 C 741.833,33.5 745.167,33.5 748.5,33.5C 748.5,36.8333 748.5,40.1667 748.5,43.5C 745.167,43.5 741.833,43.5 738.5,43.5C 738.5,40.1667 738.5,36.8333 738.5,33.5 Z"/></g>
<g><path style="opacity:1" fill="#fdfdfd" d="M 739.5,34.5 C 742.167,34.5 744.833,34.5 747.5,34.5C 747.5,37.1667 747.5,39.8333 747.5,42.5C 744.833,42.5 742.167,42.5 739.5,42.5C 739.5,39.8333 739.5,37.1667 739.5,34.5 Z"/></g>
<g><path style="opacity:1" fill="#1b1b1b" d="M 976.5,33.5 C 975.521,36.6248 975.187,39.9581 975.5,43.5C 979.167,43.5 982.833,43.5 986.5,43.5C 986.813,39.9581 986.479,36.6248 985.5,33.5C 985.56,32.9569 985.893,32.6236 986.5,32.5C 987.492,36.7828 987.826,41.1161 987.5,45.5C 983.167,45.5 978.833,45.5 974.5,45.5C 974.174,41.1161 974.508,36.7828 975.5,32.5C 976.107,32.6236 976.44,32.9569 976.5,33.5 Z"/></g>
<g><path style="opacity:1" fill="#969696" d="M 976.5,33.5 C 976.5,36.5 976.5,39.5 976.5,42.5C 979.5,42.5 982.5,42.5 985.5,42.5C 985.5,39.5 985.5,36.5 985.5,33.5C 986.479,36.6248 986.813,39.9581 986.5,43.5C 982.833,43.5 979.167,43.5 975.5,43.5C 975.187,39.9581 975.521,36.6248 976.5,33.5 Z"/></g>
<g><path style="opacity:1" fill="#f7f7f7" d="M 976.5,33.5 C 979.5,33.5 982.5,33.5 985.5,33.5C 985.5,36.5 985.5,39.5 985.5,42.5C 982.5,42.5 979.5,42.5 976.5,42.5C 976.5,39.5 976.5,36.5 976.5,33.5 Z"/></g>
<g><path style="opacity:1" fill="#242424" d="M 1223.5,149.5 C 1223.5,114.833 1223.5,80.1667 1223.5,45.5C 1219.5,45.5 1215.5,45.5 1211.5,45.5C 1211.5,40.8333 1211.5,36.1667 1211.5,31.5C 1215.55,31.8242 1219.55,31.4909 1223.5,30.5C 1218.17,29.8333 1212.83,29.1667 1207.5,28.5C 1213.46,27.5041 1219.46,27.1707 1225.5,27.5C 1226.16,68.5137 1225.49,109.18 1223.5,149.5 Z"/></g>
<g><path style="opacity:1" fill="#c1c1c1" d="M 1213.5,33.5 C 1216.83,33.5 1220.17,33.5 1223.5,33.5C 1223.5,36.8333 1223.5,40.1667 1223.5,43.5C 1220.17,43.5 1216.83,43.5 1213.5,43.5C 1213.5,40.1667 1213.5,36.8333 1213.5,33.5 Z"/></g>
<g><path style="opacity:1" fill="#fefefe" d="M 1214.5,34.5 C 1217.17,34.5 1219.83,34.5 1222.5,34.5C 1222.5,37.1667 1222.5,39.8333 1222.5,42.5C 1219.83,42.5 1217.17,42.5 1214.5,42.5C 1214.5,39.8333 1214.5,37.1667 1214.5,34.5 Z"/></g>
<g><path style="opacity:1" fill="#cbcbcb" d="M 1211.5,45.5 C 1215.5,45.5 1219.5,45.5 1223.5,45.5C 1223.5,80.1667 1223.5,114.833 1223.5,149.5C 1222.5,115.337 1222.17,81.0041 1222.5,46.5C 1218.63,46.815 1214.96,46.4816 1211.5,45.5 Z"/></g>
<g><path style="opacity:1" fill="#c6c6c6" d="M 39.5,45.5 C 36.0381,46.4816 32.3714,46.815 28.5,46.5C 28.8317,81.0041 28.4983,115.337 27.5,149.5C 27.5,114.833 27.5,80.1667 27.5,45.5C 31.5,45.5 35.5,45.5 39.5,45.5 Z"/></g>
<g><path style="opacity:1" fill="#8f908f" d="M 506.5,103.5 C 508.604,103.201 510.604,103.534 512.5,104.5C 511.047,107.298 510.047,110.298 509.5,113.5C 508.796,110.005 507.796,106.672 506.5,103.5 Z"/></g>
<g><path style="opacity:1" fill="#8d8d8d" d="M 513.5,101.5 C 514.5,101.5 515.5,101.5 516.5,101.5C 516.5,105.5 516.5,109.5 516.5,113.5C 515.325,113.719 514.325,113.386 513.5,112.5C 514.751,108.836 514.751,105.169 513.5,101.5 Z"/></g>
<g><path style="opacity:1" fill="#909090" d="M 489.5,103.5 C 494.544,103.173 499.544,103.506 504.5,104.5C 503.585,105.328 502.919,106.328 502.5,107.5C 503.754,109.334 504.421,111.334 504.5,113.5C 499.833,113.5 495.167,113.5 490.5,113.5C 490.658,110.098 490.324,106.764 489.5,103.5 Z"/></g>
<g><path style="opacity:1" fill="#8e8e8e" d="M 540.5,101.5 C 542.5,101.5 544.5,101.5 546.5,101.5C 546.5,105.5 546.5,109.5 546.5,113.5C 544.5,113.5 542.5,113.5 540.5,113.5C 540.5,109.5 540.5,105.5 540.5,101.5 Z"/></g>
<g><path style="opacity:1" fill="#f1f1f1" d="M 493.5,105.5 C 495.833,105.5 498.167,105.5 500.5,105.5C 500.056,110.653 497.39,112.32 492.5,110.5C 493.167,109.833 493.833,109.167 494.5,108.5C 493.873,107.583 493.539,106.583 493.5,105.5 Z"/></g>
<g><path style="opacity:1" fill="#9c9d9d" d="M 480.5,103.5 C 481.5,103.5 482.5,103.5 483.5,103.5C 483.377,106.588 484.377,109.255 486.5,111.5C 486.167,112.167 485.833,112.833 485.5,113.5C 482.757,110.68 481.09,107.347 480.5,103.5 Z"/></g>
<g><path style="opacity:1" fill="#e0e0e0" d="M 542.5,103.5 C 543.748,104.334 544.415,105.667 544.5,107.5C 544.167,108.833 543.833,110.167 543.5,111.5C 542.52,108.914 542.187,106.247 542.5,103.5 Z"/></g>
<g><path style="opacity:1" fill="#8d8d8d" d="M 518.5,101.5 C 520.492,101.328 522.158,101.995 523.5,103.5C 524.167,102.833 524.833,102.167 525.5,101.5C 526.487,104.768 526.82,108.102 526.5,111.5C 523.833,112.167 521.167,112.833 518.5,113.5C 518.5,109.5 518.5,105.5 518.5,101.5 Z"/></g>
<g><path style="opacity:1" fill="#8f8f8f" d="M 530.5,101.5 C 531.833,101.5 533.167,101.5 534.5,101.5C 534.5,104.833 534.5,108.167 534.5,111.5C 535.978,111.238 537.311,111.571 538.5,112.5C 535.932,113.868 533.599,113.534 531.5,111.5C 530.513,108.232 530.18,104.898 530.5,101.5 Z"/></g>
<g><path style="opacity:1" fill="#121212" d="M 663.5,113.5 C 664.209,112.596 665.209,112.263 666.5,112.5C 677.167,113.833 687.833,113.833 698.5,112.5C 699.492,112.328 700.158,112.662 700.5,113.5C 700.5,114.167 700.5,114.833 700.5,115.5C 688.5,116.833 676.5,116.833 664.5,115.5C 664.672,114.508 664.338,113.842 663.5,113.5 Z"/></g>
<g><path style="opacity:1" fill="#cecece" d="M 542.5,129.5 C 538.218,127.865 534.885,125.532 532.5,122.5C 535.069,117.275 538.736,116.275 543.5,119.5C 543.511,121.547 543.844,123.547 544.5,125.5C 544.332,127.171 543.665,128.504 542.5,129.5 Z"/></g>
<g><path style="opacity:1" fill="#959695" d="M 497.5,117.5 C 499.167,117.5 500.833,117.5 502.5,117.5C 502.466,121.63 501.799,125.63 500.5,129.5C 499.325,129.719 498.325,129.386 497.5,128.5C 498.59,127.391 498.59,126.391 497.5,125.5C 496.033,126.695 494.533,126.695 493,125.5C 492.5,125.833 492,126.167 491.5,126.5C 492.5,127.167 493.5,127.833 494.5,128.5C 493.167,129.833 491.833,129.833 490.5,128.5C 489.189,127.742 488.689,126.742 489,125.5C 490.444,123.845 492.278,123.178 494.5,123.5C 494.455,120.923 495.455,118.923 497.5,117.5 Z"/></g>
<g><path style="opacity:1" fill="#8d8d8d" d="M 518.5,123.5 C 514.509,122.872 513.176,124.205 514.5,127.5C 513.244,127.904 512.077,128.571 511,129.5C 510.5,129.167 510,128.833 509.5,128.5C 510.833,125.167 510.833,121.833 509.5,118.5C 513.167,117.167 516.833,117.167 520.5,118.5C 518.5,119.167 516.5,119.833 514.5,120.5C 516.332,121.057 517.665,122.057 518.5,123.5 Z"/></g>
<g><path style="opacity:1" fill="#888888" d="M 506.5,119.5 C 507.748,120.334 508.415,121.667 508.5,123.5C 508.387,125.974 507.387,127.974 505.5,129.5C 505.167,128.833 504.833,128.167 504.5,127.5C 505.992,125.028 506.658,122.361 506.5,119.5 Z"/></g>
<g><path style="opacity:1" fill="#909090" d="M 532.5,122.5 C 534.885,125.532 538.218,127.865 542.5,129.5C 539.167,129.5 535.833,129.5 532.5,129.5C 531.996,125.665 530.996,125.665 529.5,129.5C 528.167,126.833 528.167,124.167 529.5,121.5C 530.167,122.167 530.833,122.833 531.5,123.5C 532.107,123.376 532.44,123.043 532.5,122.5 Z"/></g>
<g><path style="opacity:1" fill="#c8c8c8" d="M 518.5,123.5 C 519.586,123.62 520.253,124.287 520.5,125.5C 519.453,127.056 518.786,128.723 518.5,130.5C 517.167,130.5 515.833,130.5 514.5,130.5C 514.5,129.5 514.5,128.5 514.5,127.5C 513.176,124.205 514.509,122.872 518.5,123.5 Z"/></g>
<g><path style="opacity:1" fill="#2e2e2e" d="M 664.5,115.5 C 676.5,116.833 688.5,116.833 700.5,115.5C 705.167,115.5 709.833,115.5 714.5,115.5C 714.5,140.167 714.5,164.833 714.5,189.5C 693.833,189.5 673.167,189.5 652.5,189.5C 652.5,164.833 652.5,140.167 652.5,115.5C 656.5,115.5 660.5,115.5 664.5,115.5 Z"/></g>
<g><path style="opacity:1" fill="#111111" d="M 654.5,119.5 C 655.833,120.167 657.167,120.833 658.5,121.5C 658.5,138.167 658.5,154.833 658.5,171.5C 674.5,171.5 690.5,171.5 706.5,171.5C 706.83,154.658 706.497,137.992 705.5,121.5C 706.568,120.566 707.901,120.232 709.5,120.5C 709.5,141.833 709.5,163.167 709.5,184.5C 690.992,184.17 672.659,184.503 654.5,185.5C 653.167,163.5 653.167,141.5 654.5,119.5 Z"/></g>
<g><path style="opacity:1" fill="#272727" d="M 654.5,119.5 C 672.833,119.5 691.167,119.5 709.5,119.5C 709.5,119.833 709.5,120.167 709.5,120.5C 707.901,120.232 706.568,120.566 705.5,121.5C 689.833,121.5 674.167,121.5 658.5,121.5C 657.167,120.833 655.833,120.167 654.5,119.5 Z"/></g>
<g><path style="opacity:1" fill="#474747" d="M 709.5,119.5 C 710.497,141.327 710.831,163.327 710.5,185.5C 691.833,185.5 673.167,185.5 654.5,185.5C 672.659,184.503 690.992,184.17 709.5,184.5C 709.5,163.167 709.5,141.833 709.5,120.5C 709.5,120.167 709.5,119.833 709.5,119.5 Z"/></g>
<g><path style="opacity:1" fill="#d7d7d7" d="M 663.5,113.5 C 664.338,113.842 664.672,114.508 664.5,115.5C 660.5,115.5 656.5,115.5 652.5,115.5C 652.5,140.167 652.5,164.833 652.5,189.5C 651.523,192.287 651.19,195.287 651.5,198.5C 654.167,198.5 656.833,198.5 659.5,198.5C 659.263,197.209 659.596,196.209 660.5,195.5C 660.5,196.833 660.5,198.167 660.5,199.5C 657.167,199.5 653.833,199.5 650.5,199.5C 650.5,170.833 650.5,142.167 650.5,113.5C 654.833,113.5 659.167,113.5 663.5,113.5 Z"/></g>
<g><path style="opacity:1" fill="#222222" d="M 25.5,151.5 C 26.8329,169.154 27.4996,187.154 27.5,205.5C 27.1667,223.5 26.8333,241.5 26.5,259.5C 25.5001,223.506 25.1668,187.506 25.5,151.5 Z"/></g>
<g><path style="opacity:1" fill="#242424" d="M 1223.5,151.5 C 1224.83,169.154 1225.5,187.154 1225.5,205.5C 1225.17,223.5 1224.83,241.5 1224.5,259.5C 1223.5,223.506 1223.17,187.506 1223.5,151.5 Z"/></g>
<g><path style="opacity:1" fill="#c4c5c4" d="M 648.5,111.5 C 648.5,130.167 648.5,148.833 648.5,167.5C 599.167,167.5 549.833,167.5 500.5,167.5C 549.33,166.501 598.33,166.168 647.5,166.5C 647.17,147.992 647.503,129.659 648.5,111.5 Z"/></g>
<g><path style="opacity:1" fill="#c7c7c7" d="M 658.5,121.5 C 674.167,121.5 689.833,121.5 705.5,121.5C 706.497,137.992 706.83,154.658 706.5,171.5C 690.5,171.5 674.5,171.5 658.5,171.5C 658.5,154.833 658.5,138.167 658.5,121.5 Z"/></g>
<g><path style="opacity:1" fill="#fefefe" d="M 659.5,122.5 C 674.833,122.5 690.167,122.5 705.5,122.5C 705.5,138.5 705.5,154.5 705.5,170.5C 690.167,170.5 674.833,170.5 659.5,170.5C 659.5,154.5 659.5,138.5 659.5,122.5 Z"/></g>
<g><path style="opacity:1" fill="#d9d9d9" d="M 658.5,179.5 C 674.514,179.167 690.514,179.501 706.5,180.5C 698.5,180.833 690.5,181.167 682.5,181.5C 674.138,181.498 666.138,180.831 658.5,179.5 Z"/></g>
<g><path style="opacity:1" fill="#d4d4d4" d="M 654.5,185.5 C 673.167,185.5 691.833,185.5 710.5,185.5C 710.831,163.327 710.497,141.327 709.5,119.5C 691.167,119.5 672.833,119.5 654.5,119.5C 673.471,117.512 692.804,116.846 712.5,117.5C 712.5,140.833 712.5,164.167 712.5,187.5C 692.804,188.154 673.471,187.488 654.5,185.5 Z"/></g>
<g><path style="opacity:1" fill="#121213" d="M 719.5,33.5 C 719.56,32.9569 719.893,32.6236 720.5,32.5C 721.5,142.498 721.833,252.498 721.5,362.5C 720.508,362.672 719.842,362.338 719.5,361.5C 720.833,252.167 720.833,142.833 719.5,33.5 Z"/></g>
<g><path style="opacity:1" fill="#222222" d="M 648.5,111.5 C 654.69,111.177 660.69,111.51 666.5,112.5C 665.209,112.263 664.209,112.596 663.5,113.5C 659.167,113.5 654.833,113.5 650.5,113.5C 650.5,142.167 650.5,170.833 650.5,199.5C 653.833,199.5 657.167,199.5 660.5,199.5C 660.5,198.167 660.5,196.833 660.5,195.5C 677.167,195.5 693.833,195.5 710.5,195.5C 710.5,248.167 710.5,300.833 710.5,353.5C 693.833,353.5 677.167,353.5 660.5,353.5C 660.5,312.833 660.5,272.167 660.5,231.5C 657.167,231.5 653.833,231.5 650.5,231.5C 650.5,272.167 650.5,312.833 650.5,353.5C 643.833,353.5 637.167,353.5 630.5,353.5C 630.5,352.833 630.5,352.167 630.5,351.5C 636.537,351.829 642.537,351.496 648.5,350.5C 603.505,349.5 558.505,349.167 513.5,349.5C 513.5,348.833 513.5,348.167 513.5,347.5C 558.5,347.5 603.5,347.5 648.5,347.5C 648.5,318.833 648.5,290.167 648.5,261.5C 638.5,261.5 628.5,261.5 618.5,261.5C 618.5,275.5 618.5,289.5 618.5,303.5C 606.988,303.172 595.654,303.505 584.5,304.5C 577.487,303.267 570.487,303.267 563.5,304.5C 562.609,303.89 561.609,303.557 560.5,303.5C 558.5,303.5 556.5,303.5 554.5,303.5C 551.167,303.5 547.833,303.5 544.5,303.5C 544.5,289.5 544.5,275.5 544.5,261.5C 534.167,261.5 523.833,261.5 513.5,261.5C 513.5,260.833 513.5,260.167 513.5,259.5C 523.833,259.5 534.167,259.5 544.5,259.5C 544.5,256.167 544.5,252.833 544.5,249.5C 534.167,249.5 523.833,249.5 513.5,249.5C 513.5,248.833 513.5,248.167 513.5,247.5C 524.014,247.828 534.347,247.494 544.5,246.5C 544.5,244.5 544.5,242.5 544.5,240.5C 534.347,239.506 524.014,239.172 513.5,239.5C 513.5,238.833 513.5,238.167 513.5,237.5C 523.833,237.5 534.167,237.5 544.5,237.5C 544.5,234.833 544.5,232.167 544.5,229.5C 534.167,229.5 523.833,229.5 513.5,229.5C 513.5,228.833 513.5,228.167 513.5,227.5C 523.833,227.5 534.167,227.5 544.5,227.5C 544.5,224.833 544.5,222.167 544.5,219.5C 534.167,219.5 523.833,219.5 513.5,219.5C 513.5,218.833 513.5,218.167 513.5,217.5C 523.833,217.5 534.167,217.5 544.5,217.5C 544.5,214.833 544.5,212.167 544.5,209.5C 534.167,209.5 523.833,209.5 513.5,209.5C 513.5,208.833 513.5,208.167 513.5,207.5C 523.833,207.5 534.167,207.5 544.5,207.5C 544.5,204.833 544.5,202.167 544.5,199.5C 534.167,199.5 523.833,199.5 513.5,199.5C 513.5,198.833 513.5,198.167 513.5,197.5C 523.833,197.5 534.167,197.5 544.5,197.5C 544.5,194.833 544.5,192.167 544.5,189.5C 534.167,189.5 523.833,189.5 513.5,189.5C 513.5,188.833 513.5,188.167 513.5,187.5C 524.014,187.828 534.347,187.494 544.5,186.5C 544.5,186.167 544.5,185.833 544.5,185.5C 544.5,183.5 544.5,181.5 544.5,179.5C 534.167,179.5 523.833,179.5 513.5,179.5C 513.5,178.833 513.5,178.167 513.5,177.5C 523.833,177.5 534.167,177.5 544.5,177.5C 544.5,174.833 544.5,172.167 544.5,169.5C 534.167,169.5 523.833,169.5 513.5,169.5C 512.5,168.167 511.5,168.167 510.5,169.5C 508.167,169.5 505.833,169.5 503.5,169.5C 503.44,168.957 503.107,168.624 502.5,168.5C 501.833,229.665 501.167,290.665 500.5,351.5C 500.5,351.167 500.5,350.833 500.5,350.5C 500.5,289.5 500.5,228.5 500.5,167.5C 549.833,167.5 599.167,167.5 648.5,167.5C 648.5,148.833 648.5,130.167 648.5,111.5 Z"/></g>
<g><path style="opacity:1" fill="#c1c1c2" d="M 618.5,189.5 C 628.5,189.5 638.5,189.5 648.5,189.5C 648.5,192.167 648.5,194.833 648.5,197.5C 638.5,197.5 628.5,197.5 618.5,197.5C 618.5,194.833 618.5,192.167 618.5,189.5 Z"/></g>
<g><path style="opacity:1" fill="#c3c3c3" d="M 582.5,189.5 C 593.833,189.5 605.167,189.5 616.5,189.5C 616.5,192.167 616.5,194.833 616.5,197.5C 605.167,197.5 593.833,197.5 582.5,197.5C 582.5,194.833 582.5,192.167 582.5,189.5 Z"/></g>
<g><path style="opacity:1" fill="#c0c0c0" d="M 546.5,189.5 C 557.167,189.5 567.833,189.5 578.5,189.5C 578.5,192.167 578.5,194.833 578.5,197.5C 567.833,197.5 557.167,197.5 546.5,197.5C 546.5,194.833 546.5,192.167 546.5,189.5 Z"/></g>
<g><path style="opacity:1" fill="#c1c1c1" d="M 513.5,189.5 C 523.833,189.5 534.167,189.5 544.5,189.5C 544.5,192.167 544.5,194.833 544.5,197.5C 534.167,197.5 523.833,197.5 513.5,197.5C 512.167,194.833 512.167,192.167 513.5,189.5 Z"/></g>
<g><path style="opacity:1" fill="#fdfdfd" d="M 619.5,190.5 C 628.833,190.5 638.167,190.5 647.5,190.5C 647.5,192.5 647.5,194.5 647.5,196.5C 638.167,196.5 628.833,196.5 619.5,196.5C 619.5,194.5 619.5,192.5 619.5,190.5 Z"/></g>
<g><path style="opacity:1" fill="#fefefe" d="M 583.5,190.5 C 594.167,190.5 604.833,190.5 615.5,190.5C 615.5,192.5 615.5,194.5 615.5,196.5C 604.833,196.5 594.167,196.5 583.5,196.5C 583.5,194.5 583.5,192.5 583.5,190.5 Z"/></g>
<g><path style="opacity:1" fill="#fefefe" d="M 547.5,190.5 C 557.5,190.5 567.5,190.5 577.5,190.5C 577.5,192.5 577.5,194.5 577.5,196.5C 567.5,196.5 557.5,196.5 547.5,196.5C 547.5,194.5 547.5,192.5 547.5,190.5 Z"/></g>
<g><path style="opacity:1" fill="#fefefe" d="M 513.5,190.5 C 523.5,190.5 533.5,190.5 543.5,190.5C 543.5,192.5 543.5,194.5 543.5,196.5C 533.5,196.5 523.5,196.5 513.5,196.5C 513.5,194.5 513.5,192.5 513.5,190.5 Z"/></g>
<g><path style="opacity:1" fill="#c5c5c5" d="M 582.5,179.5 C 593.833,179.5 605.167,179.5 616.5,179.5C 616.5,182.167 616.5,184.833 616.5,187.5C 605.167,187.5 593.833,187.5 582.5,187.5C 582.5,184.833 582.5,182.167 582.5,179.5 Z"/></g>
<g><path style="opacity:1" fill="#c1c1c1" d="M 546.5,179.5 C 557.167,179.5 567.833,179.5 578.5,179.5C 578.5,182.167 578.5,184.833 578.5,187.5C 567.833,187.5 557.167,187.5 546.5,187.5C 546.5,184.833 546.5,182.167 546.5,179.5 Z"/></g>
<g><path style="opacity:1" fill="#c0c0c0" d="M 513.5,179.5 C 523.833,179.5 534.167,179.5 544.5,179.5C 544.5,181.5 544.5,183.5 544.5,185.5C 543.549,184.081 543.216,182.415 543.5,180.5C 533.5,180.5 523.5,180.5 513.5,180.5C 513.5,182.5 513.5,184.5 513.5,186.5C 523.833,186.5 534.167,186.5 544.5,186.5C 534.347,187.494 524.014,187.828 513.5,187.5C 512.167,184.833 512.167,182.167 513.5,179.5 Z"/></g>
<g><path style="opacity:1" fill="#fefefe" d="M 583.5,180.5 C 594.167,180.5 604.833,180.5 615.5,180.5C 615.5,182.5 615.5,184.5 615.5,186.5C 604.833,186.5 594.167,186.5 583.5,186.5C 583.5,184.5 583.5,182.5 583.5,180.5 Z"/></g>
<g><path style="opacity:1" fill="#fefefe" d="M 547.5,180.5 C 557.5,180.5 567.5,180.5 577.5,180.5C 577.5,182.5 577.5,184.5 577.5,186.5C 567.5,186.5 557.5,186.5 547.5,186.5C 547.5,184.5 547.5,182.5 547.5,180.5 Z"/></g>
<g><path style="opacity:1" fill="#fefefe" d="M 544.5,185.5 C 544.5,185.833 544.5,186.167 544.5,186.5C 534.167,186.5 523.833,186.5 513.5,186.5C 513.5,184.5 513.5,182.5 513.5,180.5C 523.5,180.5 533.5,180.5 543.5,180.5C 543.216,182.415 543.549,184.081 544.5,185.5 Z"/></g>
<g><path style="opacity:1" fill="#c2c2c2" d="M 618.5,179.5 C 628.5,179.5 638.5,179.5 648.5,179.5C 648.5,182.167 648.5,184.833 648.5,187.5C 638.5,187.5 628.5,187.5 618.5,187.5C 618.5,184.833 618.5,182.167 618.5,179.5 Z"/></g>
<g><path style="opacity:1" fill="#fefefe" d="M 619.5,180.5 C 628.833,180.5 638.167,180.5 647.5,180.5C 647.5,182.5 647.5,184.5 647.5,186.5C 638.167,186.5 628.833,186.5 619.5,186.5C 619.5,184.5 619.5,182.5 619.5,180.5 Z"/></g>
<g><path style="opacity:1" fill="#c1c1c1" d="M 619.5,173.5 C 619.5,174.5 619.5,175.5 619.5,176.5C 628.833,176.5 638.167,176.5 647.5,176.5C 647.5,174.5 647.5,172.5 647.5,170.5C 638.318,170.173 629.318,170.507 620.5,171.5C 619.624,171.631 618.957,171.298 618.5,170.5C 628.478,169.501 638.478,169.168 648.5,169.5C 648.5,172.167 648.5,174.833 648.5,177.5C 638.5,177.5 628.5,177.5 618.5,177.5C 618.232,175.901 618.566,174.568 619.5,173.5 Z"/></g>
<g><path style="opacity:1" fill="#c2c2c2" d="M 546.5,169.5 C 557.167,169.5 567.833,169.5 578.5,169.5C 578.5,172.167 578.5,174.833 578.5,177.5C 567.833,177.5 557.167,177.5 546.5,177.5C 546.5,174.833 546.5,172.167 546.5,169.5 Z"/></g>
<g><path style="opacity:1" fill="#c1c1c1" d="M 513.5,169.5 C 523.833,169.5 534.167,169.5 544.5,169.5C 544.5,172.167 544.5,174.833 544.5,177.5C 534.167,177.5 523.833,177.5 513.5,177.5C 512.167,174.833 512.167,172.167 513.5,169.5 Z"/></g>
<g><path style="opacity:1" fill="#fdfdfd" d="M 619.5,173.5 C 620.338,173.158 620.672,172.492 620.5,171.5C 629.318,170.507 638.318,170.173 647.5,170.5C 647.5,172.5 647.5,174.5 647.5,176.5C 638.167,176.5 628.833,176.5 619.5,176.5C 619.5,175.5 619.5,174.5 619.5,173.5 Z"/></g>
<g><path style="opacity:1" fill="#fbfbfb" d="M 612.5,169.5 C 613.833,169.5 614.5,170.167 614.5,171.5C 611.833,172.167 611.833,172.833 614.5,173.5C 615.404,174.209 615.737,175.209 615.5,176.5C 604.833,176.5 594.167,176.5 583.5,176.5C 583.5,174.5 583.5,172.5 583.5,170.5C 593.348,170.827 603.014,170.494 612.5,169.5 Z"/></g>
<g><path style="opacity:1" fill="#fefefe" d="M 547.5,170.5 C 557.5,170.5 567.5,170.5 577.5,170.5C 577.5,172.5 577.5,174.5 577.5,176.5C 567.5,176.5 557.5,176.5 547.5,176.5C 547.5,174.5 547.5,172.5 547.5,170.5 Z"/></g>
<g><path style="opacity:1" fill="#fefefe" d="M 513.5,170.5 C 523.5,170.5 533.5,170.5 543.5,170.5C 543.5,172.5 543.5,174.5 543.5,176.5C 533.5,176.5 523.5,176.5 513.5,176.5C 513.5,174.5 513.5,172.5 513.5,170.5 Z"/></g>
<g><path style="opacity:1" fill="#c4c4c4" d="M 612.5,169.5 C 603.014,170.494 593.348,170.827 583.5,170.5C 583.5,172.5 583.5,174.5 583.5,176.5C 594.167,176.5 604.833,176.5 615.5,176.5C 615.737,175.209 615.404,174.209 614.5,173.5C 614.5,172.833 614.5,172.167 614.5,171.5C 616.308,172.918 616.975,174.918 616.5,177.5C 605.167,177.5 593.833,177.5 582.5,177.5C 582.5,174.833 582.5,172.167 582.5,169.5C 592.5,169.5 602.5,169.5 612.5,169.5 Z"/></g>
<g><path style="opacity:1" fill="#414141" d="M 614.5,171.5 C 614.5,172.167 614.5,172.833 614.5,173.5C 611.833,172.833 611.833,172.167 614.5,171.5 Z"/></g>
<g><path style="opacity:1" fill="#fdfdfd" d="M 684.5,197.5 C 691.982,198.492 699.648,198.825 707.5,198.5C 707.5,249.167 707.5,299.833 707.5,350.5C 692.833,350.5 678.167,350.5 663.5,350.5C 663.832,309.997 663.499,269.663 662.5,229.5C 661.167,229.5 660.5,228.833 660.5,227.5C 663.698,228.036 666.365,227.369 668.5,225.5C 670.483,225.843 671.817,225.176 672.5,223.5C 675.167,222.167 677.167,220.167 678.5,217.5C 680.176,216.817 680.843,215.483 680.5,213.5C 682.369,211.365 683.036,208.698 682.5,205.5C 684.308,204.082 684.975,202.082 684.5,199.5C 655.167,198.833 655.167,198.167 684.5,197.5 Z"/></g>
<g><path style="opacity:1" fill="#f5f5f5" d="M 656.5,202.5 C 665.381,202.845 674.048,203.845 682.5,205.5C 680.631,207.635 679.964,210.302 680.5,213.5C 678.824,214.183 678.157,215.517 678.5,217.5C 675.5,218.5 673.5,220.5 672.5,223.5C 670.517,223.157 669.183,223.824 668.5,225.5C 665.302,224.964 662.635,225.631 660.5,227.5C 657.212,227.073 654.212,227.74 651.5,229.5C 650.702,229.043 650.369,228.376 650.5,227.5C 651.493,219.35 651.826,211.017 651.5,202.5C 653.167,202.5 654.833,202.5 656.5,202.5 Z"/></g>
<g><path style="opacity:1" fill="#242424" d="M 694.5,203.5 C 698.226,203.177 701.893,203.511 705.5,204.5C 703.667,204.833 701.833,205.167 700,205.5C 697.705,205.453 695.871,204.787 694.5,203.5 Z"/></g>
<g><path style="opacity:1" fill="#c0c0c0" d="M 513.5,199.5 C 523.833,199.5 534.167,199.5 544.5,199.5C 544.5,202.167 544.5,204.833 544.5,207.5C 534.167,207.5 523.833,207.5 513.5,207.5C 512.167,204.833 512.167,202.167 513.5,199.5 Z"/></g>
<g><path style="opacity:1" fill="#fefefe" d="M 513.5,200.5 C 523.5,200.5 533.5,200.5 543.5,200.5C 543.5,202.5 543.5,204.5 543.5,206.5C 533.5,206.5 523.5,206.5 513.5,206.5C 513.5,204.5 513.5,202.5 513.5,200.5 Z"/></g>
<g><path style="opacity:1" fill="#c2c2c2" d="M 546.5,199.5 C 557.167,199.5 567.833,199.5 578.5,199.5C 578.5,202.167 578.5,204.833 578.5,207.5C 567.833,207.5 557.167,207.5 546.5,207.5C 546.5,204.833 546.5,202.167 546.5,199.5 Z"/></g>
<g><path style="opacity:1" fill="#fefefe" d="M 547.5,200.5 C 557.5,200.5 567.5,200.5 577.5,200.5C 577.5,202.5 577.5,204.5 577.5,206.5C 567.5,206.5 557.5,206.5 547.5,206.5C 547.5,204.5 547.5,202.5 547.5,200.5 Z"/></g>
<g><path style="opacity:1" fill="#c3c3c3" d="M 582.5,199.5 C 593.833,199.5 605.167,199.5 616.5,199.5C 616.5,202.167 616.5,204.833 616.5,207.5C 605.167,207.5 593.833,207.5 582.5,207.5C 582.5,204.833 582.5,202.167 582.5,199.5 Z"/></g>
<g><path style="opacity:1" fill="#fefefe" d="M 583.5,200.5 C 594.167,200.5 604.833,200.5 615.5,200.5C 615.5,202.5 615.5,204.5 615.5,206.5C 604.833,206.5 594.167,206.5 583.5,206.5C 583.5,204.5 583.5,202.5 583.5,200.5 Z"/></g>
<g><path style="opacity:1" fill="#c2c2c2" d="M 618.5,199.5 C 628.5,199.5 638.5,199.5 648.5,199.5C 648.5,202.167 648.5,204.833 648.5,207.5C 638.5,207.5 628.5,207.5 618.5,207.5C 618.5,204.833 618.5,202.167 618.5,199.5 Z"/></g>
<g><path style="opacity:1" fill="#fefefe" d="M 619.5,200.5 C 628.833,200.5 638.167,200.5 647.5,200.5C 647.5,202.5 647.5,204.5 647.5,206.5C 638.167,206.5 628.833,206.5 619.5,206.5C 619.5,204.5 619.5,202.5 619.5,200.5 Z"/></g>
<g><path style="opacity:1" fill="#272727" d="M 682.5,205.5 C 683.036,208.698 682.369,211.365 680.5,213.5C 679.964,210.302 680.631,207.635 682.5,205.5 Z"/></g>
<g><path style="opacity:1" fill="#b3b3b3" d="M 684.5,197.5 C 692.5,197.5 700.5,197.5 708.5,197.5C 708.832,249.003 708.499,300.336 707.5,351.5C 707.5,351.167 707.5,350.833 707.5,350.5C 707.5,299.833 707.5,249.167 707.5,198.5C 699.648,198.825 691.982,198.492 684.5,197.5 Z"/></g>
<g><path style="opacity:1" fill="#c6c5c5" d="M 656.5,202.5 C 654.833,202.5 653.167,202.5 651.5,202.5C 651.826,211.017 651.493,219.35 650.5,227.5C 650.5,218.833 650.5,210.167 650.5,201.5C 652.735,201.205 654.735,201.539 656.5,202.5 Z"/></g>
<g><path style="opacity:1" fill="#303030" d="M 680.5,213.5 C 680.843,215.483 680.176,216.817 678.5,217.5C 678.157,215.517 678.824,214.183 680.5,213.5 Z"/></g>
<g><path style="opacity:1" fill="#c4c4c4" d="M 513.5,209.5 C 523.833,209.5 534.167,209.5 544.5,209.5C 544.5,212.167 544.5,214.833 544.5,217.5C 534.167,217.5 523.833,217.5 513.5,217.5C 512.167,214.833 512.167,212.167 513.5,209.5 Z"/></g>
<g><path style="opacity:1" fill="#fefefe" d="M 513.5,210.5 C 523.5,210.5 533.5,210.5 543.5,210.5C 543.5,212.5 543.5,214.5 543.5,216.5C 533.5,216.5 523.5,216.5 513.5,216.5C 513.5,214.5 513.5,212.5 513.5,210.5 Z"/></g>
<g><path style="opacity:1" fill="#c3c3c3" d="M 546.5,209.5 C 557.167,209.5 567.833,209.5 578.5,209.5C 578.5,212.167 578.5,214.833 578.5,217.5C 567.833,217.5 557.167,217.5 546.5,217.5C 546.5,214.833 546.5,212.167 546.5,209.5 Z"/></g>
<g><path style="opacity:1" fill="#fefefe" d="M 547.5,210.5 C 557.5,210.5 567.5,210.5 577.5,210.5C 577.5,212.5 577.5,214.5 577.5,216.5C 567.5,216.5 557.5,216.5 547.5,216.5C 547.5,214.5 547.5,212.5 547.5,210.5 Z"/></g>
<g><path style="opacity:1" fill="#c4c4c4" d="M 582.5,209.5 C 593.833,209.5 605.167,209.5 616.5,209.5C 616.5,212.167 616.5,214.833 616.5,217.5C 605.167,217.5 593.833,217.5 582.5,217.5C 582.5,214.833 582.5,212.167 582.5,209.5 Z"/></g>
<g><path style="opacity:1" fill="#fefefe" d="M 583.5,210.5 C 594.167,210.5 604.833,210.5 615.5,210.5C 615.5,212.5 615.5,214.5 615.5,216.5C 604.833,216.5 594.167,216.5 583.5,216.5C 583.5,214.5 583.5,212.5 583.5,210.5 Z"/></g>
<g><path style="opacity:1" fill="#c3c3c2" d="M 618.5,209.5 C 628.5,209.5 638.5,209.5 648.5,209.5C 648.5,212.167 648.5,214.833 648.5,217.5C 638.5,217.5 628.5,217.5 618.5,217.5C 618.5,214.833 618.5,212.167 618.5,209.5 Z"/></g>
<g><path style="opacity:1" fill="#fdfdfd" d="M 619.5,210.5 C 628.833,210.5 638.167,210.5 647.5,210.5C 647.5,212.5 647.5,214.5 647.5,216.5C 638.167,216.5 628.833,216.5 619.5,216.5C 619.5,214.5 619.5,212.5 619.5,210.5 Z"/></g>
<g><path style="opacity:1" fill="#4d4c4c" d="M 678.5,217.5 C 677.167,220.167 675.167,222.167 672.5,223.5C 673.5,220.5 675.5,218.5 678.5,217.5 Z"/></g>
<g><path style="opacity:1" fill="#b2b2b2" d="M 719.5,33.5 C 720.833,142.833 720.833,252.167 719.5,361.5C 689.167,361.5 658.833,361.5 628.5,361.5C 628.5,358.833 628.5,356.167 628.5,353.5C 629.167,353.5 629.833,353.5 630.5,353.5C 637.167,353.5 643.833,353.5 650.5,353.5C 643.687,354.491 636.687,354.825 629.5,354.5C 629.5,356.5 629.5,358.5 629.5,360.5C 659.5,360.5 689.5,360.5 719.5,360.5C 719.5,251.833 719.5,143.167 719.5,34.5C 719.5,34.1667 719.5,33.8333 719.5,33.5 Z"/></g>
<g><path style="opacity:1" fill="#2c2c2c" d="M 672.5,223.5 C 671.817,225.176 670.483,225.843 668.5,225.5C 669.183,223.824 670.517,223.157 672.5,223.5 Z"/></g>
<g><path style="opacity:1" fill="#191919" d="M 503.5,169.5 C 502.501,229.998 502.168,290.664 502.5,351.5C 505.167,351.5 507.833,351.5 510.5,351.5C 510.5,290.833 510.5,230.167 510.5,169.5C 511.5,168.167 512.5,168.167 513.5,169.5C 512.167,172.167 512.167,174.833 513.5,177.5C 513.5,178.167 513.5,178.833 513.5,179.5C 512.167,182.167 512.167,184.833 513.5,187.5C 513.5,188.167 513.5,188.833 513.5,189.5C 512.167,192.167 512.167,194.833 513.5,197.5C 513.5,198.167 513.5,198.833 513.5,199.5C 512.167,202.167 512.167,204.833 513.5,207.5C 513.5,208.167 513.5,208.833 513.5,209.5C 512.167,212.167 512.167,214.833 513.5,217.5C 513.5,218.167 513.5,218.833 513.5,219.5C 512.167,222.167 512.167,224.833 513.5,227.5C 513.5,228.167 513.5,228.833 513.5,229.5C 512.167,232.167 512.167,234.833 513.5,237.5C 513.5,238.167 513.5,238.833 513.5,239.5C 512.167,242.167 512.167,244.833 513.5,247.5C 513.5,248.167 513.5,248.833 513.5,249.5C 512.167,252.833 512.167,256.167 513.5,259.5C 513.5,260.167 513.5,260.833 513.5,261.5C 512.167,290.167 512.167,318.833 513.5,347.5C 513.5,348.167 513.5,348.833 513.5,349.5C 512.167,350.167 512.167,350.833 513.5,351.5C 551.833,352.167 590.167,352.833 628.5,353.5C 627.833,354.167 627.167,354.833 626.5,355.5C 589.167,355.5 551.833,355.5 514.5,355.5C 513.833,354.833 513.167,354.167 512.5,353.5C 509.167,353.5 505.833,353.5 502.5,353.5C 502.5,354.833 502.5,356.167 502.5,357.5C 501.833,356.167 501.167,354.833 500.5,353.5C 498.167,353.5 495.833,353.5 493.5,353.5C 492.167,356.167 492.167,358.833 493.5,361.5C 492.432,362.434 491.099,362.768 489.5,362.5C 489.737,361.209 489.404,360.209 488.5,359.5C 486.802,350.844 485.802,341.844 485.5,332.5C 487.045,331.548 488.712,331.215 490.5,331.5C 490.5,338.167 490.5,344.833 490.5,351.5C 493.833,351.5 497.167,351.5 500.5,351.5C 501.167,290.665 501.833,229.665 502.5,168.5C 503.107,168.624 503.44,168.957 503.5,169.5 Z"/></g>
<g><path style="opacity:1" fill="#c1c1c1" d="M 513.5,219.5 C 523.833,219.5 534.167,219.5 544.5,219.5C 544.5,222.167 544.5,224.833 544.5,227.5C 534.167,227.5 523.833,227.5 513.5,227.5C 512.167,224.833 512.167,222.167 513.5,219.5 Z"/></g>
<g><path style="opacity:1" fill="#fefefe" d="M 513.5,220.5 C 523.5,220.5 533.5,220.5 543.5,220.5C 543.5,222.5 543.5,224.5 543.5,226.5C 533.5,226.5 523.5,226.5 513.5,226.5C 513.5,224.5 513.5,222.5 513.5,220.5 Z"/></g>
<g><path style="opacity:1" fill="#c0c0c0" d="M 546.5,219.5 C 557.167,219.5 567.833,219.5 578.5,219.5C 578.5,222.167 578.5,224.833 578.5,227.5C 567.833,227.5 557.167,227.5 546.5,227.5C 546.5,224.833 546.5,222.167 546.5,219.5 Z"/></g>
<g><path style="opacity:1" fill="#fefefe" d="M 547.5,220.5 C 557.5,220.5 567.5,220.5 577.5,220.5C 577.5,222.5 577.5,224.5 577.5,226.5C 567.5,226.5 557.5,226.5 547.5,226.5C 547.5,224.5 547.5,222.5 547.5,220.5 Z"/></g>
<g><path style="opacity:1" fill="#c3c3c3" d="M 582.5,219.5 C 593.833,219.5 605.167,219.5 616.5,219.5C 616.5,222.167 616.5,224.833 616.5,227.5C 605.167,227.5 593.833,227.5 582.5,227.5C 582.5,224.833 582.5,222.167 582.5,219.5 Z"/></g>
<g><path style="opacity:1" fill="#fefefe" d="M 583.5,220.5 C 594.167,220.5 604.833,220.5 615.5,220.5C 615.5,222.5 615.5,224.5 615.5,226.5C 604.833,226.5 594.167,226.5 583.5,226.5C 583.5,224.5 583.5,222.5 583.5,220.5 Z"/></g>
<g><path style="opacity:1" fill="#c2c2c2" d="M 618.5,219.5 C 628.5,219.5 638.5,219.5 648.5,219.5C 648.5,222.167 648.5,224.833 648.5,227.5C 638.5,227.5 628.5,227.5 618.5,227.5C 618.5,224.833 618.5,222.167 618.5,219.5 Z"/></g>
<g><path style="opacity:1" fill="#fefefe" d="M 619.5,220.5 C 628.833,220.5 638.167,220.5 647.5,220.5C 647.5,222.5 647.5,224.5 647.5,226.5C 638.167,226.5 628.833,226.5 619.5,226.5C 619.5,224.5 619.5,222.5 619.5,220.5 Z"/></g>
<g><path style="opacity:1" fill="#2b2b2b" d="M 668.5,225.5 C 666.365,227.369 663.698,228.036 660.5,227.5C 662.635,225.631 665.302,224.964 668.5,225.5 Z"/></g>
<g><path style="opacity:1" fill="#c3c3c3" d="M 618.5,229.5 C 628.5,229.5 638.5,229.5 648.5,229.5C 648.5,232.167 648.5,234.833 648.5,237.5C 638.5,237.5 628.5,237.5 618.5,237.5C 618.5,234.833 618.5,232.167 618.5,229.5 Z"/></g>
<g><path style="opacity:1" fill="#fdfdfd" d="M 619.5,230.5 C 628.833,230.5 638.167,230.5 647.5,230.5C 647.5,232.5 647.5,234.5 647.5,236.5C 638.167,236.5 628.833,236.5 619.5,236.5C 619.5,234.5 619.5,232.5 619.5,230.5 Z"/></g>
<g><path style="opacity:1" fill="#cacaca" d="M 662.5,229.5 C 663.499,269.663 663.832,309.997 663.5,350.5C 678.167,350.5 692.833,350.5 707.5,350.5C 707.5,350.833 707.5,351.167 707.5,351.5C 692.5,351.5 677.5,351.5 662.5,351.5C 662.5,310.833 662.5,270.167 662.5,229.5 Z"/></g>
<g><path style="opacity:1" fill="#c2c2c2" d="M 513.5,229.5 C 523.833,229.5 534.167,229.5 544.5,229.5C 544.5,232.167 544.5,234.833 544.5,237.5C 534.167,237.5 523.833,237.5 513.5,237.5C 512.167,234.833 512.167,232.167 513.5,229.5 Z"/></g>
<g><path style="opacity:1" fill="#fefefe" d="M 513.5,230.5 C 523.5,230.5 533.5,230.5 543.5,230.5C 543.5,232.5 543.5,234.5 543.5,236.5C 533.5,236.5 523.5,236.5 513.5,236.5C 513.5,234.5 513.5,232.5 513.5,230.5 Z"/></g>
<g><path style="opacity:1" fill="#c2c1c2" d="M 546.5,229.5 C 557.167,229.5 567.833,229.5 578.5,229.5C 578.5,232.167 578.5,234.833 578.5,237.5C 567.833,237.5 557.167,237.5 546.5,237.5C 546.5,234.833 546.5,232.167 546.5,229.5 Z"/></g>
<g><path style="opacity:1" fill="#fefefe" d="M 547.5,230.5 C 557.5,230.5 567.5,230.5 577.5,230.5C 577.5,232.5 577.5,234.5 577.5,236.5C 567.5,236.5 557.5,236.5 547.5,236.5C 547.5,234.5 547.5,232.5 547.5,230.5 Z"/></g>
<g><path style="opacity:1" fill="#c2c2c2" d="M 582.5,229.5 C 593.833,229.5 605.167,229.5 616.5,229.5C 616.5,232.167 616.5,234.833 616.5,237.5C 605.167,237.5 593.833,237.5 582.5,237.5C 582.5,234.833 582.5,232.167 582.5,229.5 Z"/></g>
<g><path style="opacity:1" fill="#fefefe" d="M 583.5,230.5 C 594.167,230.5 604.833,230.5 615.5,230.5C 615.5,232.5 615.5,234.5 615.5,236.5C 604.833,236.5 594.167,236.5 583.5,236.5C 583.5,234.5 583.5,232.5 583.5,230.5 Z"/></g>
<g><path style="opacity:1" fill="#fdfdfd" d="M 544.5,240.5 C 544.5,242.5 544.5,244.5 544.5,246.5C 534.167,246.5 523.833,246.5 513.5,246.5C 513.5,244.5 513.5,242.5 513.5,240.5C 523.833,240.5 534.167,240.5 544.5,240.5 Z"/></g>
<g><path style="opacity:1" fill="#c1c1c1" d="M 513.5,239.5 C 524.014,239.172 534.347,239.506 544.5,240.5C 534.167,240.5 523.833,240.5 513.5,240.5C 513.5,242.5 513.5,244.5 513.5,246.5C 523.833,246.5 534.167,246.5 544.5,246.5C 534.347,247.494 524.014,247.828 513.5,247.5C 512.167,244.833 512.167,242.167 513.5,239.5 Z"/></g>
<g><path style="opacity:1" fill="#c2c2c2" d="M 546.5,239.5 C 557.167,239.5 567.833,239.5 578.5,239.5C 578.5,242.167 578.5,244.833 578.5,247.5C 567.833,247.5 557.167,247.5 546.5,247.5C 546.5,244.833 546.5,242.167 546.5,239.5 Z"/></g>
<g><path style="opacity:1" fill="#fefefe" d="M 547.5,240.5 C 557.5,240.5 567.5,240.5 577.5,240.5C 577.5,242.5 577.5,244.5 577.5,246.5C 567.5,246.5 557.5,246.5 547.5,246.5C 547.5,244.5 547.5,242.5 547.5,240.5 Z"/></g>
<g><path style="opacity:1" fill="#c4c4c4" d="M 582.5,239.5 C 593.833,239.5 605.167,239.5 616.5,239.5C 616.5,242.167 616.5,244.833 616.5,247.5C 605.167,247.5 593.833,247.5 582.5,247.5C 582.5,244.833 582.5,242.167 582.5,239.5 Z"/></g>
<g><path style="opacity:1" fill="#fefefe" d="M 583.5,240.5 C 594.167,240.5 604.833,240.5 615.5,240.5C 615.5,242.5 615.5,244.5 615.5,246.5C 604.833,246.5 594.167,246.5 583.5,246.5C 583.5,244.5 583.5,242.5 583.5,240.5 Z"/></g>
<g><path style="opacity:1" fill="#c3c3c3" d="M 618.5,239.5 C 628.5,239.5 638.5,239.5 648.5,239.5C 648.5,242.167 648.5,244.833 648.5,247.5C 638.5,247.5 628.5,247.5 618.5,247.5C 618.5,244.833 618.5,242.167 618.5,239.5 Z"/></g>
<g><path style="opacity:1" fill="#fefefe" d="M 619.5,240.5 C 628.833,240.5 638.167,240.5 647.5,240.5C 647.5,242.5 647.5,244.5 647.5,246.5C 638.167,246.5 628.833,246.5 619.5,246.5C 619.5,244.5 619.5,242.5 619.5,240.5 Z"/></g>
<g><path style="opacity:1" fill="#c2c2c2" d="M 618.5,249.5 C 628.5,249.5 638.5,249.5 648.5,249.5C 648.5,252.833 648.5,256.167 648.5,259.5C 638.5,259.5 628.5,259.5 618.5,259.5C 618.5,256.167 618.5,252.833 618.5,249.5 Z"/></g>
<g><path style="opacity:1" fill="#fdfdfd" d="M 619.5,250.5 C 628.833,250.5 638.167,250.5 647.5,250.5C 647.5,253.167 647.5,255.833 647.5,258.5C 638.167,258.5 628.833,258.5 619.5,258.5C 619.5,255.833 619.5,253.167 619.5,250.5 Z"/></g>
<g><path style="opacity:1" fill="#bfbfbf" d="M 513.5,249.5 C 523.833,249.5 534.167,249.5 544.5,249.5C 544.5,252.833 544.5,256.167 544.5,259.5C 534.167,259.5 523.833,259.5 513.5,259.5C 512.167,256.167 512.167,252.833 513.5,249.5 Z"/></g>
<g><path style="opacity:1" fill="#fdfdfd" d="M 513.5,250.5 C 523.5,250.5 533.5,250.5 543.5,250.5C 543.5,253.167 543.5,255.833 543.5,258.5C 533.5,258.5 523.5,258.5 513.5,258.5C 513.5,255.833 513.5,253.167 513.5,250.5 Z"/></g>
<g><path style="opacity:1" fill="#c4c4c4" d="M 546.5,249.5 C 557.167,249.5 567.833,249.5 578.5,249.5C 578.5,252.833 578.5,256.167 578.5,259.5C 567.833,259.5 557.167,259.5 546.5,259.5C 546.5,256.167 546.5,252.833 546.5,249.5 Z"/></g>
<g><path style="opacity:1" fill="#fdfdfd" d="M 547.5,250.5 C 557.5,250.5 567.5,250.5 577.5,250.5C 577.5,253.167 577.5,255.833 577.5,258.5C 567.5,258.5 557.5,258.5 547.5,258.5C 547.5,255.833 547.5,253.167 547.5,250.5 Z"/></g>
<g><path style="opacity:1" fill="#c4c4c4" d="M 582.5,249.5 C 593.833,249.5 605.167,249.5 616.5,249.5C 616.5,252.833 616.5,256.167 616.5,259.5C 605.167,259.5 593.833,259.5 582.5,259.5C 582.5,256.167 582.5,252.833 582.5,249.5 Z"/></g>
<g><path style="opacity:1" fill="#fefefe" d="M 583.5,250.5 C 594.167,250.5 604.833,250.5 615.5,250.5C 615.5,253.167 615.5,255.833 615.5,258.5C 604.833,258.5 594.167,258.5 583.5,258.5C 583.5,255.833 583.5,253.167 583.5,250.5 Z"/></g>
<g><path style="opacity:1" fill="#cbcbcb" d="M 503.5,169.5 C 505.833,169.5 508.167,169.5 510.5,169.5C 510.5,230.167 510.5,290.833 510.5,351.5C 507.833,351.5 505.167,351.5 502.5,351.5C 502.168,290.664 502.501,229.998 503.5,169.5 Z"/></g>
<g><path style="opacity:1" fill="#fdfdfd" d="M 503.5,170.5 C 505.5,170.5 507.5,170.5 509.5,170.5C 509.5,230.5 509.5,290.5 509.5,350.5C 507.5,350.5 505.5,350.5 503.5,350.5C 503.5,290.5 503.5,230.5 503.5,170.5 Z"/></g>
<g><path style="opacity:1" fill="#c5c5c5" d="M 660.5,353.5 C 659.501,313.337 659.168,273.003 659.5,232.5C 656.833,232.5 654.167,232.5 651.5,232.5C 651.832,273.003 651.499,313.337 650.5,353.5C 650.5,312.833 650.5,272.167 650.5,231.5C 653.833,231.5 657.167,231.5 660.5,231.5C 660.5,272.167 660.5,312.833 660.5,353.5 Z"/></g>
<g><path style="opacity:1" fill="#cbcacb" d="M 1223.5,261.5 C 1223.5,291.5 1223.5,321.5 1223.5,351.5C 1219.5,351.5 1215.5,351.5 1211.5,351.5C 1214.96,350.518 1218.63,350.185 1222.5,350.5C 1222.17,320.662 1222.5,290.995 1223.5,261.5 Z"/></g>
<g><path style="opacity:1" fill="#212121" d="M 1223.5,261.5 C 1225.49,297.151 1226.16,333.151 1225.5,369.5C 1219.46,369.829 1213.46,369.496 1207.5,368.5C 1208.69,367.571 1210.02,367.238 1211.5,367.5C 1211.5,362.167 1211.5,356.833 1211.5,351.5C 1215.5,351.5 1219.5,351.5 1223.5,351.5C 1223.5,321.5 1223.5,291.5 1223.5,261.5 Z"/></g>
<g><path style="opacity:1" fill="#0d0d0d" d="M 407.5,33.5 C 406.501,142.665 406.167,251.999 406.5,361.5C 415.167,361.5 423.833,361.5 432.5,361.5C 432.5,358.833 432.5,356.167 432.5,353.5C 426.167,353.5 419.833,353.5 413.5,353.5C 413.167,249.165 413.5,144.831 414.5,40.5C 415.107,40.6236 415.44,40.9569 415.5,41.5C 414.501,144.665 414.167,247.999 414.5,351.5C 420.5,351.5 426.5,351.5 432.5,351.5C 432.5,344.833 432.5,338.167 432.5,331.5C 434.5,331.5 436.5,331.5 438.5,331.5C 436.618,340.641 435.951,349.974 436.5,359.5C 434.824,360.183 434.157,361.517 434.5,363.5C 424.833,363.5 415.167,363.5 405.5,363.5C 405.167,253.165 405.5,142.831 406.5,32.5C 407.107,32.6236 407.44,32.9569 407.5,33.5 Z"/></g>
<g><path style="opacity:1" fill="#c6c6c6" d="M 27.5,261.5 C 28.4981,290.995 28.8314,320.662 28.5,350.5C 32.3714,350.185 36.0381,350.518 39.5,351.5C 35.5,351.5 31.5,351.5 27.5,351.5C 27.5,321.5 27.5,291.5 27.5,261.5 Z"/></g>
<g><path style="opacity:1" fill="#212121" d="M 439.5,333.5 C 448.833,334.167 448.833,334.833 439.5,335.5C 439.5,334.833 439.5,334.167 439.5,333.5 Z"/></g>
<g><path style="opacity:1" fill="#343434" d="M 470.5,339.5 C 471.615,336.92 473.615,335.254 476.5,334.5C 479.167,333.167 481.833,333.167 484.5,334.5C 479.446,335.254 474.78,336.921 470.5,339.5 Z"/></g>
<g><path style="opacity:1" fill="#ababab" d="M 490.5,331.5 C 491.49,337.645 491.823,343.978 491.5,350.5C 494.5,350.5 497.5,350.5 500.5,350.5C 500.5,350.833 500.5,351.167 500.5,351.5C 497.167,351.5 493.833,351.5 490.5,351.5C 490.5,344.833 490.5,338.167 490.5,331.5 Z"/></g>
<g><path style="opacity:1" fill="#3c3c3c" d="M 470.5,339.5 C 470.843,341.483 470.176,342.817 468.5,343.5C 468.157,341.517 468.824,340.183 470.5,339.5 Z"/></g>
<g><path style="opacity:1" fill="#9a9a9a" d="M 438.5,331.5 C 439.338,331.842 439.672,332.508 439.5,333.5C 439.5,334.167 439.5,334.833 439.5,335.5C 438.883,335.389 438.383,335.056 438,334.5C 437.829,343.01 437.329,351.343 436.5,359.5C 435.951,349.974 436.618,340.641 438.5,331.5 Z"/></g>
<g><path style="opacity:1" fill="#bdbdbd" d="M 513.5,261.5 C 513.5,261.833 513.5,262.167 513.5,262.5C 513.5,290.5 513.5,318.5 513.5,346.5C 558.167,346.5 602.833,346.5 647.5,346.5C 647.5,318.5 647.5,290.5 647.5,262.5C 638.167,262.5 628.833,262.5 619.5,262.5C 619.829,276.344 619.496,290.01 618.5,303.5C 618.5,289.5 618.5,275.5 618.5,261.5C 628.5,261.5 638.5,261.5 648.5,261.5C 648.5,290.167 648.5,318.833 648.5,347.5C 603.5,347.5 558.5,347.5 513.5,347.5C 512.167,318.833 512.167,290.167 513.5,261.5 Z"/></g>
<g><path style="opacity:1" fill="#c7c7c7" d="M 546.5,299.5 C 546.833,299.5 547.167,299.5 547.5,299.5C 563.658,300.496 579.991,300.83 596.5,300.5C 602.833,300.5 609.167,300.5 615.5,300.5C 615.5,287.833 615.5,275.167 615.5,262.5C 604.833,262.5 594.167,262.5 583.5,262.5C 583.81,265.713 583.477,268.713 582.5,271.5C 582.5,268.167 582.5,264.833 582.5,261.5C 593.833,261.5 605.167,261.5 616.5,261.5C 616.5,274.833 616.5,288.167 616.5,301.5C 592.809,302.157 569.476,301.49 546.5,299.5 Z"/></g>
<g><path style="opacity:1" fill="#d3d3d3" d="M 513.5,262.5 C 513.5,262.167 513.5,261.833 513.5,261.5C 523.833,261.5 534.167,261.5 544.5,261.5C 544.5,275.5 544.5,289.5 544.5,303.5C 543.504,290.01 543.171,276.344 543.5,262.5C 533.5,262.5 523.5,262.5 513.5,262.5 Z"/></g>
<g><path style="opacity:1" fill="#fdfdfd" d="M 513.5,262.5 C 523.5,262.5 533.5,262.5 543.5,262.5C 543.171,276.344 543.504,290.01 544.5,303.5C 547.833,303.5 551.167,303.5 554.5,303.5C 554.5,307.5 554.5,311.5 554.5,315.5C 560.537,315.829 566.537,315.496 572.5,314.5C 574.26,311.788 574.927,308.788 574.5,305.5C 576.369,307.635 577.036,310.302 576.5,313.5C 579.167,314.167 581.833,314.833 584.5,315.5C 584.5,312.833 584.5,310.167 584.5,307.5C 583.022,307.762 581.689,307.429 580.5,306.5C 581.949,305.828 583.282,305.161 584.5,304.5C 590.509,304.334 596.509,304.501 602.5,305C 603.308,305.308 603.975,305.808 604.5,306.5C 603.388,307.265 602.721,308.265 602.5,309.5C 603.833,309.5 605.167,309.5 606.5,309.5C 606.5,307.833 606.5,306.167 606.5,304.5C 610.702,304.817 614.702,304.483 618.5,303.5C 619.496,290.01 619.829,276.344 619.5,262.5C 628.833,262.5 638.167,262.5 647.5,262.5C 647.5,290.5 647.5,318.5 647.5,346.5C 602.833,346.5 558.167,346.5 513.5,346.5C 513.5,318.5 513.5,290.5 513.5,262.5 Z"/></g>
<g><path style="opacity:1" fill="#909190" d="M 554.5,303.5 C 556.5,303.5 558.5,303.5 560.5,303.5C 560.721,304.735 561.388,305.735 562.5,306.5C 561.388,307.265 560.721,308.265 560.5,309.5C 562.176,310.183 562.843,311.517 562.5,313.5C 565.247,313.813 567.914,313.48 570.5,312.5C 571.67,309.895 573.003,307.562 574.5,305.5C 574.927,308.788 574.26,311.788 572.5,314.5C 566.537,315.496 560.537,315.829 554.5,315.5C 554.5,311.5 554.5,307.5 554.5,303.5 Z"/></g>
<g><path style="opacity:1" fill="#eaeae9" d="M 560.5,309.5 C 560.5,310.833 560.5,312.167 560.5,313.5C 559.167,313.5 557.833,313.5 556.5,313.5C 556.5,312.167 556.5,310.833 556.5,309.5C 557.833,309.5 559.167,309.5 560.5,309.5 Z"/></g>
<g><path style="opacity:1" fill="#e5e5e5" d="M 560.5,303.5 C 561.609,303.557 562.609,303.89 563.5,304.5C 564.398,305.158 565.398,305.824 566.5,306.5C 565.5,307.167 564.5,307.833 563.5,308.5C 565.396,309.466 567.396,309.799 569.5,309.5C 569.773,307.549 569.107,306.049 567.5,305C 570.039,304.204 572.372,304.371 574.5,305.5C 573.003,307.562 571.67,309.895 570.5,312.5C 567.914,313.48 565.247,313.813 562.5,313.5C 562.843,311.517 562.176,310.183 560.5,309.5C 560.721,308.265 561.388,307.265 562.5,306.5C 561.388,305.735 560.721,304.735 560.5,303.5 Z"/></g>
<g><path style="opacity:1" fill="#8b8b8b" d="M 602.5,309.5 C 603.335,310.943 604.668,311.943 606.5,312.5C 602.098,314.15 598.432,313.15 595.5,309.5C 594.833,311.5 594.167,313.5 593.5,315.5C 592.52,312.914 592.187,310.247 592.5,307.5C 596.083,307.232 599.416,307.899 602.5,309.5 Z"/></g>
<g><path style="opacity:1" fill="#a7a7a7" d="M 584.5,304.5 C 595.654,303.505 606.988,303.172 618.5,303.5C 614.702,304.483 610.702,304.817 606.5,304.5C 606.5,306.167 606.5,307.833 606.5,309.5C 605.167,309.5 603.833,309.5 602.5,309.5C 602.721,308.265 603.388,307.265 604.5,306.5C 603.975,305.808 603.308,305.308 602.5,305C 596.509,304.501 590.509,304.334 584.5,304.5 Z"/></g>
<g><path style="opacity:1" fill="#a5a5a5" d="M 584.5,304.5 C 583.282,305.161 581.949,305.828 580.5,306.5C 581.689,307.429 583.022,307.762 584.5,307.5C 584.5,310.167 584.5,312.833 584.5,315.5C 581.833,314.833 579.167,314.167 576.5,313.5C 577.036,310.302 576.369,307.635 574.5,305.5C 572.372,304.371 570.039,304.204 567.5,305C 569.107,306.049 569.773,307.549 569.5,309.5C 567.396,309.799 565.396,309.466 563.5,308.5C 564.5,307.833 565.5,307.167 566.5,306.5C 565.398,305.824 564.398,305.158 563.5,304.5C 570.487,303.267 577.487,303.267 584.5,304.5 Z"/></g>
<g><path style="opacity:1" fill="#e5e5e5" d="M 558.5,287.5 C 554.092,288.055 553.425,290.055 556.5,293.5C 555.246,295.334 554.579,297.334 554.5,299.5C 557.167,298.833 559.833,298.167 562.5,297.5C 562.5,294.833 562.5,292.167 562.5,289.5C 562.62,288.414 563.287,287.747 564.5,287.5C 566.545,288.211 567.878,289.544 568.5,291.5C 568.643,293.262 568.309,294.929 567.5,296.5C 569.193,300.322 570.527,299.989 571.5,295.5C 572.167,296.833 572.833,298.167 573.5,299.5C 574.48,296.914 574.813,294.247 574.5,291.5C 575.167,290.167 575.833,288.833 576.5,287.5C 576.5,291.5 576.5,295.5 576.5,299.5C 581.875,299.828 587.208,299.495 592.5,298.5C 594.845,295.171 596.178,291.505 596.5,287.5C 597.167,288.833 597.833,290.167 598.5,291.5C 598.5,293.833 598.5,296.167 598.5,298.5C 597.5,298.833 596.833,299.5 596.5,300.5C 579.991,300.83 563.658,300.496 547.5,299.5C 553.373,299.402 553.706,298.402 548.5,296.5C 549.167,295.833 549.833,295.167 550.5,294.5C 548.995,293.158 548.328,291.492 548.5,289.5C 550.483,289.843 551.817,289.176 552.5,287.5C 554.653,286.427 556.653,286.427 558.5,287.5 Z"/></g>
<g><path style="opacity:1" fill="#939393" d="M 574.5,291.5 C 574.813,294.247 574.48,296.914 573.5,299.5C 572.833,298.167 572.167,296.833 571.5,295.5C 570.527,299.989 569.193,300.322 567.5,296.5C 568.309,294.929 568.643,293.262 568.5,291.5C 569.943,290.665 570.943,289.332 571.5,287.5C 572.057,289.332 573.057,290.665 574.5,291.5 Z"/></g>
<g><path style="opacity:1" fill="#939393" d="M 598.5,298.5 C 598.5,296.167 598.5,293.833 598.5,291.5C 599.943,290.665 600.943,289.332 601.5,287.5C 604.103,291.229 604.769,295.229 603.5,299.5C 602.167,294.167 600.833,294.167 599.5,299.5C 598.893,299.376 598.56,299.043 598.5,298.5 Z"/></g>
<g><path style="opacity:1" fill="#a3a3a3" d="M 558.5,287.5 C 559.183,289.176 560.517,289.843 562.5,289.5C 562.5,292.167 562.5,294.833 562.5,297.5C 559.833,298.167 557.167,298.833 554.5,299.5C 554.579,297.334 555.246,295.334 556.5,293.5C 553.425,290.055 554.092,288.055 558.5,287.5 Z"/></g>
<g><path style="opacity:1" fill="#858585" d="M 546.5,287.5 C 546.833,287.5 547.167,287.5 547.5,287.5C 549.167,287.5 550.833,287.5 552.5,287.5C 551.817,289.176 550.483,289.843 548.5,289.5C 548.328,291.492 548.995,293.158 550.5,294.5C 549.833,295.167 549.167,295.833 548.5,296.5C 553.706,298.402 553.373,299.402 547.5,299.5C 547.167,299.5 546.833,299.5 546.5,299.5C 546.5,295.5 546.5,291.5 546.5,287.5 Z"/></g>
<g><path style="opacity:1" fill="#8d8d8d" d="M 576.5,287.5 C 578.402,290.337 579.069,293.671 578.5,297.5C 579.833,297.5 581.167,297.5 582.5,297.5C 582.5,294.167 582.5,290.833 582.5,287.5C 587.167,287.5 591.833,287.5 596.5,287.5C 596.178,291.505 594.845,295.171 592.5,298.5C 587.208,299.495 581.875,299.828 576.5,299.5C 576.5,295.5 576.5,291.5 576.5,287.5 Z"/></g>
<g><path style="opacity:1" fill="#fbfbfb" d="M 578.5,271.5 C 579.833,271.5 581.167,271.5 582.5,271.5C 583.477,268.713 583.81,265.713 583.5,262.5C 594.167,262.5 604.833,262.5 615.5,262.5C 615.5,275.167 615.5,287.833 615.5,300.5C 609.167,300.5 602.833,300.5 596.5,300.5C 596.833,299.5 597.5,298.833 598.5,298.5C 598.56,299.043 598.893,299.376 599.5,299.5C 600.833,294.167 602.167,294.167 603.5,299.5C 604.769,295.229 604.103,291.229 601.5,287.5C 600.943,289.332 599.943,290.665 598.5,291.5C 597.833,290.167 597.167,288.833 596.5,287.5C 591.833,287.5 587.167,287.5 582.5,287.5C 582.5,290.833 582.5,294.167 582.5,297.5C 581.167,297.5 579.833,297.5 578.5,297.5C 579.069,293.671 578.402,290.337 576.5,287.5C 575.833,288.833 575.167,290.167 574.5,291.5C 573.057,290.665 572.057,289.332 571.5,287.5C 570.943,289.332 569.943,290.665 568.5,291.5C 567.878,289.544 566.545,288.211 564.5,287.5C 563.287,287.747 562.62,288.414 562.5,289.5C 560.517,289.843 559.183,289.176 558.5,287.5C 556.653,286.427 554.653,286.427 552.5,287.5C 550.833,287.5 549.167,287.5 547.5,287.5C 547.5,279.167 547.5,270.833 547.5,262.5C 557.5,262.5 567.5,262.5 577.5,262.5C 577.19,265.713 577.523,268.713 578.5,271.5 Z"/></g>
<g><path style="opacity:1" fill="#e9e9e9" d="M 584.5,289.5 C 586.5,289.5 588.5,289.5 590.5,289.5C 590.5,292.167 590.5,294.833 590.5,297.5C 588.5,297.5 586.5,297.5 584.5,297.5C 584.328,295.508 584.995,293.842 586.5,292.5C 585.388,291.735 584.721,290.735 584.5,289.5 Z"/></g>
<g><path style="opacity:1" fill="#c0c0c0" d="M 578.5,271.5 C 577.523,268.713 577.19,265.713 577.5,262.5C 567.5,262.5 557.5,262.5 547.5,262.5C 547.5,270.833 547.5,279.167 547.5,287.5C 547.167,287.5 546.833,287.5 546.5,287.5C 546.5,278.833 546.5,270.167 546.5,261.5C 557.167,261.5 567.833,261.5 578.5,261.5C 578.5,264.833 578.5,268.167 578.5,271.5 Z"/></g>
<g><path style="opacity:1" fill="#4b4a4a" d="M 460.5,355.5 C 458.09,350.032 455.09,344.699 451.5,339.5C 450.281,338.354 448.948,337.354 447.5,336.5C 448.167,336.167 448.833,335.833 449.5,335.5C 451.16,336.787 452.826,338.12 454.5,339.5C 455.373,342.698 457.04,345.364 459.5,347.5C 460.269,350.115 460.603,352.781 460.5,355.5 Z"/></g>
<g><path style="opacity:1" fill="#d7d7d7" d="M 513.5,349.5 C 558.505,349.167 603.505,349.5 648.5,350.5C 642.537,351.496 636.537,351.829 630.5,351.5C 591.5,351.5 552.5,351.5 513.5,351.5C 512.167,350.833 512.167,350.167 513.5,349.5 Z"/></g>
<g><path style="opacity:1" fill="#565656" d="M 468.5,343.5 C 466.629,348.779 464.962,354.113 463.5,359.5C 462.5,359.5 461.5,359.5 460.5,359.5C 460.5,358.167 460.5,356.833 460.5,355.5C 462.32,352.462 463.986,349.129 465.5,345.5C 466.265,344.388 467.265,343.721 468.5,343.5 Z"/></g>
<g><path style="opacity:1" fill="#3a3a3a" d="M 513.5,351.5 C 552.5,351.5 591.5,351.5 630.5,351.5C 630.5,352.167 630.5,352.833 630.5,353.5C 629.833,353.5 629.167,353.5 628.5,353.5C 590.167,352.833 551.833,352.167 513.5,351.5 Z"/></g>
<g><path style="opacity:1" fill="#c2c3c3" d="M 721.5,363.5 C 721.833,363.5 722.167,363.5 722.5,363.5C 653.669,364.499 584.669,364.833 515.5,364.5C 515.784,366.415 515.451,368.081 514.5,369.5C 514.5,367.5 514.5,365.5 514.5,363.5C 583.5,363.5 652.5,363.5 721.5,363.5 Z"/></g>
<g><path style="opacity:1" fill="#b6b6b6" d="M 263.5,351.5 C 263.5,356.833 263.5,362.167 263.5,367.5C 246.833,367.5 230.167,367.5 213.5,367.5C 229.658,366.504 245.991,366.17 262.5,366.5C 262.179,361.305 262.513,356.305 263.5,351.5 Z"/></g>
<g><path style="opacity:1" fill="#bcbcbc" d="M 736.5,351.5 C 736.5,356.833 736.5,362.167 736.5,367.5C 727.833,367.5 719.167,367.5 710.5,367.5C 718.65,366.507 726.983,366.174 735.5,366.5C 735.179,361.305 735.513,356.305 736.5,351.5 Z"/></g>
<g><path style="opacity:1" fill="#c1c1c1" d="M 794.5,367.5 C 802.316,366.508 810.316,366.174 818.5,366.5C 818.5,367.833 818.5,369.167 818.5,370.5C 810.316,370.826 802.316,370.492 794.5,369.5C 825.167,368.833 825.167,368.167 794.5,367.5 Z"/></g>
<g><path style="opacity:1" fill="#c4c4c4" d="M 973.5,366.5 C 950.315,366.836 927.315,367.836 904.5,369.5C 903.778,369.082 903.278,368.416 903,367.5C 902.722,368.416 902.222,369.082 901.5,369.5C 874.854,367.509 847.854,366.842 820.5,367.5C 871.467,365.923 922.467,365.59 973.5,366.5 Z"/></g>
<g><path style="opacity:1" fill="#bcbcbc" d="M 987.5,351.5 C 988.487,356.305 988.821,361.305 988.5,366.5C 996.752,366.816 1004.92,366.482 1013,365.5C 1040.6,366.163 1068.1,366.829 1095.5,367.5C 1068.15,366.842 1041.15,367.509 1014.5,369.5C 1013.78,369.082 1013.28,368.416 1013,367.5C 1012.72,368.416 1012.22,369.082 1011.5,369.5C 1003.9,367.533 995.903,366.866 987.5,367.5C 987.5,362.167 987.5,356.833 987.5,351.5 Z"/></g>
<g><path style="opacity:1" fill="#c2c2c2" d="M 1213.5,353.5 C 1216.83,353.5 1220.17,353.5 1223.5,353.5C 1223.5,358.167 1223.5,362.833 1223.5,367.5C 1220.17,367.5 1216.83,367.5 1213.5,367.5C 1213.5,362.833 1213.5,358.167 1213.5,353.5 Z"/></g>
<g><path style="opacity:1" fill="#fdfdfd" d="M 1214.5,354.5 C 1217.17,354.5 1219.83,354.5 1222.5,354.5C 1222.5,358.5 1222.5,362.5 1222.5,366.5C 1219.83,366.5 1217.17,366.5 1214.5,366.5C 1214.5,362.5 1214.5,358.5 1214.5,354.5 Z"/></g>
<g><path style="opacity:1" fill="#222222" d="M 27.5,261.5 C 27.5,291.5 27.5,321.5 27.5,351.5C 31.5,351.5 35.5,351.5 39.5,351.5C 39.5,356.833 39.5,362.167 39.5,367.5C 68.5077,367.167 97.5077,367.5 126.5,368.5C 92.8399,369.5 59.1733,369.833 25.5,369.5C 24.8398,333.151 25.5064,297.151 27.5,261.5 Z"/></g>
<g><path style="opacity:1" fill="#c3c3c3" d="M 27.5,353.5 C 30.8333,353.5 34.1667,353.5 37.5,353.5C 37.5,358.167 37.5,362.833 37.5,367.5C 34.1667,367.5 30.8333,367.5 27.5,367.5C 27.5,362.833 27.5,358.167 27.5,353.5 Z"/></g>
<g><path style="opacity:1" fill="#fcfdfd" d="M 28.5,354.5 C 31.1667,354.5 33.8333,354.5 36.5,354.5C 36.5,358.5 36.5,362.5 36.5,366.5C 33.8333,366.5 31.1667,366.5 28.5,366.5C 28.5,362.5 28.5,358.5 28.5,354.5 Z"/></g>
<g><path style="opacity:1" fill="#232323" d="M 129.5,367.5 C 237.5,368.167 237.5,368.833 129.5,369.5C 129.5,368.833 129.5,368.167 129.5,367.5 Z"/></g>
<g><path style="opacity:1" fill="#232323" d="M 263.5,351.5 C 268.167,351.5 272.833,351.5 277.5,351.5C 277.5,356.833 277.5,362.167 277.5,367.5C 351.833,367.5 426.167,367.5 500.5,367.5C 500.5,366.167 500.5,364.833 500.5,363.5C 496.5,363.5 492.5,363.5 488.5,363.5C 488.5,362.167 488.5,360.833 488.5,359.5C 489.404,360.209 489.737,361.209 489.5,362.5C 491.099,362.768 492.432,362.434 493.5,361.5C 496.059,361.802 498.393,361.468 500.5,360.5C 500.5,358.167 500.5,355.833 500.5,353.5C 501.167,354.833 501.833,356.167 502.5,357.5C 502.5,360.833 502.5,364.167 502.5,367.5C 506.042,367.813 509.375,367.479 512.5,366.5C 512.5,362.5 512.5,358.5 512.5,354.5C 512.5,354.167 512.5,353.833 512.5,353.5C 513.167,354.167 513.833,354.833 514.5,355.5C 514.5,357.5 514.5,359.5 514.5,361.5C 551.833,361.5 589.167,361.5 626.5,361.5C 626.5,359.5 626.5,357.5 626.5,355.5C 627.167,354.833 627.833,354.167 628.5,353.5C 628.5,356.167 628.5,358.833 628.5,361.5C 658.833,361.5 689.167,361.5 719.5,361.5C 719.842,362.338 720.508,362.672 721.5,362.5C 721.5,362.833 721.5,363.167 721.5,363.5C 652.5,363.5 583.5,363.5 514.5,363.5C 514.5,365.5 514.5,367.5 514.5,369.5C 413.828,370.164 313.494,369.498 213.5,367.5C 230.167,367.5 246.833,367.5 263.5,367.5C 263.5,362.167 263.5,356.833 263.5,351.5 Z"/></g>
<g><path style="opacity:1" fill="#949494" d="M 265.5,353.5 C 265.5,357.833 265.5,362.167 265.5,366.5C 268.5,366.5 271.5,366.5 274.5,366.5C 274.5,362.167 274.5,357.833 274.5,353.5C 275.486,357.97 275.819,362.637 275.5,367.5C 271.833,367.5 268.167,367.5 264.5,367.5C 264.181,362.637 264.514,357.97 265.5,353.5 Z"/></g>
<g><path style="opacity:1" fill="#c5c5c5" d="M 514.5,355.5 C 551.833,355.5 589.167,355.5 626.5,355.5C 626.5,357.5 626.5,359.5 626.5,361.5C 589.167,361.5 551.833,361.5 514.5,361.5C 514.5,359.5 514.5,357.5 514.5,355.5 Z"/></g>
<g><path style="opacity:1" fill="#afafaf" d="M 512.5,353.5 C 512.5,353.833 512.5,354.167 512.5,354.5C 509.5,354.5 506.5,354.5 503.5,354.5C 503.5,358.5 503.5,362.5 503.5,366.5C 506.5,366.5 509.5,366.5 512.5,366.5C 509.375,367.479 506.042,367.813 502.5,367.5C 502.5,364.167 502.5,360.833 502.5,357.5C 502.5,356.167 502.5,354.833 502.5,353.5C 505.833,353.5 509.167,353.5 512.5,353.5 Z"/></g>
<g><path style="opacity:1" fill="#fefefe" d="M 515.5,356.5 C 552.167,356.5 588.833,356.5 625.5,356.5C 625.5,357.833 625.5,359.167 625.5,360.5C 588.833,360.5 552.167,360.5 515.5,360.5C 515.5,359.167 515.5,357.833 515.5,356.5 Z"/></g>
<g><path style="opacity:1" fill="#aeaeae" d="M 493.5,353.5 C 493.5,355.833 493.5,358.167 493.5,360.5C 495.833,360.5 498.167,360.5 500.5,360.5C 498.393,361.468 496.059,361.802 493.5,361.5C 492.167,358.833 492.167,356.167 493.5,353.5 Z"/></g>
<g><path style="opacity:1" fill="#fafafa" d="M 512.5,354.5 C 512.5,358.5 512.5,362.5 512.5,366.5C 509.5,366.5 506.5,366.5 503.5,366.5C 503.5,362.5 503.5,358.5 503.5,354.5C 506.5,354.5 509.5,354.5 512.5,354.5 Z"/></g>
<g><path style="opacity:1" fill="#f6f6f6" d="M 493.5,353.5 C 495.833,353.5 498.167,353.5 500.5,353.5C 500.5,355.833 500.5,358.167 500.5,360.5C 498.167,360.5 495.833,360.5 493.5,360.5C 493.5,358.167 493.5,355.833 493.5,353.5 Z"/></g>
<g><path style="opacity:1" fill="#f8f8f8" d="M 265.5,353.5 C 268.5,353.5 271.5,353.5 274.5,353.5C 274.5,357.833 274.5,362.167 274.5,366.5C 271.5,366.5 268.5,366.5 265.5,366.5C 265.5,362.167 265.5,357.833 265.5,353.5 Z"/></g>
<g><path style="opacity:1" fill="#222222" d="M 517.5,367.5 C 544.854,366.842 571.854,367.509 598.5,369.5C 571.146,370.158 544.146,369.491 517.5,367.5 Z"/></g>
<g><path style="opacity:1" fill="#222222" d="M 600.5,367.5 C 636.506,367.167 672.506,367.5 708.5,368.5C 690.5,368.833 672.5,369.167 654.5,369.5C 636.154,369.5 618.154,368.833 600.5,367.5 Z"/></g>
<g><path style="opacity:1" fill="#232323" d="M 736.5,351.5 C 741.167,351.5 745.833,351.5 750.5,351.5C 750.5,356.5 750.5,361.5 750.5,366.5C 764.006,367.167 777.673,367.833 791.5,368.5C 764.508,369.5 737.508,369.833 710.5,369.5C 710.5,368.833 710.5,368.167 710.5,367.5C 719.167,367.5 727.833,367.5 736.5,367.5C 736.5,362.167 736.5,356.833 736.5,351.5 Z"/></g>
<g><path style="opacity:1" fill="#c3c3c3" d="M 738.5,353.5 C 741.833,353.5 745.167,353.5 748.5,353.5C 748.5,358.167 748.5,362.833 748.5,367.5C 745.167,367.5 741.833,367.5 738.5,367.5C 738.5,362.833 738.5,358.167 738.5,353.5 Z"/></g>
<g><path style="opacity:1" fill="#fdfdfd" d="M 739.5,354.5 C 742.167,354.5 744.833,354.5 747.5,354.5C 747.5,358.5 747.5,362.5 747.5,366.5C 744.833,366.5 742.167,366.5 739.5,366.5C 739.5,362.5 739.5,358.5 739.5,354.5 Z"/></g>
<g><path style="opacity:1" fill="#232323" d="M 794.5,367.5 C 825.167,368.167 825.167,368.833 794.5,369.5C 794.5,368.833 794.5,368.167 794.5,367.5 Z"/></g>
<g><path style="opacity:1" fill="#242424" d="M 820.5,367.5 C 847.854,366.842 874.854,367.509 901.5,369.5C 874.146,370.158 847.146,369.491 820.5,367.5 Z"/></g>
<g><path style="opacity:1" fill="#232323" d="M 987.5,351.5 C 987.5,356.833 987.5,362.167 987.5,367.5C 995.903,366.866 1003.9,367.533 1011.5,369.5C 975.833,369.5 940.167,369.5 904.5,369.5C 927.315,367.836 950.315,366.836 973.5,366.5C 973.5,361.5 973.5,356.5 973.5,351.5C 978.167,351.5 982.833,351.5 987.5,351.5 Z"/></g>
<g><path style="opacity:1" fill="#939393" d="M 976.5,353.5 C 976.5,357.833 976.5,362.167 976.5,366.5C 979.5,366.5 982.5,366.5 985.5,366.5C 985.5,362.167 985.5,357.833 985.5,353.5C 986.486,357.97 986.819,362.637 986.5,367.5C 982.833,367.5 979.167,367.5 975.5,367.5C 975.181,362.637 975.514,357.97 976.5,353.5 Z"/></g>
<g><path style="opacity:1" fill="#f8f8f8" d="M 976.5,353.5 C 979.5,353.5 982.5,353.5 985.5,353.5C 985.5,357.833 985.5,362.167 985.5,366.5C 982.5,366.5 979.5,366.5 976.5,366.5C 976.5,362.167 976.5,357.833 976.5,353.5 Z"/></g>
<g><path style="opacity:1" fill="#232323" d="M 1095.5,367.5 C 1068.85,369.491 1041.85,370.158 1014.5,369.5C 1041.15,367.509 1068.15,366.842 1095.5,367.5 Z"/></g>
<g><path style="opacity:1" fill="#232423" d="M 1179.5,367.5 C 1179.5,368.167 1179.5,368.833 1179.5,369.5C 1071.5,368.833 1071.5,368.167 1179.5,367.5 Z"/></g>
<g><path style="opacity:1" fill="#252525" d="M 1181.5,367.5 C 1189.53,367.169 1197.53,367.502 1205.5,368.5C 1201.5,368.833 1197.5,369.167 1193.5,369.5C 1189.11,369.491 1185.11,368.824 1181.5,367.5 Z"/></g>
<g><path style="opacity:1" fill="#c2c2c2" d="M 39.5,351.5 C 40.4872,356.305 40.8205,361.305 40.5,366.5C 69.5,366.5 98.5,366.5 127.5,366.5C 127.5,367.833 127.5,369.167 127.5,370.5C 93.3292,370.832 59.3292,370.498 25.5,369.5C 59.1733,369.833 92.8399,369.5 126.5,368.5C 97.5077,367.5 68.5077,367.167 39.5,367.5C 39.5,362.167 39.5,356.833 39.5,351.5 Z"/></g>
<g><path style="opacity:1" fill="#c2c2c2" d="M 129.5,367.5 C 156.662,366.502 183.995,366.169 211.5,366.5C 211.5,367.833 211.5,369.167 211.5,370.5C 183.995,370.831 156.662,370.498 129.5,369.5C 237.5,368.833 237.5,368.167 129.5,367.5 Z"/></g>
<g><path style="opacity:1" fill="#c2c2c2" d="M 517.5,367.5 C 544.146,369.491 571.146,370.158 598.5,369.5C 571.338,370.498 544.005,370.831 516.5,370.5C 516.263,369.209 516.596,368.209 517.5,367.5 Z"/></g>
<g><path style="opacity:1" fill="#c2c2c2" d="M 750.5,366.5 C 764.5,366.5 778.5,366.5 792.5,366.5C 792.5,367.833 792.5,369.167 792.5,370.5C 764.995,370.831 737.662,370.498 710.5,369.5C 737.508,369.833 764.508,369.5 791.5,368.5C 777.673,367.833 764.006,367.167 750.5,366.5 Z"/></g>
<g><path style="opacity:1" fill="#c2c2c2" d="M 1179.5,367.5 C 1071.5,368.167 1071.5,368.833 1179.5,369.5C 1152.34,370.498 1125.01,370.831 1097.5,370.5C 1097.5,369.167 1097.5,367.833 1097.5,366.5C 1125.01,366.169 1152.34,366.502 1179.5,367.5 Z"/></g>
<g><path style="opacity:1" fill="#2c2c2c" d="M 135.5,497.5 C 134.167,498.167 132.833,498.833 131.5,499.5C 131.022,496.722 132.022,494.722 134.5,493.5C 135.429,494.689 135.762,496.022 135.5,497.5 Z"/></g>
<g><path style="opacity:1" fill="#222222" d="M 143.5,494.5 C 144.968,495.779 145.635,497.446 145.5,499.5C 144.167,502.833 142.833,506.167 141.5,509.5C 140.892,504.056 141.558,499.056 143.5,494.5 Z"/></g>
<g><path style="opacity:1" fill="#4c4c4c" d="M 149.5,494.5 C 149.56,493.957 149.893,493.624 150.5,493.5C 151.495,498.792 151.828,504.125 151.5,509.5C 149.821,509.715 148.821,509.048 148.5,507.5C 149.117,507.611 149.617,507.944 150,508.5C 150.815,503.648 150.648,498.981 149.5,494.5 Z"/></g>
<g><path style="opacity:1" fill="#e7e7e7" d="M 202.5,495.5 C 202.634,497.292 202.301,498.958 201.5,500.5C 200.432,501.434 199.099,501.768 197.5,501.5C 197.5,499.5 197.5,497.5 197.5,495.5C 199.167,495.5 200.833,495.5 202.5,495.5 Z"/></g>
<g><path style="opacity:1" fill="#212121" d="M 111.5,497.5 C 109.084,496.032 106.417,495.365 103.5,495.5C 103.5,497.5 103.5,499.5 103.5,501.5C 112.833,502.167 112.833,502.833 103.5,503.5C 103.5,505.5 103.5,507.5 103.5,509.5C 101.554,504.604 100.887,499.271 101.5,493.5C 104.833,493.5 108.167,493.5 111.5,493.5C 111.5,494.833 111.5,496.167 111.5,497.5 Z"/></g>
<g><path style="opacity:1" fill="#e3e3e3" d="M 135.5,497.5 C 135.357,499.262 135.691,500.929 136.5,502.5C 134.955,503.452 133.288,503.785 131.5,503.5C 131.5,502.167 131.5,500.833 131.5,499.5C 132.833,498.833 134.167,498.167 135.5,497.5 Z"/></g>
<g><path style="opacity:1" fill="#a2a1a2" d="M 155.5,495.5 C 156.833,495.5 158.167,495.5 159.5,495.5C 159.5,500.167 159.5,504.833 159.5,509.5C 158.515,505.366 158.182,501.032 158.5,496.5C 157.209,496.737 156.209,496.404 155.5,495.5 Z"/></g>
<g><path style="opacity:1" fill="#212121" d="M 159.5,509.5 C 159.5,504.833 159.5,500.167 159.5,495.5C 158.167,495.5 156.833,495.5 155.5,495.5C 156.694,494.223 158.36,493.556 160.5,493.5C 162.167,493.833 163.833,494.167 165.5,494.5C 164.311,495.429 162.978,495.762 161.5,495.5C 162.103,500.619 161.436,505.285 159.5,509.5 Z"/></g>
<g><path style="opacity:1" fill="#676766" d="M 215.5,501.5 C 215.672,502.492 215.338,503.158 214.5,503.5C 213.618,501.916 212.785,500.249 212,498.5C 211.215,500.249 210.382,501.916 209.5,503.5C 208.883,503.389 208.383,503.056 208,502.5C 207.503,504.81 207.337,507.143 207.5,509.5C 206.844,508.378 206.511,507.045 206.5,505.5C 207.855,501.468 209.189,497.468 210.5,493.5C 211.5,493.5 212.5,493.5 213.5,493.5C 214.167,496.167 214.833,498.833 215.5,501.5 Z"/></g>
<g><path style="opacity:1" fill="#636464" d="M 241.5,501.5 C 241.672,502.492 241.338,503.158 240.5,503.5C 239.618,501.916 238.785,500.249 238,498.5C 237.215,500.249 236.382,501.916 235.5,503.5C 234.883,503.389 234.383,503.056 234,502.5C 233.503,504.81 233.337,507.143 233.5,509.5C 232.844,508.378 232.511,507.045 232.5,505.5C 233.855,501.468 235.189,497.468 236.5,493.5C 237.5,493.5 238.5,493.5 239.5,493.5C 240.167,496.167 240.833,498.833 241.5,501.5 Z"/></g>
<g><path style="opacity:1" fill="#363636" d="M 111.5,497.5 C 112.586,497.62 113.253,498.287 113.5,499.5C 113.253,500.713 112.586,501.38 111.5,501.5C 111.5,500.167 111.5,498.833 111.5,497.5 Z"/></g>
<g><path style="opacity:1" fill="#4c4c4c" d="M 175.5,499.5 C 174.265,499.279 173.265,498.612 172.5,497.5C 171.943,499.332 170.943,500.665 169.5,501.5C 169.167,501.5 168.833,501.5 168.5,501.5C 169.167,498.833 169.833,496.167 170.5,493.5C 173.957,493.96 175.623,495.96 175.5,499.5 Z"/></g>
<g><path style="opacity:1" fill="#5c5c5c" d="M 202.5,493.5 C 205.933,495.724 206.267,498.391 203.5,501.5C 206.267,504.609 205.933,507.276 202.5,509.5C 202.5,508.833 202.5,508.167 202.5,507.5C 202.5,506.167 202.5,504.833 202.5,503.5C 202.737,502.209 202.404,501.209 201.5,500.5C 202.301,498.958 202.634,497.292 202.5,495.5C 202.5,494.833 202.5,494.167 202.5,493.5 Z"/></g>
<g><path style="opacity:1" fill="#202020" d="M 117.5,506.5 C 119.698,507.165 122.031,507.832 124.5,508.5C 121.572,509.484 118.572,509.817 115.5,509.5C 115.172,504.125 115.505,498.792 116.5,493.5C 117.492,497.783 117.826,502.116 117.5,506.5 Z"/></g>
<g><path style="opacity:1" fill="#3d3d3d" d="M 145.5,499.5 C 147.176,500.183 147.843,501.517 147.5,503.5C 145.824,502.817 145.157,501.483 145.5,499.5 Z"/></g>
<g><path style="opacity:1" fill="#565656" d="M 228.5,509.5 C 228.5,508.833 228.5,508.167 228.5,507.5C 228.5,502.833 228.5,498.167 228.5,493.5C 229.5,493.5 230.5,493.5 231.5,493.5C 231.827,498.214 231.493,502.88 230.5,507.5C 229.818,508.243 229.151,508.909 228.5,509.5 Z"/></g>
<g><path style="opacity:1" fill="#cfcfcf" d="M 175.5,499.5 C 175.5,500.833 175.5,502.167 175.5,503.5C 172.918,503.975 170.918,503.308 169.5,501.5C 170.943,500.665 171.943,499.332 172.5,497.5C 173.265,498.612 174.265,499.279 175.5,499.5 Z"/></g>
<g><path style="opacity:1" fill="#dcdcdc" d="M 214.5,503.5 C 212.833,503.5 211.167,503.5 209.5,503.5C 210.382,501.916 211.215,500.249 212,498.5C 212.785,500.249 213.618,501.916 214.5,503.5 Z"/></g>
<g><path style="opacity:1" fill="#e1e1e1" d="M 240.5,503.5 C 238.833,503.5 237.167,503.5 235.5,503.5C 236.382,501.916 237.215,500.249 238,498.5C 238.785,500.249 239.618,501.916 240.5,503.5 Z"/></g>
<g><path style="opacity:1" fill="#d3d3d3" d="M 111.5,497.5 C 111.5,498.833 111.5,500.167 111.5,501.5C 111.5,502.5 111.5,503.5 111.5,504.5C 109.167,504.5 106.833,504.5 104.5,504.5C 104.784,506.415 104.451,508.081 103.5,509.5C 103.5,507.5 103.5,505.5 103.5,503.5C 112.833,502.833 112.833,502.167 103.5,501.5C 103.5,499.5 103.5,497.5 103.5,495.5C 106.417,495.365 109.084,496.032 111.5,497.5 Z"/></g>
<g><path style="opacity:1" fill="#0e0e0e" d="M 149.5,494.5 C 150.648,498.981 150.815,503.648 150,508.5C 149.617,507.944 149.117,507.611 148.5,507.5C 147.566,506.432 147.232,505.099 147.5,503.5C 149.388,501.012 150.055,498.012 149.5,494.5 Z"/></g>
<g><path style="opacity:1" fill="#252525" d="M 175.5,499.5 C 176.943,500.335 177.943,501.668 178.5,503.5C 179.833,505.5 179.833,507.5 178.5,509.5C 177.571,508.311 177.238,506.978 177.5,505.5C 174.833,505.5 172.167,505.5 169.5,505.5C 169.762,506.978 169.429,508.311 168.5,509.5C 167.2,506.691 167.2,504.024 168.5,501.5C 168.833,501.5 169.167,501.5 169.5,501.5C 170.918,503.308 172.918,503.975 175.5,503.5C 175.5,502.167 175.5,500.833 175.5,499.5 Z"/></g>
<g><path style="opacity:1" fill="#282828" d="M 241.5,501.5 C 242.748,502.334 243.415,503.667 243.5,505.5C 242.801,510.766 242.134,510.766 241.5,505.5C 239.5,505.5 237.5,505.5 235.5,505.5C 235.843,507.483 235.176,508.817 233.5,509.5C 233.337,507.143 233.503,504.81 234,502.5C 234.383,503.056 234.883,503.389 235.5,503.5C 237.167,503.5 238.833,503.5 240.5,503.5C 241.338,503.158 241.672,502.492 241.5,501.5 Z"/></g>
<g><path style="opacity:1" fill="#2a292a" d="M 135.5,497.5 C 137.83,499.492 139.164,502.159 139.5,505.5C 138.801,510.766 138.134,510.766 137.5,505.5C 134.833,505.5 132.167,505.5 129.5,505.5C 129.5,506.833 129.5,508.167 129.5,509.5C 127.692,508.082 127.025,506.082 127.5,503.5C 128.833,502.167 130.167,500.833 131.5,499.5C 131.5,500.833 131.5,502.167 131.5,503.5C 133.288,503.785 134.955,503.452 136.5,502.5C 135.691,500.929 135.357,499.262 135.5,497.5 Z"/></g>
<g><path style="opacity:1" fill="#e8e8e8" d="M 202.5,503.5 C 202.5,504.833 202.5,506.167 202.5,507.5C 200.833,507.5 199.167,507.5 197.5,507.5C 197.5,506.167 197.5,504.833 197.5,503.5C 199.167,503.5 200.833,503.5 202.5,503.5 Z"/></g>
<g><path style="opacity:1" fill="#ababab" d="M 143.5,494.5 C 141.558,499.056 140.892,504.056 141.5,509.5C 140.512,504.36 140.179,499.026 140.5,493.5C 141.791,493.263 142.791,493.596 143.5,494.5 Z"/></g>
<g><path style="opacity:1" fill="#1f1f1f" d="M 202.5,493.5 C 202.5,494.167 202.5,494.833 202.5,495.5C 200.833,495.5 199.167,495.5 197.5,495.5C 197.5,497.5 197.5,499.5 197.5,501.5C 199.099,501.768 200.432,501.434 201.5,500.5C 202.404,501.209 202.737,502.209 202.5,503.5C 200.833,503.5 199.167,503.5 197.5,503.5C 197.5,504.833 197.5,506.167 197.5,507.5C 199.167,507.5 200.833,507.5 202.5,507.5C 202.5,508.167 202.5,508.833 202.5,509.5C 199.428,509.817 196.428,509.484 193.5,508.5C 196.167,503.833 196.167,499.167 193.5,494.5C 196.428,493.516 199.428,493.183 202.5,493.5 Z"/></g>
<g><path style="opacity:1" fill="#262726" d="M 215.5,501.5 C 216.748,502.334 217.415,503.667 217.5,505.5C 216.801,510.766 216.134,510.766 215.5,505.5C 213.5,505.5 211.5,505.5 209.5,505.5C 209.843,507.483 209.176,508.817 207.5,509.5C 207.337,507.143 207.503,504.81 208,502.5C 208.383,503.056 208.883,503.389 209.5,503.5C 211.167,503.5 212.833,503.5 214.5,503.5C 215.338,503.158 215.672,502.492 215.5,501.5 Z"/></g>
<g><path style="opacity:1" fill="#262626" d="M 228.5,507.5 C 228.5,508.167 228.5,508.833 228.5,509.5C 225.018,509.873 222.018,508.873 219.5,506.5C 220.167,506.167 220.833,505.833 221.5,505.5C 223.646,506.894 225.979,507.56 228.5,507.5 Z"/></g>
<g><path style="opacity:1" fill="#c6c6c6" d="M 127.5,503.5 C 127.025,506.082 127.692,508.082 129.5,509.5C 124.833,510.833 120.167,510.833 115.5,509.5C 118.572,509.817 121.572,509.484 124.5,508.5C 122.031,507.832 119.698,507.165 117.5,506.5C 120.448,506.223 123.281,506.556 126,507.5C 126.21,505.942 126.71,504.609 127.5,503.5 Z"/></g>
<g><path style="opacity:1" fill="#000000" d="M 237.5,533.5 C 238.832,542.809 239.499,552.476 239.5,562.5C 239.167,572.167 238.833,581.833 238.5,591.5C 237.5,572.178 237.167,552.845 237.5,533.5 Z"/></g>
<g><path style="opacity:1" fill="#1c1c1c" d="M 152.5,546.5 C 154.167,546.5 155.833,546.5 157.5,546.5C 157.5,557.5 157.5,568.5 157.5,579.5C 155.833,579.5 154.167,579.5 152.5,579.5C 152.5,568.5 152.5,557.5 152.5,546.5 Z"/></g>
<g><path style="opacity:1" fill="#0f0f0f" d="M 107.5,548.5 C 109.604,548.201 111.604,548.534 113.5,549.5C 117.444,559.331 120.777,569.331 123.5,579.5C 121.833,579.5 120.167,579.5 118.5,579.5C 118.244,577.063 117.577,574.729 116.5,572.5C 112.217,571.508 107.884,571.174 103.5,571.5C 103.244,573.937 102.577,576.271 101.5,578.5C 100.311,579.429 98.9778,579.762 97.5,579.5C 100.428,569.05 103.761,558.717 107.5,548.5 Z"/></g>
<g><path style="opacity:1" fill="#121212" d="M 204.5,547.5 C 207.91,547.384 209.244,549.05 208.5,552.5C 206.833,552.5 205.167,552.5 203.5,552.5C 203.366,550.708 203.699,549.042 204.5,547.5 Z"/></g>
<g><path style="opacity:1" fill="#eaeaea" d="M 109.5,554.5 C 112.12,558.343 113.787,562.676 114.5,567.5C 111.428,567.817 108.428,567.484 105.5,566.5C 107.039,562.55 108.372,558.55 109.5,554.5 Z"/></g>
<g><path style="opacity:1" fill="#151515" d="M 166.5,556.5 C 171.849,555.461 176.349,556.795 180,560.5C 180.5,566.825 180.666,573.158 180.5,579.5C 178.549,579.773 177.049,579.107 176,577.5C 166.706,582.268 162.373,579.602 163,569.5C 163.5,569 164,568.5 164.5,568C 168.026,566.663 171.692,566.163 175.5,566.5C 175.739,564.533 175.406,562.699 174.5,561C 170.797,560.421 167.131,560.588 163.5,561.5C 163.31,559.041 164.31,557.374 166.5,556.5 Z"/></g>
<g><path style="opacity:1" fill="#171717" d="M 186.5,556.5 C 187.833,556.5 189.167,556.5 190.5,556.5C 190.443,560.133 191.443,560.3 193.5,557C 195.473,556.505 197.473,556.338 199.5,556.5C 199.5,557.833 199.5,559.167 199.5,560.5C 196.348,559.959 193.848,560.959 192,563.5C 191.501,568.823 191.334,574.156 191.5,579.5C 189.833,579.5 188.167,579.5 186.5,579.5C 186.5,571.833 186.5,564.167 186.5,556.5 Z"/></g>
<g><path style="opacity:1" fill="#121212" d="M 219.5,556.5 C 232.199,555.171 237.032,560.838 234,573.5C 232.833,576 231,577.833 228.5,579C 216.055,580.544 211.222,575.044 214,562.5C 215.36,559.977 217.193,557.977 219.5,556.5 Z"/></g>
<g><path style="opacity:1" fill="#191919" d="M 127.5,556.5 C 129.167,556.5 130.833,556.5 132.5,556.5C 132.334,562.176 132.501,567.843 133,573.5C 135.529,575.948 138.196,575.948 141,573.5C 141.499,567.843 141.666,562.176 141.5,556.5C 143.167,556.5 144.833,556.5 146.5,556.5C 146.5,564.167 146.5,571.833 146.5,579.5C 144.508,579.672 142.842,579.005 141.5,577.5C 137.033,580.42 132.867,580.086 129,576.5C 127.58,569.95 127.08,563.284 127.5,556.5 Z"/></g>
<g><path style="opacity:1" fill="#1d1d1d" d="M 203.5,556.5 C 205.167,556.5 206.833,556.5 208.5,556.5C 208.5,564.167 208.5,571.833 208.5,579.5C 206.833,579.5 205.167,579.5 203.5,579.5C 203.5,571.833 203.5,564.167 203.5,556.5 Z"/></g>
<g><path style="opacity:1" fill="#f6f6f6" d="M 221.5,560.5 C 229.071,560.263 231.904,563.93 230,571.5C 227.947,575.292 224.781,576.458 220.5,575C 218.544,571.405 218.044,567.572 219,563.5C 219.698,562.309 220.531,561.309 221.5,560.5 Z"/></g>
<g><path style="opacity:1" fill="#f0f0f0" d="M 169.5,569.5 C 171.5,569.5 173.5,569.5 175.5,569.5C 176,573.437 174.333,575.77 170.5,576.5C 168.261,576.426 167.261,575.259 167.5,573C 167.862,571.566 168.528,570.399 169.5,569.5 Z"/></g>
</svg>
